%TF.GenerationSoftware,KiCad,Pcbnew,6.0.4-1.fc35*%
%TF.CreationDate,2022-04-09T22:38:20+01:00*%
%TF.ProjectId,DevBoard,44657642-6f61-4726-942e-6b696361645f,rev?*%
%TF.SameCoordinates,Original*%
%TF.FileFunction,Legend,Top*%
%TF.FilePolarity,Positive*%
%FSLAX46Y46*%
G04 Gerber Fmt 4.6, Leading zero omitted, Abs format (unit mm)*
G04 Created by KiCad (PCBNEW 6.0.4-1.fc35) date 2022-04-09 22:38:20*
%MOMM*%
%LPD*%
G01*
G04 APERTURE LIST*
%ADD10C,0.300000*%
%ADD11C,0.150000*%
%ADD12C,0.120000*%
%ADD13R,1.700000X1.700000*%
%ADD14O,1.700000X1.700000*%
%ADD15C,1.524000*%
%ADD16C,3.810000*%
G04 APERTURE END LIST*
D10*
X145337714Y-90427071D02*
X145837714Y-91927071D01*
X146337714Y-90427071D01*
X147052000Y-91927071D02*
X146909142Y-91855642D01*
X146837714Y-91784214D01*
X146766285Y-91641357D01*
X146766285Y-91212785D01*
X146837714Y-91069928D01*
X146909142Y-90998500D01*
X147052000Y-90927071D01*
X147266285Y-90927071D01*
X147409142Y-90998500D01*
X147480571Y-91069928D01*
X147552000Y-91212785D01*
X147552000Y-91641357D01*
X147480571Y-91784214D01*
X147409142Y-91855642D01*
X147266285Y-91927071D01*
X147052000Y-91927071D01*
X148409142Y-91927071D02*
X148266285Y-91855642D01*
X148194857Y-91712785D01*
X148194857Y-90427071D01*
X148980571Y-91927071D02*
X148980571Y-90427071D01*
X149123428Y-91355642D02*
X149552000Y-91927071D01*
X149552000Y-90927071D02*
X148980571Y-91498500D01*
X150123428Y-91855642D02*
X150266285Y-91927071D01*
X150552000Y-91927071D01*
X150694857Y-91855642D01*
X150766285Y-91712785D01*
X150766285Y-91641357D01*
X150694857Y-91498500D01*
X150552000Y-91427071D01*
X150337714Y-91427071D01*
X150194857Y-91355642D01*
X150123428Y-91212785D01*
X150123428Y-91141357D01*
X150194857Y-90998500D01*
X150337714Y-90927071D01*
X150552000Y-90927071D01*
X150694857Y-90998500D01*
X151409142Y-91141357D02*
X151909142Y-91141357D01*
X152123428Y-91927071D02*
X151409142Y-91927071D01*
X151409142Y-90427071D01*
X152123428Y-90427071D01*
X152766285Y-91141357D02*
X153266285Y-91141357D01*
X153480571Y-91927071D02*
X152766285Y-91927071D01*
X152766285Y-90427071D01*
X153480571Y-90427071D01*
X154909142Y-90498500D02*
X154766285Y-90427071D01*
X154552000Y-90427071D01*
X154337714Y-90498500D01*
X154194857Y-90641357D01*
X154123428Y-90784214D01*
X154052000Y-91069928D01*
X154052000Y-91284214D01*
X154123428Y-91569928D01*
X154194857Y-91712785D01*
X154337714Y-91855642D01*
X154552000Y-91927071D01*
X154694857Y-91927071D01*
X154909142Y-91855642D01*
X154980571Y-91784214D01*
X154980571Y-91284214D01*
X154694857Y-91284214D01*
X156766285Y-91927071D02*
X156766285Y-90427071D01*
X157123428Y-90427071D01*
X157337714Y-90498500D01*
X157480571Y-90641357D01*
X157552000Y-90784214D01*
X157623428Y-91069928D01*
X157623428Y-91284214D01*
X157552000Y-91569928D01*
X157480571Y-91712785D01*
X157337714Y-91855642D01*
X157123428Y-91927071D01*
X156766285Y-91927071D01*
X158837714Y-91855642D02*
X158694857Y-91927071D01*
X158409142Y-91927071D01*
X158266285Y-91855642D01*
X158194857Y-91712785D01*
X158194857Y-91141357D01*
X158266285Y-90998500D01*
X158409142Y-90927071D01*
X158694857Y-90927071D01*
X158837714Y-90998500D01*
X158909142Y-91141357D01*
X158909142Y-91284214D01*
X158194857Y-91427071D01*
X159409142Y-90927071D02*
X159766285Y-91927071D01*
X160123428Y-90927071D01*
X161194857Y-91141357D02*
X161409142Y-91212785D01*
X161480571Y-91284214D01*
X161552000Y-91427071D01*
X161552000Y-91641357D01*
X161480571Y-91784214D01*
X161409142Y-91855642D01*
X161266285Y-91927071D01*
X160694857Y-91927071D01*
X160694857Y-90427071D01*
X161194857Y-90427071D01*
X161337714Y-90498500D01*
X161409142Y-90569928D01*
X161480571Y-90712785D01*
X161480571Y-90855642D01*
X161409142Y-90998500D01*
X161337714Y-91069928D01*
X161194857Y-91141357D01*
X160694857Y-91141357D01*
X162409142Y-91927071D02*
X162266285Y-91855642D01*
X162194857Y-91784214D01*
X162123428Y-91641357D01*
X162123428Y-91212785D01*
X162194857Y-91069928D01*
X162266285Y-90998500D01*
X162409142Y-90927071D01*
X162623428Y-90927071D01*
X162766285Y-90998500D01*
X162837714Y-91069928D01*
X162909142Y-91212785D01*
X162909142Y-91641357D01*
X162837714Y-91784214D01*
X162766285Y-91855642D01*
X162623428Y-91927071D01*
X162409142Y-91927071D01*
X164194857Y-91927071D02*
X164194857Y-91141357D01*
X164123428Y-90998500D01*
X163980571Y-90927071D01*
X163694857Y-90927071D01*
X163552000Y-90998500D01*
X164194857Y-91855642D02*
X164052000Y-91927071D01*
X163694857Y-91927071D01*
X163552000Y-91855642D01*
X163480571Y-91712785D01*
X163480571Y-91569928D01*
X163552000Y-91427071D01*
X163694857Y-91355642D01*
X164052000Y-91355642D01*
X164194857Y-91284214D01*
X164909142Y-91927071D02*
X164909142Y-90927071D01*
X164909142Y-91212785D02*
X164980571Y-91069928D01*
X165052000Y-90998500D01*
X165194857Y-90927071D01*
X165337714Y-90927071D01*
X166480571Y-91927071D02*
X166480571Y-90427071D01*
X166480571Y-91855642D02*
X166337714Y-91927071D01*
X166052000Y-91927071D01*
X165909142Y-91855642D01*
X165837714Y-91784214D01*
X165766285Y-91641357D01*
X165766285Y-91212785D01*
X165837714Y-91069928D01*
X165909142Y-90998500D01*
X166052000Y-90927071D01*
X166337714Y-90927071D01*
X166480571Y-90998500D01*
X168337714Y-91355642D02*
X169480571Y-91355642D01*
X172194857Y-91927071D02*
X171694857Y-91212785D01*
X171337714Y-91927071D02*
X171337714Y-90427071D01*
X171909142Y-90427071D01*
X172052000Y-90498500D01*
X172123428Y-90569928D01*
X172194857Y-90712785D01*
X172194857Y-90927071D01*
X172123428Y-91069928D01*
X172052000Y-91141357D01*
X171909142Y-91212785D01*
X171337714Y-91212785D01*
X173409142Y-91855642D02*
X173266285Y-91927071D01*
X172980571Y-91927071D01*
X172837714Y-91855642D01*
X172766285Y-91712785D01*
X172766285Y-91141357D01*
X172837714Y-90998500D01*
X172980571Y-90927071D01*
X173266285Y-90927071D01*
X173409142Y-90998500D01*
X173480571Y-91141357D01*
X173480571Y-91284214D01*
X172766285Y-91427071D01*
X173980571Y-90927071D02*
X174337714Y-91927071D01*
X174694857Y-90927071D01*
X176694857Y-90427071D02*
X176837714Y-90427071D01*
X176980571Y-90498500D01*
X177052000Y-90569928D01*
X177123428Y-90712785D01*
X177194857Y-90998500D01*
X177194857Y-91355642D01*
X177123428Y-91641357D01*
X177052000Y-91784214D01*
X176980571Y-91855642D01*
X176837714Y-91927071D01*
X176694857Y-91927071D01*
X176552000Y-91855642D01*
X176480571Y-91784214D01*
X176409142Y-91641357D01*
X176337714Y-91355642D01*
X176337714Y-90998500D01*
X176409142Y-90712785D01*
X176480571Y-90569928D01*
X176552000Y-90498500D01*
X176694857Y-90427071D01*
X178623428Y-91927071D02*
X177766285Y-91927071D01*
X178194857Y-91927071D02*
X178194857Y-90427071D01*
X178052000Y-90641357D01*
X177909142Y-90784214D01*
X177766285Y-90855642D01*
X143337714Y-94342071D02*
X143337714Y-92842071D01*
X144194857Y-94342071D01*
X144194857Y-92842071D01*
X145123428Y-94342071D02*
X144980571Y-94270642D01*
X144909142Y-94199214D01*
X144837714Y-94056357D01*
X144837714Y-93627785D01*
X144909142Y-93484928D01*
X144980571Y-93413500D01*
X145123428Y-93342071D01*
X145337714Y-93342071D01*
X145480571Y-93413500D01*
X145552000Y-93484928D01*
X145623428Y-93627785D01*
X145623428Y-94056357D01*
X145552000Y-94199214D01*
X145480571Y-94270642D01*
X145337714Y-94342071D01*
X145123428Y-94342071D01*
X146052000Y-93342071D02*
X146623428Y-93342071D01*
X146266285Y-92842071D02*
X146266285Y-94127785D01*
X146337714Y-94270642D01*
X146480571Y-94342071D01*
X146623428Y-94342071D01*
X148052000Y-93342071D02*
X148623428Y-93342071D01*
X148266285Y-94342071D02*
X148266285Y-93056357D01*
X148337714Y-92913500D01*
X148480571Y-92842071D01*
X148623428Y-92842071D01*
X149337714Y-94342071D02*
X149194857Y-94270642D01*
X149123428Y-94199214D01*
X149052000Y-94056357D01*
X149052000Y-93627785D01*
X149123428Y-93484928D01*
X149194857Y-93413500D01*
X149337714Y-93342071D01*
X149552000Y-93342071D01*
X149694857Y-93413500D01*
X149766285Y-93484928D01*
X149837714Y-93627785D01*
X149837714Y-94056357D01*
X149766285Y-94199214D01*
X149694857Y-94270642D01*
X149552000Y-94342071D01*
X149337714Y-94342071D01*
X150480571Y-94342071D02*
X150480571Y-93342071D01*
X150480571Y-93627785D02*
X150552000Y-93484928D01*
X150623428Y-93413500D01*
X150766285Y-93342071D01*
X150909142Y-93342071D01*
X153194857Y-93342071D02*
X153194857Y-94342071D01*
X152552000Y-93342071D02*
X152552000Y-94127785D01*
X152623428Y-94270642D01*
X152766285Y-94342071D01*
X152980571Y-94342071D01*
X153123428Y-94270642D01*
X153194857Y-94199214D01*
X153837714Y-94270642D02*
X153980571Y-94342071D01*
X154266285Y-94342071D01*
X154409142Y-94270642D01*
X154480571Y-94127785D01*
X154480571Y-94056357D01*
X154409142Y-93913500D01*
X154266285Y-93842071D01*
X154052000Y-93842071D01*
X153909142Y-93770642D01*
X153837714Y-93627785D01*
X153837714Y-93556357D01*
X153909142Y-93413500D01*
X154052000Y-93342071D01*
X154266285Y-93342071D01*
X154409142Y-93413500D01*
X155694857Y-94270642D02*
X155552000Y-94342071D01*
X155266285Y-94342071D01*
X155123428Y-94270642D01*
X155052000Y-94127785D01*
X155052000Y-93556357D01*
X155123428Y-93413500D01*
X155266285Y-93342071D01*
X155552000Y-93342071D01*
X155694857Y-93413500D01*
X155766285Y-93556357D01*
X155766285Y-93699214D01*
X155052000Y-93842071D01*
X158194857Y-94342071D02*
X158194857Y-93556357D01*
X158123428Y-93413500D01*
X157980571Y-93342071D01*
X157694857Y-93342071D01*
X157552000Y-93413500D01*
X158194857Y-94270642D02*
X158052000Y-94342071D01*
X157694857Y-94342071D01*
X157552000Y-94270642D01*
X157480571Y-94127785D01*
X157480571Y-93984928D01*
X157552000Y-93842071D01*
X157694857Y-93770642D01*
X158052000Y-93770642D01*
X158194857Y-93699214D01*
X158837714Y-94270642D02*
X158980571Y-94342071D01*
X159266285Y-94342071D01*
X159409142Y-94270642D01*
X159480571Y-94127785D01*
X159480571Y-94056357D01*
X159409142Y-93913500D01*
X159266285Y-93842071D01*
X159052000Y-93842071D01*
X158909142Y-93770642D01*
X158837714Y-93627785D01*
X158837714Y-93556357D01*
X158909142Y-93413500D01*
X159052000Y-93342071D01*
X159266285Y-93342071D01*
X159409142Y-93413500D01*
X161909142Y-94342071D02*
X161909142Y-93556357D01*
X161837714Y-93413500D01*
X161694857Y-93342071D01*
X161409142Y-93342071D01*
X161266285Y-93413500D01*
X161909142Y-94270642D02*
X161766285Y-94342071D01*
X161409142Y-94342071D01*
X161266285Y-94270642D01*
X161194857Y-94127785D01*
X161194857Y-93984928D01*
X161266285Y-93842071D01*
X161409142Y-93770642D01*
X161766285Y-93770642D01*
X161909142Y-93699214D01*
X163766285Y-94342071D02*
X163766285Y-93342071D01*
X163766285Y-93484928D02*
X163837714Y-93413500D01*
X163980571Y-93342071D01*
X164194857Y-93342071D01*
X164337714Y-93413500D01*
X164409142Y-93556357D01*
X164409142Y-94342071D01*
X164409142Y-93556357D02*
X164480571Y-93413500D01*
X164623428Y-93342071D01*
X164837714Y-93342071D01*
X164980571Y-93413500D01*
X165052000Y-93556357D01*
X165052000Y-94342071D01*
X166337714Y-94270642D02*
X166194857Y-94342071D01*
X165909142Y-94342071D01*
X165766285Y-94270642D01*
X165694857Y-94127785D01*
X165694857Y-93556357D01*
X165766285Y-93413500D01*
X165909142Y-93342071D01*
X166194857Y-93342071D01*
X166337714Y-93413500D01*
X166409142Y-93556357D01*
X166409142Y-93699214D01*
X165694857Y-93842071D01*
X167694857Y-94342071D02*
X167694857Y-92842071D01*
X167694857Y-94270642D02*
X167552000Y-94342071D01*
X167266285Y-94342071D01*
X167123428Y-94270642D01*
X167052000Y-94199214D01*
X166980571Y-94056357D01*
X166980571Y-93627785D01*
X167052000Y-93484928D01*
X167123428Y-93413500D01*
X167266285Y-93342071D01*
X167552000Y-93342071D01*
X167694857Y-93413500D01*
X168409142Y-94342071D02*
X168409142Y-93342071D01*
X168409142Y-92842071D02*
X168337714Y-92913500D01*
X168409142Y-92984928D01*
X168480571Y-92913500D01*
X168409142Y-92842071D01*
X168409142Y-92984928D01*
X169766285Y-94270642D02*
X169623428Y-94342071D01*
X169337714Y-94342071D01*
X169194857Y-94270642D01*
X169123428Y-94199214D01*
X169052000Y-94056357D01*
X169052000Y-93627785D01*
X169123428Y-93484928D01*
X169194857Y-93413500D01*
X169337714Y-93342071D01*
X169623428Y-93342071D01*
X169766285Y-93413500D01*
X171052000Y-94342071D02*
X171052000Y-93556357D01*
X170980571Y-93413500D01*
X170837714Y-93342071D01*
X170552000Y-93342071D01*
X170409142Y-93413500D01*
X171052000Y-94270642D02*
X170909142Y-94342071D01*
X170552000Y-94342071D01*
X170409142Y-94270642D01*
X170337714Y-94127785D01*
X170337714Y-93984928D01*
X170409142Y-93842071D01*
X170552000Y-93770642D01*
X170909142Y-93770642D01*
X171052000Y-93699214D01*
X171980571Y-94342071D02*
X171837714Y-94270642D01*
X171766285Y-94127785D01*
X171766285Y-92842071D01*
X174337714Y-94342071D02*
X174337714Y-92842071D01*
X174337714Y-94270642D02*
X174194857Y-94342071D01*
X173909142Y-94342071D01*
X173766285Y-94270642D01*
X173694857Y-94199214D01*
X173623428Y-94056357D01*
X173623428Y-93627785D01*
X173694857Y-93484928D01*
X173766285Y-93413500D01*
X173909142Y-93342071D01*
X174194857Y-93342071D01*
X174337714Y-93413500D01*
X175623428Y-94270642D02*
X175480571Y-94342071D01*
X175194857Y-94342071D01*
X175052000Y-94270642D01*
X174980571Y-94127785D01*
X174980571Y-93556357D01*
X175052000Y-93413500D01*
X175194857Y-93342071D01*
X175480571Y-93342071D01*
X175623428Y-93413500D01*
X175694857Y-93556357D01*
X175694857Y-93699214D01*
X174980571Y-93842071D01*
X176194857Y-93342071D02*
X176552000Y-94342071D01*
X176909142Y-93342071D01*
X177480571Y-94342071D02*
X177480571Y-93342071D01*
X177480571Y-92842071D02*
X177409142Y-92913500D01*
X177480571Y-92984928D01*
X177552000Y-92913500D01*
X177480571Y-92842071D01*
X177480571Y-92984928D01*
X178837714Y-94270642D02*
X178694857Y-94342071D01*
X178409142Y-94342071D01*
X178266285Y-94270642D01*
X178194857Y-94199214D01*
X178123428Y-94056357D01*
X178123428Y-93627785D01*
X178194857Y-93484928D01*
X178266285Y-93413500D01*
X178409142Y-93342071D01*
X178694857Y-93342071D01*
X178837714Y-93413500D01*
X180052000Y-94270642D02*
X179909142Y-94342071D01*
X179623428Y-94342071D01*
X179480571Y-94270642D01*
X179409142Y-94127785D01*
X179409142Y-93556357D01*
X179480571Y-93413500D01*
X179623428Y-93342071D01*
X179909142Y-93342071D01*
X180052000Y-93413500D01*
X180123428Y-93556357D01*
X180123428Y-93699214D01*
X179409142Y-93842071D01*
X180766285Y-94199214D02*
X180837714Y-94270642D01*
X180766285Y-94342071D01*
X180694857Y-94270642D01*
X180766285Y-94199214D01*
X180766285Y-94342071D01*
D11*
%TO.C,J3*%
X184667380Y-68405333D02*
X185381666Y-68405333D01*
X185524523Y-68452952D01*
X185619761Y-68548190D01*
X185667380Y-68691047D01*
X185667380Y-68786285D01*
X184667380Y-68024380D02*
X184667380Y-67405333D01*
X185048333Y-67738666D01*
X185048333Y-67595809D01*
X185095952Y-67500571D01*
X185143571Y-67452952D01*
X185238809Y-67405333D01*
X185476904Y-67405333D01*
X185572142Y-67452952D01*
X185619761Y-67500571D01*
X185667380Y-67595809D01*
X185667380Y-67881523D01*
X185619761Y-67976761D01*
X185572142Y-68024380D01*
%TO.C,J4*%
X180773666Y-145551380D02*
X180773666Y-146265666D01*
X180726047Y-146408523D01*
X180630809Y-146503761D01*
X180487952Y-146551380D01*
X180392714Y-146551380D01*
X181678428Y-145884714D02*
X181678428Y-146551380D01*
X181440333Y-145503761D02*
X181202238Y-146218047D01*
X181821285Y-146218047D01*
%TO.C,U2*%
X161952380Y-117347904D02*
X162761904Y-117347904D01*
X162857142Y-117300285D01*
X162904761Y-117252666D01*
X162952380Y-117157428D01*
X162952380Y-116966952D01*
X162904761Y-116871714D01*
X162857142Y-116824095D01*
X162761904Y-116776476D01*
X161952380Y-116776476D01*
X162047619Y-116347904D02*
X162000000Y-116300285D01*
X161952380Y-116205047D01*
X161952380Y-115966952D01*
X162000000Y-115871714D01*
X162047619Y-115824095D01*
X162142857Y-115776476D01*
X162238095Y-115776476D01*
X162380952Y-115824095D01*
X162952380Y-116395523D01*
X162952380Y-115776476D01*
%TO.C,J1*%
X143396666Y-120146380D02*
X143396666Y-120860666D01*
X143349047Y-121003523D01*
X143253809Y-121098761D01*
X143110952Y-121146380D01*
X143015714Y-121146380D01*
X144396666Y-121146380D02*
X143825238Y-121146380D01*
X144110952Y-121146380D02*
X144110952Y-120146380D01*
X144015714Y-120289238D01*
X143920476Y-120384476D01*
X143825238Y-120432095D01*
%TO.C,J5*%
X144954666Y-145551380D02*
X144954666Y-146265666D01*
X144907047Y-146408523D01*
X144811809Y-146503761D01*
X144668952Y-146551380D01*
X144573714Y-146551380D01*
X145907047Y-145551380D02*
X145430857Y-145551380D01*
X145383238Y-146027571D01*
X145430857Y-145979952D01*
X145526095Y-145932333D01*
X145764190Y-145932333D01*
X145859428Y-145979952D01*
X145907047Y-146027571D01*
X145954666Y-146122809D01*
X145954666Y-146360904D01*
X145907047Y-146456142D01*
X145859428Y-146503761D01*
X145764190Y-146551380D01*
X145526095Y-146551380D01*
X145430857Y-146503761D01*
X145383238Y-146456142D01*
%TO.C,U3*%
X219202095Y-64984380D02*
X219202095Y-65793904D01*
X219249714Y-65889142D01*
X219297333Y-65936761D01*
X219392571Y-65984380D01*
X219583047Y-65984380D01*
X219678285Y-65936761D01*
X219725904Y-65889142D01*
X219773523Y-65793904D01*
X219773523Y-64984380D01*
X220154476Y-64984380D02*
X220773523Y-64984380D01*
X220440190Y-65365333D01*
X220583047Y-65365333D01*
X220678285Y-65412952D01*
X220725904Y-65460571D01*
X220773523Y-65555809D01*
X220773523Y-65793904D01*
X220725904Y-65889142D01*
X220678285Y-65936761D01*
X220583047Y-65984380D01*
X220297333Y-65984380D01*
X220202095Y-65936761D01*
X220154476Y-65889142D01*
%TO.C,U1*%
X140462095Y-62190380D02*
X140462095Y-62999904D01*
X140509714Y-63095142D01*
X140557333Y-63142761D01*
X140652571Y-63190380D01*
X140843047Y-63190380D01*
X140938285Y-63142761D01*
X140985904Y-63095142D01*
X141033523Y-62999904D01*
X141033523Y-62190380D01*
X142033523Y-63190380D02*
X141462095Y-63190380D01*
X141747809Y-63190380D02*
X141747809Y-62190380D01*
X141652571Y-62333238D01*
X141557333Y-62428476D01*
X141462095Y-62476095D01*
%TO.C,J2*%
X182043666Y-117606380D02*
X182043666Y-118320666D01*
X181996047Y-118463523D01*
X181900809Y-118558761D01*
X181757952Y-118606380D01*
X181662714Y-118606380D01*
X182472238Y-117701619D02*
X182519857Y-117654000D01*
X182615095Y-117606380D01*
X182853190Y-117606380D01*
X182948428Y-117654000D01*
X182996047Y-117701619D01*
X183043666Y-117796857D01*
X183043666Y-117892095D01*
X182996047Y-118034952D01*
X182424619Y-118606380D01*
X183043666Y-118606380D01*
D12*
%TO.C,J3*%
X181615000Y-66742000D02*
X181615000Y-69402000D01*
X184215000Y-66742000D02*
X184215000Y-68072000D01*
X181615000Y-69402000D02*
X179015000Y-69402000D01*
X182885000Y-66742000D02*
X184215000Y-66742000D01*
X179015000Y-66742000D02*
X179015000Y-69402000D01*
X181615000Y-66742000D02*
X179015000Y-66742000D01*
%TO.C,J4*%
X182437000Y-119579000D02*
X179777000Y-119579000D01*
X182437000Y-142499000D02*
X182437000Y-119579000D01*
X182437000Y-142499000D02*
X179777000Y-142499000D01*
X179777000Y-142499000D02*
X179777000Y-119579000D01*
X182437000Y-145099000D02*
X181107000Y-145099000D01*
X182437000Y-143769000D02*
X182437000Y-145099000D01*
%TO.C,J1*%
X146330000Y-117094000D02*
X143730000Y-117094000D01*
X143730000Y-117094000D02*
X143730000Y-119694000D01*
X146330000Y-118364000D02*
X146330000Y-119694000D01*
X146330000Y-117094000D02*
X146330000Y-104334000D01*
X141130000Y-119694000D02*
X141130000Y-104334000D01*
X146330000Y-119694000D02*
X145000000Y-119694000D01*
X143730000Y-119694000D02*
X141130000Y-119694000D01*
X146330000Y-104334000D02*
X141130000Y-104334000D01*
%TO.C,J5*%
X146618000Y-142499000D02*
X146618000Y-127199000D01*
X146618000Y-143769000D02*
X146618000Y-145099000D01*
X146618000Y-145099000D02*
X145288000Y-145099000D01*
X146618000Y-142499000D02*
X143958000Y-142499000D01*
X146618000Y-127199000D02*
X143958000Y-127199000D01*
X143958000Y-142499000D02*
X143958000Y-127199000D01*
%TO.C,U3*%
X188672000Y-147942000D02*
X228172000Y-147942000D01*
X188672000Y-147942000D02*
X188672000Y-66942000D01*
X228172000Y-66942000D02*
X228172000Y-147942000D01*
X188672000Y-66942000D02*
X228172000Y-66942000D01*
%TO.C,U1*%
X169545000Y-89154000D02*
X169545000Y-63754000D01*
X137795000Y-89154000D02*
X169545000Y-89154000D01*
X137795000Y-63754000D02*
X137795000Y-89154000D01*
X169545000Y-63754000D02*
X137795000Y-63754000D01*
%TO.C,J2*%
X184977000Y-101794000D02*
X179777000Y-101794000D01*
X184977000Y-117154000D02*
X183647000Y-117154000D01*
X182377000Y-117154000D02*
X179777000Y-117154000D01*
X184977000Y-114554000D02*
X184977000Y-101794000D01*
X179777000Y-117154000D02*
X179777000Y-101794000D01*
X184977000Y-114554000D02*
X182377000Y-114554000D01*
X184977000Y-115824000D02*
X184977000Y-117154000D01*
X182377000Y-114554000D02*
X182377000Y-117154000D01*
%TD*%
%LPC*%
D13*
%TO.C,J3*%
X182885000Y-68072000D03*
D14*
X180345000Y-68072000D03*
%TD*%
D13*
%TO.C,J4*%
X181107000Y-143769000D03*
D14*
X181107000Y-141229000D03*
X181107000Y-138689000D03*
X181107000Y-136149000D03*
X181107000Y-133609000D03*
X181107000Y-131069000D03*
X181107000Y-128529000D03*
X181107000Y-125989000D03*
X181107000Y-123449000D03*
X181107000Y-120909000D03*
%TD*%
D15*
%TO.C,U2*%
X173160000Y-139446000D03*
X173160000Y-136906000D03*
X173160000Y-134366000D03*
X173160000Y-131826000D03*
X173160000Y-129286000D03*
X173160000Y-126746000D03*
X173160000Y-124206000D03*
X173160000Y-121666000D03*
X173160000Y-119126000D03*
X173160000Y-116586000D03*
X173160000Y-114046000D03*
X173160000Y-111506000D03*
X173160000Y-108966000D03*
X173160000Y-106426000D03*
X173160000Y-103886000D03*
X173160000Y-101346000D03*
X152840000Y-101346000D03*
X152840000Y-103886000D03*
X152840000Y-106426000D03*
X152840000Y-108966000D03*
X152840000Y-111506000D03*
X152840000Y-114046000D03*
X152840000Y-116586000D03*
X152840000Y-119126000D03*
X152840000Y-121666000D03*
X152840000Y-124206000D03*
X152840000Y-126746000D03*
X152840000Y-129286000D03*
D16*
X171890000Y-143256000D03*
X171890000Y-97536000D03*
X154110000Y-97536000D03*
X154110000Y-143256000D03*
%TD*%
D13*
%TO.C,J1*%
X145000000Y-118364000D03*
D14*
X142460000Y-118364000D03*
X145000000Y-115824000D03*
X142460000Y-115824000D03*
X145000000Y-113284000D03*
X142460000Y-113284000D03*
X145000000Y-110744000D03*
X142460000Y-110744000D03*
X145000000Y-108204000D03*
X142460000Y-108204000D03*
X145000000Y-105664000D03*
X142460000Y-105664000D03*
%TD*%
D13*
%TO.C,J5*%
X145288000Y-143769000D03*
D14*
X145288000Y-141229000D03*
X145288000Y-138689000D03*
X145288000Y-136149000D03*
X145288000Y-133609000D03*
X145288000Y-131069000D03*
X145288000Y-128529000D03*
%TD*%
D15*
%TO.C,U3*%
X217932000Y-102362000D03*
X217932000Y-104902000D03*
X217932000Y-107442000D03*
X217932000Y-109982000D03*
X217932000Y-112522000D03*
X215392000Y-112522000D03*
X215392000Y-109982000D03*
X215392000Y-107442000D03*
X215392000Y-104902000D03*
X215392000Y-102362000D03*
X189992000Y-71882000D03*
X192532000Y-71882000D03*
X195072000Y-71882000D03*
X197612000Y-71882000D03*
X200152000Y-71882000D03*
X202692000Y-71882000D03*
X205232000Y-71882000D03*
X207772000Y-71882000D03*
X210312000Y-71882000D03*
X212852000Y-71882000D03*
X212852000Y-74422000D03*
X210312000Y-74422000D03*
X207772000Y-74422000D03*
X205232000Y-74422000D03*
X202692000Y-74422000D03*
X200152000Y-74422000D03*
X197612000Y-74422000D03*
X195072000Y-74422000D03*
X192532000Y-74422000D03*
X189992000Y-74422000D03*
X189992000Y-140462000D03*
X192532000Y-140462000D03*
X195072000Y-140462000D03*
X197612000Y-140462000D03*
X200152000Y-140462000D03*
X202692000Y-140462000D03*
X205232000Y-140462000D03*
X207772000Y-140462000D03*
X210312000Y-140462000D03*
X212852000Y-140462000D03*
X212852000Y-143002000D03*
X210312000Y-143002000D03*
X207772000Y-143002000D03*
X205232000Y-143002000D03*
X202692000Y-143002000D03*
X200152000Y-143002000D03*
X197612000Y-143002000D03*
X195072000Y-143002000D03*
X192532000Y-143002000D03*
X189992000Y-143002000D03*
%TD*%
%TO.C,U1*%
X168021000Y-85344000D03*
X168021000Y-82804000D03*
X168021000Y-80264000D03*
X168021000Y-77724000D03*
X168021000Y-75184000D03*
X168021000Y-72644000D03*
X168021000Y-70104000D03*
X168021000Y-67564000D03*
%TD*%
D13*
%TO.C,J2*%
X183647000Y-115824000D03*
D14*
X181107000Y-115824000D03*
X183647000Y-113284000D03*
X181107000Y-113284000D03*
X183647000Y-110744000D03*
X181107000Y-110744000D03*
X183647000Y-108204000D03*
X181107000Y-108204000D03*
X183647000Y-105664000D03*
X181107000Y-105664000D03*
X183647000Y-103124000D03*
X181107000Y-103124000D03*
%TD*%
M02*
