%TF.GenerationSoftware,KiCad,Pcbnew,6.0.4-1.fc35*%
%TF.CreationDate,2022-04-09T22:38:21+01:00*%
%TF.ProjectId,DevBoard,44657642-6f61-4726-942e-6b696361645f,rev?*%
%TF.SameCoordinates,Original*%
%TF.FileFunction,Soldermask,Bot*%
%TF.FilePolarity,Negative*%
%FSLAX46Y46*%
G04 Gerber Fmt 4.6, Leading zero omitted, Abs format (unit mm)*
G04 Created by KiCad (PCBNEW 6.0.4-1.fc35) date 2022-04-09 22:38:21*
%MOMM*%
%LPD*%
G01*
G04 APERTURE LIST*
%ADD10R,1.700000X1.700000*%
%ADD11O,1.700000X1.700000*%
%ADD12C,1.524000*%
%ADD13C,3.810000*%
G04 APERTURE END LIST*
D10*
%TO.C,J3*%
X182885000Y-68072000D03*
D11*
X180345000Y-68072000D03*
%TD*%
D10*
%TO.C,J4*%
X181107000Y-143769000D03*
D11*
X181107000Y-141229000D03*
X181107000Y-138689000D03*
X181107000Y-136149000D03*
X181107000Y-133609000D03*
X181107000Y-131069000D03*
X181107000Y-128529000D03*
X181107000Y-125989000D03*
X181107000Y-123449000D03*
X181107000Y-120909000D03*
%TD*%
D12*
%TO.C,U2*%
X173160000Y-139446000D03*
X173160000Y-136906000D03*
X173160000Y-134366000D03*
X173160000Y-131826000D03*
X173160000Y-129286000D03*
X173160000Y-126746000D03*
X173160000Y-124206000D03*
X173160000Y-121666000D03*
X173160000Y-119126000D03*
X173160000Y-116586000D03*
X173160000Y-114046000D03*
X173160000Y-111506000D03*
X173160000Y-108966000D03*
X173160000Y-106426000D03*
X173160000Y-103886000D03*
X173160000Y-101346000D03*
X152840000Y-101346000D03*
X152840000Y-103886000D03*
X152840000Y-106426000D03*
X152840000Y-108966000D03*
X152840000Y-111506000D03*
X152840000Y-114046000D03*
X152840000Y-116586000D03*
X152840000Y-119126000D03*
X152840000Y-121666000D03*
X152840000Y-124206000D03*
X152840000Y-126746000D03*
X152840000Y-129286000D03*
D13*
X171890000Y-143256000D03*
X171890000Y-97536000D03*
X154110000Y-97536000D03*
X154110000Y-143256000D03*
%TD*%
D10*
%TO.C,J1*%
X145000000Y-118364000D03*
D11*
X142460000Y-118364000D03*
X145000000Y-115824000D03*
X142460000Y-115824000D03*
X145000000Y-113284000D03*
X142460000Y-113284000D03*
X145000000Y-110744000D03*
X142460000Y-110744000D03*
X145000000Y-108204000D03*
X142460000Y-108204000D03*
X145000000Y-105664000D03*
X142460000Y-105664000D03*
%TD*%
D10*
%TO.C,J5*%
X145288000Y-143769000D03*
D11*
X145288000Y-141229000D03*
X145288000Y-138689000D03*
X145288000Y-136149000D03*
X145288000Y-133609000D03*
X145288000Y-131069000D03*
X145288000Y-128529000D03*
%TD*%
D12*
%TO.C,U3*%
X217932000Y-102362000D03*
X217932000Y-104902000D03*
X217932000Y-107442000D03*
X217932000Y-109982000D03*
X217932000Y-112522000D03*
X215392000Y-112522000D03*
X215392000Y-109982000D03*
X215392000Y-107442000D03*
X215392000Y-104902000D03*
X215392000Y-102362000D03*
X189992000Y-71882000D03*
X192532000Y-71882000D03*
X195072000Y-71882000D03*
X197612000Y-71882000D03*
X200152000Y-71882000D03*
X202692000Y-71882000D03*
X205232000Y-71882000D03*
X207772000Y-71882000D03*
X210312000Y-71882000D03*
X212852000Y-71882000D03*
X212852000Y-74422000D03*
X210312000Y-74422000D03*
X207772000Y-74422000D03*
X205232000Y-74422000D03*
X202692000Y-74422000D03*
X200152000Y-74422000D03*
X197612000Y-74422000D03*
X195072000Y-74422000D03*
X192532000Y-74422000D03*
X189992000Y-74422000D03*
X189992000Y-140462000D03*
X192532000Y-140462000D03*
X195072000Y-140462000D03*
X197612000Y-140462000D03*
X200152000Y-140462000D03*
X202692000Y-140462000D03*
X205232000Y-140462000D03*
X207772000Y-140462000D03*
X210312000Y-140462000D03*
X212852000Y-140462000D03*
X212852000Y-143002000D03*
X210312000Y-143002000D03*
X207772000Y-143002000D03*
X205232000Y-143002000D03*
X202692000Y-143002000D03*
X200152000Y-143002000D03*
X197612000Y-143002000D03*
X195072000Y-143002000D03*
X192532000Y-143002000D03*
X189992000Y-143002000D03*
%TD*%
%TO.C,U1*%
X168021000Y-85344000D03*
X168021000Y-82804000D03*
X168021000Y-80264000D03*
X168021000Y-77724000D03*
X168021000Y-75184000D03*
X168021000Y-72644000D03*
X168021000Y-70104000D03*
X168021000Y-67564000D03*
%TD*%
D10*
%TO.C,J2*%
X183647000Y-115824000D03*
D11*
X181107000Y-115824000D03*
X183647000Y-113284000D03*
X181107000Y-113284000D03*
X183647000Y-110744000D03*
X181107000Y-110744000D03*
X183647000Y-108204000D03*
X181107000Y-108204000D03*
X183647000Y-105664000D03*
X181107000Y-105664000D03*
X183647000Y-103124000D03*
X181107000Y-103124000D03*
%TD*%
M02*
