%FSLAX45Y45*%
G04 Gerber Fmt 4.5, Leading zero omitted, Abs format (unit mm)*
G04 Created by KiCad (PCBNEW 6.0.4-1.fc35) date 2022-04-09 22:13:42*
%MOMM*%
%LPD*%
G01*
G04 APERTURE LIST*
%TA.AperFunction,Profile*%
%ADD10C,0.100000*%
%TD*%
%ADD11C,0.200000*%
%ADD12C,0.040000*%
%ADD13C,0.076200*%
%ADD14C,0.100000*%
%ADD15C,0.101600*%
%ADD16C,0.254000*%
G04 APERTURE END LIST*
D10*
X13690600Y-6146800D02*
X23039600Y-6146800D01*
X23039600Y-6146800D02*
X23039600Y-15200000D01*
X23039600Y-15200000D02*
X13690600Y-15200000D01*
X13690600Y-15200000D02*
X13690600Y-6146800D01*
D11*
D12*
X16261400Y-9251000D02*
X16301400Y-9291000D01*
X16301400Y-9251000D02*
X16261400Y-9291000D01*
X18344200Y-8971600D02*
X18384200Y-9011600D01*
X18384200Y-8971600D02*
X18344200Y-9011600D01*
X18471200Y-7320600D02*
X18511200Y-7360600D01*
X18511200Y-7320600D02*
X18471200Y-7360600D01*
X18471200Y-8692200D02*
X18511200Y-8732200D01*
X18511200Y-8692200D02*
X18471200Y-8732200D01*
X18598200Y-8184200D02*
X18638200Y-8224200D01*
X18638200Y-8184200D02*
X18598200Y-8224200D01*
X18776000Y-7701600D02*
X18816000Y-7741600D01*
X18816000Y-7701600D02*
X18776000Y-7741600D01*
D13*
X16840200Y-6756400D02*
G75*
G03*
X16840200Y-6756400I-38100J0D01*
G01*
X16840200Y-7010400D02*
G75*
G03*
X16840200Y-7010400I-38100J0D01*
G01*
X16840200Y-7264400D02*
G75*
G03*
X16840200Y-7264400I-38100J0D01*
G01*
X16840200Y-7518400D02*
G75*
G03*
X16840200Y-7518400I-38100J0D01*
G01*
X16840200Y-7772400D02*
G75*
G03*
X16840200Y-7772400I-38100J0D01*
G01*
X16840200Y-8026400D02*
G75*
G03*
X16840200Y-8026400I-38100J0D01*
G01*
X16840200Y-8280400D02*
G75*
G03*
X16840200Y-8280400I-38100J0D01*
G01*
X16840200Y-8534400D02*
G75*
G03*
X16840200Y-8534400I-38100J0D01*
G01*
X19037300Y-7188200D02*
G75*
G03*
X19037300Y-7188200I-38100J0D01*
G01*
X19037300Y-7442200D02*
G75*
G03*
X19037300Y-7442200I-38100J0D01*
G01*
X19037300Y-14046200D02*
G75*
G03*
X19037300Y-14046200I-38100J0D01*
G01*
X19037300Y-14300200D02*
G75*
G03*
X19037300Y-14300200I-38100J0D01*
G01*
X19291300Y-7188200D02*
G75*
G03*
X19291300Y-7188200I-38100J0D01*
G01*
X19291300Y-7442200D02*
G75*
G03*
X19291300Y-7442200I-38100J0D01*
G01*
X19291300Y-14046200D02*
G75*
G03*
X19291300Y-14046200I-38100J0D01*
G01*
X19291300Y-14300200D02*
G75*
G03*
X19291300Y-14300200I-38100J0D01*
G01*
X19545300Y-7188200D02*
G75*
G03*
X19545300Y-7188200I-38100J0D01*
G01*
X19545300Y-7442200D02*
G75*
G03*
X19545300Y-7442200I-38100J0D01*
G01*
X19545300Y-14046200D02*
G75*
G03*
X19545300Y-14046200I-38100J0D01*
G01*
X19545300Y-14300200D02*
G75*
G03*
X19545300Y-14300200I-38100J0D01*
G01*
X19799300Y-7188200D02*
G75*
G03*
X19799300Y-7188200I-38100J0D01*
G01*
X19799300Y-7442200D02*
G75*
G03*
X19799300Y-7442200I-38100J0D01*
G01*
X19799300Y-14046200D02*
G75*
G03*
X19799300Y-14046200I-38100J0D01*
G01*
X19799300Y-14300200D02*
G75*
G03*
X19799300Y-14300200I-38100J0D01*
G01*
X20053300Y-7188200D02*
G75*
G03*
X20053300Y-7188200I-38100J0D01*
G01*
X20053300Y-7442200D02*
G75*
G03*
X20053300Y-7442200I-38100J0D01*
G01*
X20053300Y-14046200D02*
G75*
G03*
X20053300Y-14046200I-38100J0D01*
G01*
X20053300Y-14300200D02*
G75*
G03*
X20053300Y-14300200I-38100J0D01*
G01*
X20307300Y-7188200D02*
G75*
G03*
X20307300Y-7188200I-38100J0D01*
G01*
X20307300Y-7442200D02*
G75*
G03*
X20307300Y-7442200I-38100J0D01*
G01*
X20307300Y-14046200D02*
G75*
G03*
X20307300Y-14046200I-38100J0D01*
G01*
X20307300Y-14300200D02*
G75*
G03*
X20307300Y-14300200I-38100J0D01*
G01*
X20561300Y-7188200D02*
G75*
G03*
X20561300Y-7188200I-38100J0D01*
G01*
X20561300Y-7442200D02*
G75*
G03*
X20561300Y-7442200I-38100J0D01*
G01*
X20561300Y-14046200D02*
G75*
G03*
X20561300Y-14046200I-38100J0D01*
G01*
X20561300Y-14300200D02*
G75*
G03*
X20561300Y-14300200I-38100J0D01*
G01*
X20815300Y-7188200D02*
G75*
G03*
X20815300Y-7188200I-38100J0D01*
G01*
X20815300Y-7442200D02*
G75*
G03*
X20815300Y-7442200I-38100J0D01*
G01*
X20815300Y-14046200D02*
G75*
G03*
X20815300Y-14046200I-38100J0D01*
G01*
X20815300Y-14300200D02*
G75*
G03*
X20815300Y-14300200I-38100J0D01*
G01*
X21069300Y-7188200D02*
G75*
G03*
X21069300Y-7188200I-38100J0D01*
G01*
X21069300Y-7442200D02*
G75*
G03*
X21069300Y-7442200I-38100J0D01*
G01*
X21069300Y-14046200D02*
G75*
G03*
X21069300Y-14046200I-38100J0D01*
G01*
X21069300Y-14300200D02*
G75*
G03*
X21069300Y-14300200I-38100J0D01*
G01*
X21323300Y-7188200D02*
G75*
G03*
X21323300Y-7188200I-38100J0D01*
G01*
X21323300Y-7442200D02*
G75*
G03*
X21323300Y-7442200I-38100J0D01*
G01*
X21323300Y-14046200D02*
G75*
G03*
X21323300Y-14046200I-38100J0D01*
G01*
X21323300Y-14300200D02*
G75*
G03*
X21323300Y-14300200I-38100J0D01*
G01*
X21577300Y-10236200D02*
G75*
G03*
X21577300Y-10236200I-38100J0D01*
G01*
X21577300Y-10490200D02*
G75*
G03*
X21577300Y-10490200I-38100J0D01*
G01*
X21577300Y-10744200D02*
G75*
G03*
X21577300Y-10744200I-38100J0D01*
G01*
X21577300Y-10998200D02*
G75*
G03*
X21577300Y-10998200I-38100J0D01*
G01*
X21577300Y-11252200D02*
G75*
G03*
X21577300Y-11252200I-38100J0D01*
G01*
X21831300Y-10236200D02*
G75*
G03*
X21831300Y-10236200I-38100J0D01*
G01*
X21831300Y-10490200D02*
G75*
G03*
X21831300Y-10490200I-38100J0D01*
G01*
X21831300Y-10744200D02*
G75*
G03*
X21831300Y-10744200I-38100J0D01*
G01*
X21831300Y-10998200D02*
G75*
G03*
X21831300Y-10998200I-38100J0D01*
G01*
X21831300Y-11252200D02*
G75*
G03*
X21831300Y-11252200I-38100J0D01*
G01*
D14*
X14246000Y-10516400D02*
X14246000Y-10616400D01*
X14196000Y-10566400D02*
X14296000Y-10566400D01*
X14246000Y-10770400D02*
X14246000Y-10870400D01*
X14196000Y-10820400D02*
X14296000Y-10820400D01*
X14246000Y-11024400D02*
X14246000Y-11124400D01*
X14196000Y-11074400D02*
X14296000Y-11074400D01*
X14246000Y-11278400D02*
X14246000Y-11378400D01*
X14196000Y-11328400D02*
X14296000Y-11328400D01*
X14246000Y-11532400D02*
X14246000Y-11632400D01*
X14196000Y-11582400D02*
X14296000Y-11582400D01*
X14246000Y-11786400D02*
X14246000Y-11886400D01*
X14196000Y-11836400D02*
X14296000Y-11836400D01*
X14500000Y-10516400D02*
X14500000Y-10616400D01*
X14450000Y-10566400D02*
X14550000Y-10566400D01*
X14500000Y-10770400D02*
X14500000Y-10870400D01*
X14450000Y-10820400D02*
X14550000Y-10820400D01*
X14500000Y-11024400D02*
X14500000Y-11124400D01*
X14450000Y-11074400D02*
X14550000Y-11074400D01*
X14500000Y-11278400D02*
X14500000Y-11378400D01*
X14450000Y-11328400D02*
X14550000Y-11328400D01*
X14500000Y-11532400D02*
X14500000Y-11632400D01*
X14450000Y-11582400D02*
X14550000Y-11582400D01*
X14500000Y-11786400D02*
X14500000Y-11886400D01*
X14450000Y-11836400D02*
X14550000Y-11836400D01*
X14528800Y-12802900D02*
X14528800Y-12902900D01*
X14478800Y-12852900D02*
X14578800Y-12852900D01*
X14528800Y-13056900D02*
X14528800Y-13156900D01*
X14478800Y-13106900D02*
X14578800Y-13106900D01*
X14528800Y-13310900D02*
X14528800Y-13410900D01*
X14478800Y-13360900D02*
X14578800Y-13360900D01*
X14528800Y-13564900D02*
X14528800Y-13664900D01*
X14478800Y-13614900D02*
X14578800Y-13614900D01*
X14528800Y-13818900D02*
X14528800Y-13918900D01*
X14478800Y-13868900D02*
X14578800Y-13868900D01*
X14528800Y-14072900D02*
X14528800Y-14172900D01*
X14478800Y-14122900D02*
X14578800Y-14122900D01*
X14528800Y-14326900D02*
X14528800Y-14426900D01*
X14478800Y-14376900D02*
X14578800Y-14376900D01*
X18034500Y-6757200D02*
X18034500Y-6857200D01*
X17984500Y-6807200D02*
X18084500Y-6807200D01*
X18110700Y-10262400D02*
X18110700Y-10362400D01*
X18060700Y-10312400D02*
X18160700Y-10312400D01*
X18110700Y-10516400D02*
X18110700Y-10616400D01*
X18060700Y-10566400D02*
X18160700Y-10566400D01*
X18110700Y-10770400D02*
X18110700Y-10870400D01*
X18060700Y-10820400D02*
X18160700Y-10820400D01*
X18110700Y-11024400D02*
X18110700Y-11124400D01*
X18060700Y-11074400D02*
X18160700Y-11074400D01*
X18110700Y-11278400D02*
X18110700Y-11378400D01*
X18060700Y-11328400D02*
X18160700Y-11328400D01*
X18110700Y-11532400D02*
X18110700Y-11632400D01*
X18060700Y-11582400D02*
X18160700Y-11582400D01*
X18110700Y-12040900D02*
X18110700Y-12140900D01*
X18060700Y-12090900D02*
X18160700Y-12090900D01*
X18110700Y-12294900D02*
X18110700Y-12394900D01*
X18060700Y-12344900D02*
X18160700Y-12344900D01*
X18110700Y-12548900D02*
X18110700Y-12648900D01*
X18060700Y-12598900D02*
X18160700Y-12598900D01*
X18110700Y-12802900D02*
X18110700Y-12902900D01*
X18060700Y-12852900D02*
X18160700Y-12852900D01*
X18110700Y-13056900D02*
X18110700Y-13156900D01*
X18060700Y-13106900D02*
X18160700Y-13106900D01*
X18110700Y-13310900D02*
X18110700Y-13410900D01*
X18060700Y-13360900D02*
X18160700Y-13360900D01*
X18110700Y-13564900D02*
X18110700Y-13664900D01*
X18060700Y-13614900D02*
X18160700Y-13614900D01*
X18110700Y-13818900D02*
X18110700Y-13918900D01*
X18060700Y-13868900D02*
X18160700Y-13868900D01*
X18110700Y-14072900D02*
X18110700Y-14172900D01*
X18060700Y-14122900D02*
X18160700Y-14122900D01*
X18110700Y-14326900D02*
X18110700Y-14426900D01*
X18060700Y-14376900D02*
X18160700Y-14376900D01*
X18288500Y-6757200D02*
X18288500Y-6857200D01*
X18238500Y-6807200D02*
X18338500Y-6807200D01*
X18364700Y-10262400D02*
X18364700Y-10362400D01*
X18314700Y-10312400D02*
X18414700Y-10312400D01*
X18364700Y-10516400D02*
X18364700Y-10616400D01*
X18314700Y-10566400D02*
X18414700Y-10566400D01*
X18364700Y-10770400D02*
X18364700Y-10870400D01*
X18314700Y-10820400D02*
X18414700Y-10820400D01*
X18364700Y-11024400D02*
X18364700Y-11124400D01*
X18314700Y-11074400D02*
X18414700Y-11074400D01*
X18364700Y-11278400D02*
X18364700Y-11378400D01*
X18314700Y-11328400D02*
X18414700Y-11328400D01*
X18364700Y-11532400D02*
X18364700Y-11632400D01*
X18314700Y-11582400D02*
X18414700Y-11582400D01*
D15*
X15319921Y-10170521D02*
X15319921Y-10098679D01*
X15248079Y-10098679D01*
X15248079Y-10170521D01*
X15319921Y-10170521D01*
X15319921Y-10424521D02*
X15319921Y-10352679D01*
X15248079Y-10352679D01*
X15248079Y-10424521D01*
X15319921Y-10424521D01*
X15319921Y-10678521D02*
X15319921Y-10606679D01*
X15248079Y-10606679D01*
X15248079Y-10678521D01*
X15319921Y-10678521D01*
X15319921Y-10932521D02*
X15319921Y-10860679D01*
X15248079Y-10860679D01*
X15248079Y-10932521D01*
X15319921Y-10932521D01*
X15319921Y-11186521D02*
X15319921Y-11114679D01*
X15248079Y-11114679D01*
X15248079Y-11186521D01*
X15319921Y-11186521D01*
X15319921Y-11440521D02*
X15319921Y-11368679D01*
X15248079Y-11368679D01*
X15248079Y-11440521D01*
X15319921Y-11440521D01*
X15319921Y-11694521D02*
X15319921Y-11622679D01*
X15248079Y-11622679D01*
X15248079Y-11694521D01*
X15319921Y-11694521D01*
X15319921Y-11948521D02*
X15319921Y-11876679D01*
X15248079Y-11876679D01*
X15248079Y-11948521D01*
X15319921Y-11948521D01*
X15319921Y-12202521D02*
X15319921Y-12130679D01*
X15248079Y-12130679D01*
X15248079Y-12202521D01*
X15319921Y-12202521D01*
X15319921Y-12456521D02*
X15319921Y-12384679D01*
X15248079Y-12384679D01*
X15248079Y-12456521D01*
X15319921Y-12456521D01*
X15319921Y-12710521D02*
X15319921Y-12638679D01*
X15248079Y-12638679D01*
X15248079Y-12710521D01*
X15319921Y-12710521D01*
X15319921Y-12964521D02*
X15319921Y-12892679D01*
X15248079Y-12892679D01*
X15248079Y-12964521D01*
X15319921Y-12964521D01*
X17351921Y-10170521D02*
X17351921Y-10098679D01*
X17280079Y-10098679D01*
X17280079Y-10170521D01*
X17351921Y-10170521D01*
X17351921Y-10424521D02*
X17351921Y-10352679D01*
X17280079Y-10352679D01*
X17280079Y-10424521D01*
X17351921Y-10424521D01*
X17351921Y-10678521D02*
X17351921Y-10606679D01*
X17280079Y-10606679D01*
X17280079Y-10678521D01*
X17351921Y-10678521D01*
X17351921Y-10932521D02*
X17351921Y-10860679D01*
X17280079Y-10860679D01*
X17280079Y-10932521D01*
X17351921Y-10932521D01*
X17351921Y-11186521D02*
X17351921Y-11114679D01*
X17280079Y-11114679D01*
X17280079Y-11186521D01*
X17351921Y-11186521D01*
X17351921Y-11440521D02*
X17351921Y-11368679D01*
X17280079Y-11368679D01*
X17280079Y-11440521D01*
X17351921Y-11440521D01*
X17351921Y-11694521D02*
X17351921Y-11622679D01*
X17280079Y-11622679D01*
X17280079Y-11694521D01*
X17351921Y-11694521D01*
X17351921Y-11948521D02*
X17351921Y-11876679D01*
X17280079Y-11876679D01*
X17280079Y-11948521D01*
X17351921Y-11948521D01*
X17351921Y-12202521D02*
X17351921Y-12130679D01*
X17280079Y-12130679D01*
X17280079Y-12202521D01*
X17351921Y-12202521D01*
X17351921Y-12456521D02*
X17351921Y-12384679D01*
X17280079Y-12384679D01*
X17280079Y-12456521D01*
X17351921Y-12456521D01*
X17351921Y-12710521D02*
X17351921Y-12638679D01*
X17280079Y-12638679D01*
X17280079Y-12710521D01*
X17351921Y-12710521D01*
X17351921Y-12964521D02*
X17351921Y-12892679D01*
X17280079Y-12892679D01*
X17280079Y-12964521D01*
X17351921Y-12964521D01*
X17351921Y-13218521D02*
X17351921Y-13146679D01*
X17280079Y-13146679D01*
X17280079Y-13218521D01*
X17351921Y-13218521D01*
X17351921Y-13472521D02*
X17351921Y-13400679D01*
X17280079Y-13400679D01*
X17280079Y-13472521D01*
X17351921Y-13472521D01*
X17351921Y-13726521D02*
X17351921Y-13654679D01*
X17280079Y-13654679D01*
X17280079Y-13726521D01*
X17351921Y-13726521D01*
X17351921Y-13980521D02*
X17351921Y-13908679D01*
X17280079Y-13908679D01*
X17280079Y-13980521D01*
X17351921Y-13980521D01*
D16*
X15411000Y-9880600D02*
X15538000Y-9753600D01*
X15411000Y-9626600D01*
X15284000Y-9753600D01*
X15411000Y-9880600D01*
X15411000Y-14452600D02*
X15538000Y-14325600D01*
X15411000Y-14198600D01*
X15284000Y-14325600D01*
X15411000Y-14452600D01*
X17189000Y-9880600D02*
X17316000Y-9753600D01*
X17189000Y-9626600D01*
X17062000Y-9753600D01*
X17189000Y-9880600D01*
X17189000Y-14452600D02*
X17316000Y-14325600D01*
X17189000Y-14198600D01*
X17062000Y-14325600D01*
X17189000Y-14452600D01*
D11*
X13943219Y-15515476D02*
X13943219Y-15315476D01*
X13990838Y-15315476D01*
X14019409Y-15325000D01*
X14038457Y-15344048D01*
X14047981Y-15363095D01*
X14057505Y-15401190D01*
X14057505Y-15429762D01*
X14047981Y-15467857D01*
X14038457Y-15486905D01*
X14019409Y-15505952D01*
X13990838Y-15515476D01*
X13943219Y-15515476D01*
X14143219Y-15515476D02*
X14143219Y-15382143D01*
X14143219Y-15420238D02*
X14152743Y-15401190D01*
X14162267Y-15391667D01*
X14181314Y-15382143D01*
X14200362Y-15382143D01*
X14267028Y-15515476D02*
X14267028Y-15382143D01*
X14267028Y-15315476D02*
X14257505Y-15325000D01*
X14267028Y-15334524D01*
X14276552Y-15325000D01*
X14267028Y-15315476D01*
X14267028Y-15334524D01*
X14390838Y-15515476D02*
X14371790Y-15505952D01*
X14362267Y-15486905D01*
X14362267Y-15315476D01*
X14495600Y-15515476D02*
X14476552Y-15505952D01*
X14467028Y-15486905D01*
X14467028Y-15315476D01*
X14724171Y-15515476D02*
X14724171Y-15315476D01*
X14790838Y-15458333D01*
X14857505Y-15315476D01*
X14857505Y-15515476D01*
X15038457Y-15515476D02*
X15038457Y-15410714D01*
X15028933Y-15391667D01*
X15009886Y-15382143D01*
X14971790Y-15382143D01*
X14952743Y-15391667D01*
X15038457Y-15505952D02*
X15019409Y-15515476D01*
X14971790Y-15515476D01*
X14952743Y-15505952D01*
X14943219Y-15486905D01*
X14943219Y-15467857D01*
X14952743Y-15448809D01*
X14971790Y-15439286D01*
X15019409Y-15439286D01*
X15038457Y-15429762D01*
X15133695Y-15382143D02*
X15133695Y-15582143D01*
X15133695Y-15391667D02*
X15152743Y-15382143D01*
X15190838Y-15382143D01*
X15209886Y-15391667D01*
X15219409Y-15401190D01*
X15228933Y-15420238D01*
X15228933Y-15477381D01*
X15219409Y-15496428D01*
X15209886Y-15505952D01*
X15190838Y-15515476D01*
X15152743Y-15515476D01*
X15133695Y-15505952D01*
X15314648Y-15496428D02*
X15324171Y-15505952D01*
X15314648Y-15515476D01*
X15305124Y-15505952D01*
X15314648Y-15496428D01*
X15314648Y-15515476D01*
X15314648Y-15391667D02*
X15324171Y-15401190D01*
X15314648Y-15410714D01*
X15305124Y-15401190D01*
X15314648Y-15391667D01*
X15314648Y-15410714D01*
D12*
X13645600Y-15825000D02*
X13685600Y-15865000D01*
X13685600Y-15825000D02*
X13645600Y-15865000D01*
D11*
X13981314Y-15735476D02*
X14000362Y-15735476D01*
X14019409Y-15745000D01*
X14028933Y-15754524D01*
X14038457Y-15773571D01*
X14047981Y-15811667D01*
X14047981Y-15859286D01*
X14038457Y-15897381D01*
X14028933Y-15916428D01*
X14019409Y-15925952D01*
X14000362Y-15935476D01*
X13981314Y-15935476D01*
X13962267Y-15925952D01*
X13952743Y-15916428D01*
X13943219Y-15897381D01*
X13933695Y-15859286D01*
X13933695Y-15811667D01*
X13943219Y-15773571D01*
X13952743Y-15754524D01*
X13962267Y-15745000D01*
X13981314Y-15735476D01*
X14133695Y-15916428D02*
X14143219Y-15925952D01*
X14133695Y-15935476D01*
X14124171Y-15925952D01*
X14133695Y-15916428D01*
X14133695Y-15935476D01*
X14314648Y-15802143D02*
X14314648Y-15935476D01*
X14267028Y-15725952D02*
X14219409Y-15868809D01*
X14343219Y-15868809D01*
X14457505Y-15735476D02*
X14476552Y-15735476D01*
X14495600Y-15745000D01*
X14505124Y-15754524D01*
X14514648Y-15773571D01*
X14524171Y-15811667D01*
X14524171Y-15859286D01*
X14514648Y-15897381D01*
X14505124Y-15916428D01*
X14495600Y-15925952D01*
X14476552Y-15935476D01*
X14457505Y-15935476D01*
X14438457Y-15925952D01*
X14428933Y-15916428D01*
X14419409Y-15897381D01*
X14409886Y-15859286D01*
X14409886Y-15811667D01*
X14419409Y-15773571D01*
X14428933Y-15754524D01*
X14438457Y-15745000D01*
X14457505Y-15735476D01*
X14647981Y-15735476D02*
X14667028Y-15735476D01*
X14686076Y-15745000D01*
X14695600Y-15754524D01*
X14705124Y-15773571D01*
X14714648Y-15811667D01*
X14714648Y-15859286D01*
X14705124Y-15897381D01*
X14695600Y-15916428D01*
X14686076Y-15925952D01*
X14667028Y-15935476D01*
X14647981Y-15935476D01*
X14628933Y-15925952D01*
X14619409Y-15916428D01*
X14609886Y-15897381D01*
X14600362Y-15859286D01*
X14600362Y-15811667D01*
X14609886Y-15773571D01*
X14619409Y-15754524D01*
X14628933Y-15745000D01*
X14647981Y-15735476D01*
X14800362Y-15935476D02*
X14800362Y-15802143D01*
X14800362Y-15821190D02*
X14809886Y-15811667D01*
X14828933Y-15802143D01*
X14857505Y-15802143D01*
X14876552Y-15811667D01*
X14886076Y-15830714D01*
X14886076Y-15935476D01*
X14886076Y-15830714D02*
X14895600Y-15811667D01*
X14914648Y-15802143D01*
X14943219Y-15802143D01*
X14962267Y-15811667D01*
X14971790Y-15830714D01*
X14971790Y-15935476D01*
X15067028Y-15935476D02*
X15067028Y-15802143D01*
X15067028Y-15821190D02*
X15076552Y-15811667D01*
X15095600Y-15802143D01*
X15124171Y-15802143D01*
X15143219Y-15811667D01*
X15152743Y-15830714D01*
X15152743Y-15935476D01*
X15152743Y-15830714D02*
X15162267Y-15811667D01*
X15181314Y-15802143D01*
X15209886Y-15802143D01*
X15228933Y-15811667D01*
X15238457Y-15830714D01*
X15238457Y-15935476D01*
X15628933Y-15725952D02*
X15457505Y-15983095D01*
X15886076Y-15735476D02*
X15905124Y-15735476D01*
X15924171Y-15745000D01*
X15933695Y-15754524D01*
X15943219Y-15773571D01*
X15952743Y-15811667D01*
X15952743Y-15859286D01*
X15943219Y-15897381D01*
X15933695Y-15916428D01*
X15924171Y-15925952D01*
X15905124Y-15935476D01*
X15886076Y-15935476D01*
X15867028Y-15925952D01*
X15857505Y-15916428D01*
X15847981Y-15897381D01*
X15838457Y-15859286D01*
X15838457Y-15811667D01*
X15847981Y-15773571D01*
X15857505Y-15754524D01*
X15867028Y-15745000D01*
X15886076Y-15735476D01*
X16038457Y-15916428D02*
X16047981Y-15925952D01*
X16038457Y-15935476D01*
X16028933Y-15925952D01*
X16038457Y-15916428D01*
X16038457Y-15935476D01*
X16171790Y-15735476D02*
X16190838Y-15735476D01*
X16209886Y-15745000D01*
X16219409Y-15754524D01*
X16228933Y-15773571D01*
X16238457Y-15811667D01*
X16238457Y-15859286D01*
X16228933Y-15897381D01*
X16219409Y-15916428D01*
X16209886Y-15925952D01*
X16190838Y-15935476D01*
X16171790Y-15935476D01*
X16152743Y-15925952D01*
X16143219Y-15916428D01*
X16133695Y-15897381D01*
X16124171Y-15859286D01*
X16124171Y-15811667D01*
X16133695Y-15773571D01*
X16143219Y-15754524D01*
X16152743Y-15745000D01*
X16171790Y-15735476D01*
X16428933Y-15935476D02*
X16314648Y-15935476D01*
X16371790Y-15935476D02*
X16371790Y-15735476D01*
X16352743Y-15764048D01*
X16333695Y-15783095D01*
X16314648Y-15792619D01*
X16609886Y-15735476D02*
X16514648Y-15735476D01*
X16505124Y-15830714D01*
X16514648Y-15821190D01*
X16533695Y-15811667D01*
X16581314Y-15811667D01*
X16600362Y-15821190D01*
X16609886Y-15830714D01*
X16619409Y-15849762D01*
X16619409Y-15897381D01*
X16609886Y-15916428D01*
X16600362Y-15925952D01*
X16581314Y-15935476D01*
X16533695Y-15935476D01*
X16514648Y-15925952D01*
X16505124Y-15916428D01*
X16686076Y-15735476D02*
X16819410Y-15735476D01*
X16733695Y-15935476D01*
X16886076Y-15735476D02*
X16886076Y-15773571D01*
X16962267Y-15735476D02*
X16962267Y-15773571D01*
X17257505Y-16011667D02*
X17247981Y-16002143D01*
X17228933Y-15973571D01*
X17219410Y-15954524D01*
X17209886Y-15925952D01*
X17200362Y-15878333D01*
X17200362Y-15840238D01*
X17209886Y-15792619D01*
X17219410Y-15764048D01*
X17228933Y-15745000D01*
X17247981Y-15716428D01*
X17257505Y-15706905D01*
X17419410Y-15735476D02*
X17381314Y-15735476D01*
X17362267Y-15745000D01*
X17352743Y-15754524D01*
X17333695Y-15783095D01*
X17324171Y-15821190D01*
X17324171Y-15897381D01*
X17333695Y-15916428D01*
X17343219Y-15925952D01*
X17362267Y-15935476D01*
X17400362Y-15935476D01*
X17419410Y-15925952D01*
X17428933Y-15916428D01*
X17438457Y-15897381D01*
X17438457Y-15849762D01*
X17428933Y-15830714D01*
X17419410Y-15821190D01*
X17400362Y-15811667D01*
X17362267Y-15811667D01*
X17343219Y-15821190D01*
X17333695Y-15830714D01*
X17324171Y-15849762D01*
X17676552Y-15935476D02*
X17676552Y-15735476D01*
X17762267Y-15935476D02*
X17762267Y-15830714D01*
X17752743Y-15811667D01*
X17733695Y-15802143D01*
X17705124Y-15802143D01*
X17686076Y-15811667D01*
X17676552Y-15821190D01*
X17886076Y-15935476D02*
X17867029Y-15925952D01*
X17857505Y-15916428D01*
X17847981Y-15897381D01*
X17847981Y-15840238D01*
X17857505Y-15821190D01*
X17867029Y-15811667D01*
X17886076Y-15802143D01*
X17914648Y-15802143D01*
X17933695Y-15811667D01*
X17943219Y-15821190D01*
X17952743Y-15840238D01*
X17952743Y-15897381D01*
X17943219Y-15916428D01*
X17933695Y-15925952D01*
X17914648Y-15935476D01*
X17886076Y-15935476D01*
X18067029Y-15935476D02*
X18047981Y-15925952D01*
X18038457Y-15906905D01*
X18038457Y-15735476D01*
X18219410Y-15925952D02*
X18200362Y-15935476D01*
X18162267Y-15935476D01*
X18143219Y-15925952D01*
X18133695Y-15906905D01*
X18133695Y-15830714D01*
X18143219Y-15811667D01*
X18162267Y-15802143D01*
X18200362Y-15802143D01*
X18219410Y-15811667D01*
X18228933Y-15830714D01*
X18228933Y-15849762D01*
X18133695Y-15868809D01*
X18305124Y-15925952D02*
X18324171Y-15935476D01*
X18362267Y-15935476D01*
X18381314Y-15925952D01*
X18390838Y-15906905D01*
X18390838Y-15897381D01*
X18381314Y-15878333D01*
X18362267Y-15868809D01*
X18333695Y-15868809D01*
X18314648Y-15859286D01*
X18305124Y-15840238D01*
X18305124Y-15830714D01*
X18314648Y-15811667D01*
X18333695Y-15802143D01*
X18362267Y-15802143D01*
X18381314Y-15811667D01*
X18457505Y-16011667D02*
X18467029Y-16002143D01*
X18486076Y-15973571D01*
X18495600Y-15954524D01*
X18505124Y-15925952D01*
X18514648Y-15878333D01*
X18514648Y-15840238D01*
X18505124Y-15792619D01*
X18495600Y-15764048D01*
X18486076Y-15745000D01*
X18467029Y-15716428D01*
X18457505Y-15706905D01*
D13*
X13685600Y-16109000D02*
G75*
G03*
X13685600Y-16109000I-38100J0D01*
G01*
D11*
X13981314Y-15999476D02*
X14000362Y-15999476D01*
X14019409Y-16009000D01*
X14028933Y-16018524D01*
X14038457Y-16037571D01*
X14047981Y-16075667D01*
X14047981Y-16123286D01*
X14038457Y-16161381D01*
X14028933Y-16180428D01*
X14019409Y-16189952D01*
X14000362Y-16199476D01*
X13981314Y-16199476D01*
X13962267Y-16189952D01*
X13952743Y-16180428D01*
X13943219Y-16161381D01*
X13933695Y-16123286D01*
X13933695Y-16075667D01*
X13943219Y-16037571D01*
X13952743Y-16018524D01*
X13962267Y-16009000D01*
X13981314Y-15999476D01*
X14133695Y-16180428D02*
X14143219Y-16189952D01*
X14133695Y-16199476D01*
X14124171Y-16189952D01*
X14133695Y-16180428D01*
X14133695Y-16199476D01*
X14209886Y-15999476D02*
X14343219Y-15999476D01*
X14257505Y-16199476D01*
X14505124Y-15999476D02*
X14467028Y-15999476D01*
X14447981Y-16009000D01*
X14438457Y-16018524D01*
X14419409Y-16047095D01*
X14409886Y-16085190D01*
X14409886Y-16161381D01*
X14419409Y-16180428D01*
X14428933Y-16189952D01*
X14447981Y-16199476D01*
X14486076Y-16199476D01*
X14505124Y-16189952D01*
X14514648Y-16180428D01*
X14524171Y-16161381D01*
X14524171Y-16113762D01*
X14514648Y-16094714D01*
X14505124Y-16085190D01*
X14486076Y-16075667D01*
X14447981Y-16075667D01*
X14428933Y-16085190D01*
X14419409Y-16094714D01*
X14409886Y-16113762D01*
X14600362Y-16018524D02*
X14609886Y-16009000D01*
X14628933Y-15999476D01*
X14676552Y-15999476D01*
X14695600Y-16009000D01*
X14705124Y-16018524D01*
X14714648Y-16037571D01*
X14714648Y-16056619D01*
X14705124Y-16085190D01*
X14590838Y-16199476D01*
X14714648Y-16199476D01*
X14800362Y-16199476D02*
X14800362Y-16066143D01*
X14800362Y-16085190D02*
X14809886Y-16075667D01*
X14828933Y-16066143D01*
X14857505Y-16066143D01*
X14876552Y-16075667D01*
X14886076Y-16094714D01*
X14886076Y-16199476D01*
X14886076Y-16094714D02*
X14895600Y-16075667D01*
X14914648Y-16066143D01*
X14943219Y-16066143D01*
X14962267Y-16075667D01*
X14971790Y-16094714D01*
X14971790Y-16199476D01*
X15067028Y-16199476D02*
X15067028Y-16066143D01*
X15067028Y-16085190D02*
X15076552Y-16075667D01*
X15095600Y-16066143D01*
X15124171Y-16066143D01*
X15143219Y-16075667D01*
X15152743Y-16094714D01*
X15152743Y-16199476D01*
X15152743Y-16094714D02*
X15162267Y-16075667D01*
X15181314Y-16066143D01*
X15209886Y-16066143D01*
X15228933Y-16075667D01*
X15238457Y-16094714D01*
X15238457Y-16199476D01*
X15628933Y-15989952D02*
X15457505Y-16247095D01*
X15886076Y-15999476D02*
X15905124Y-15999476D01*
X15924171Y-16009000D01*
X15933695Y-16018524D01*
X15943219Y-16037571D01*
X15952743Y-16075667D01*
X15952743Y-16123286D01*
X15943219Y-16161381D01*
X15933695Y-16180428D01*
X15924171Y-16189952D01*
X15905124Y-16199476D01*
X15886076Y-16199476D01*
X15867028Y-16189952D01*
X15857505Y-16180428D01*
X15847981Y-16161381D01*
X15838457Y-16123286D01*
X15838457Y-16075667D01*
X15847981Y-16037571D01*
X15857505Y-16018524D01*
X15867028Y-16009000D01*
X15886076Y-15999476D01*
X16038457Y-16180428D02*
X16047981Y-16189952D01*
X16038457Y-16199476D01*
X16028933Y-16189952D01*
X16038457Y-16180428D01*
X16038457Y-16199476D01*
X16171790Y-15999476D02*
X16190838Y-15999476D01*
X16209886Y-16009000D01*
X16219409Y-16018524D01*
X16228933Y-16037571D01*
X16238457Y-16075667D01*
X16238457Y-16123286D01*
X16228933Y-16161381D01*
X16219409Y-16180428D01*
X16209886Y-16189952D01*
X16190838Y-16199476D01*
X16171790Y-16199476D01*
X16152743Y-16189952D01*
X16143219Y-16180428D01*
X16133695Y-16161381D01*
X16124171Y-16123286D01*
X16124171Y-16075667D01*
X16133695Y-16037571D01*
X16143219Y-16018524D01*
X16152743Y-16009000D01*
X16171790Y-15999476D01*
X16305124Y-15999476D02*
X16428933Y-15999476D01*
X16362267Y-16075667D01*
X16390838Y-16075667D01*
X16409886Y-16085190D01*
X16419409Y-16094714D01*
X16428933Y-16113762D01*
X16428933Y-16161381D01*
X16419409Y-16180428D01*
X16409886Y-16189952D01*
X16390838Y-16199476D01*
X16333695Y-16199476D01*
X16314648Y-16189952D01*
X16305124Y-16180428D01*
X16552743Y-15999476D02*
X16571790Y-15999476D01*
X16590838Y-16009000D01*
X16600362Y-16018524D01*
X16609886Y-16037571D01*
X16619409Y-16075667D01*
X16619409Y-16123286D01*
X16609886Y-16161381D01*
X16600362Y-16180428D01*
X16590838Y-16189952D01*
X16571790Y-16199476D01*
X16552743Y-16199476D01*
X16533695Y-16189952D01*
X16524171Y-16180428D01*
X16514648Y-16161381D01*
X16505124Y-16123286D01*
X16505124Y-16075667D01*
X16514648Y-16037571D01*
X16524171Y-16018524D01*
X16533695Y-16009000D01*
X16552743Y-15999476D01*
X16743219Y-15999476D02*
X16762267Y-15999476D01*
X16781314Y-16009000D01*
X16790838Y-16018524D01*
X16800362Y-16037571D01*
X16809886Y-16075667D01*
X16809886Y-16123286D01*
X16800362Y-16161381D01*
X16790838Y-16180428D01*
X16781314Y-16189952D01*
X16762267Y-16199476D01*
X16743219Y-16199476D01*
X16724171Y-16189952D01*
X16714648Y-16180428D01*
X16705124Y-16161381D01*
X16695600Y-16123286D01*
X16695600Y-16075667D01*
X16705124Y-16037571D01*
X16714648Y-16018524D01*
X16724171Y-16009000D01*
X16743219Y-15999476D01*
X16886076Y-15999476D02*
X16886076Y-16037571D01*
X16962267Y-15999476D02*
X16962267Y-16037571D01*
X17257505Y-16275667D02*
X17247981Y-16266143D01*
X17228933Y-16237571D01*
X17219410Y-16218524D01*
X17209886Y-16189952D01*
X17200362Y-16142333D01*
X17200362Y-16104238D01*
X17209886Y-16056619D01*
X17219410Y-16028048D01*
X17228933Y-16009000D01*
X17247981Y-15980428D01*
X17257505Y-15970905D01*
X17428933Y-15999476D02*
X17333695Y-15999476D01*
X17324171Y-16094714D01*
X17333695Y-16085190D01*
X17352743Y-16075667D01*
X17400362Y-16075667D01*
X17419410Y-16085190D01*
X17428933Y-16094714D01*
X17438457Y-16113762D01*
X17438457Y-16161381D01*
X17428933Y-16180428D01*
X17419410Y-16189952D01*
X17400362Y-16199476D01*
X17352743Y-16199476D01*
X17333695Y-16189952D01*
X17324171Y-16180428D01*
X17552743Y-16085190D02*
X17533695Y-16075667D01*
X17524171Y-16066143D01*
X17514648Y-16047095D01*
X17514648Y-16037571D01*
X17524171Y-16018524D01*
X17533695Y-16009000D01*
X17552743Y-15999476D01*
X17590838Y-15999476D01*
X17609886Y-16009000D01*
X17619410Y-16018524D01*
X17628933Y-16037571D01*
X17628933Y-16047095D01*
X17619410Y-16066143D01*
X17609886Y-16075667D01*
X17590838Y-16085190D01*
X17552743Y-16085190D01*
X17533695Y-16094714D01*
X17524171Y-16104238D01*
X17514648Y-16123286D01*
X17514648Y-16161381D01*
X17524171Y-16180428D01*
X17533695Y-16189952D01*
X17552743Y-16199476D01*
X17590838Y-16199476D01*
X17609886Y-16189952D01*
X17619410Y-16180428D01*
X17628933Y-16161381D01*
X17628933Y-16123286D01*
X17619410Y-16104238D01*
X17609886Y-16094714D01*
X17590838Y-16085190D01*
X17867029Y-16199476D02*
X17867029Y-15999476D01*
X17952743Y-16199476D02*
X17952743Y-16094714D01*
X17943219Y-16075667D01*
X17924171Y-16066143D01*
X17895600Y-16066143D01*
X17876552Y-16075667D01*
X17867029Y-16085190D01*
X18076552Y-16199476D02*
X18057505Y-16189952D01*
X18047981Y-16180428D01*
X18038457Y-16161381D01*
X18038457Y-16104238D01*
X18047981Y-16085190D01*
X18057505Y-16075667D01*
X18076552Y-16066143D01*
X18105124Y-16066143D01*
X18124171Y-16075667D01*
X18133695Y-16085190D01*
X18143219Y-16104238D01*
X18143219Y-16161381D01*
X18133695Y-16180428D01*
X18124171Y-16189952D01*
X18105124Y-16199476D01*
X18076552Y-16199476D01*
X18257505Y-16199476D02*
X18238457Y-16189952D01*
X18228933Y-16170905D01*
X18228933Y-15999476D01*
X18409886Y-16189952D02*
X18390838Y-16199476D01*
X18352743Y-16199476D01*
X18333695Y-16189952D01*
X18324171Y-16170905D01*
X18324171Y-16094714D01*
X18333695Y-16075667D01*
X18352743Y-16066143D01*
X18390838Y-16066143D01*
X18409886Y-16075667D01*
X18419410Y-16094714D01*
X18419410Y-16113762D01*
X18324171Y-16132809D01*
X18495600Y-16189952D02*
X18514648Y-16199476D01*
X18552743Y-16199476D01*
X18571790Y-16189952D01*
X18581314Y-16170905D01*
X18581314Y-16161381D01*
X18571790Y-16142333D01*
X18552743Y-16132809D01*
X18524171Y-16132809D01*
X18505124Y-16123286D01*
X18495600Y-16104238D01*
X18495600Y-16094714D01*
X18505124Y-16075667D01*
X18524171Y-16066143D01*
X18552743Y-16066143D01*
X18571790Y-16075667D01*
X18647981Y-16275667D02*
X18657505Y-16266143D01*
X18676552Y-16237571D01*
X18686076Y-16218524D01*
X18695600Y-16189952D01*
X18705124Y-16142333D01*
X18705124Y-16104238D01*
X18695600Y-16056619D01*
X18686076Y-16028048D01*
X18676552Y-16009000D01*
X18657505Y-15980428D01*
X18647981Y-15970905D01*
D14*
X13635600Y-16323000D02*
X13635600Y-16423000D01*
X13585600Y-16373000D02*
X13685600Y-16373000D01*
D11*
X14047981Y-16463476D02*
X13933695Y-16463476D01*
X13990838Y-16463476D02*
X13990838Y-16263476D01*
X13971790Y-16292048D01*
X13952743Y-16311095D01*
X13933695Y-16320619D01*
X14133695Y-16444428D02*
X14143219Y-16453952D01*
X14133695Y-16463476D01*
X14124171Y-16453952D01*
X14133695Y-16444428D01*
X14133695Y-16463476D01*
X14267028Y-16263476D02*
X14286076Y-16263476D01*
X14305124Y-16273000D01*
X14314648Y-16282524D01*
X14324171Y-16301571D01*
X14333695Y-16339667D01*
X14333695Y-16387286D01*
X14324171Y-16425381D01*
X14314648Y-16444428D01*
X14305124Y-16453952D01*
X14286076Y-16463476D01*
X14267028Y-16463476D01*
X14247981Y-16453952D01*
X14238457Y-16444428D01*
X14228933Y-16425381D01*
X14219409Y-16387286D01*
X14219409Y-16339667D01*
X14228933Y-16301571D01*
X14238457Y-16282524D01*
X14247981Y-16273000D01*
X14267028Y-16263476D01*
X14457505Y-16263476D02*
X14476552Y-16263476D01*
X14495600Y-16273000D01*
X14505124Y-16282524D01*
X14514648Y-16301571D01*
X14524171Y-16339667D01*
X14524171Y-16387286D01*
X14514648Y-16425381D01*
X14505124Y-16444428D01*
X14495600Y-16453952D01*
X14476552Y-16463476D01*
X14457505Y-16463476D01*
X14438457Y-16453952D01*
X14428933Y-16444428D01*
X14419409Y-16425381D01*
X14409886Y-16387286D01*
X14409886Y-16339667D01*
X14419409Y-16301571D01*
X14428933Y-16282524D01*
X14438457Y-16273000D01*
X14457505Y-16263476D01*
X14647981Y-16263476D02*
X14667028Y-16263476D01*
X14686076Y-16273000D01*
X14695600Y-16282524D01*
X14705124Y-16301571D01*
X14714648Y-16339667D01*
X14714648Y-16387286D01*
X14705124Y-16425381D01*
X14695600Y-16444428D01*
X14686076Y-16453952D01*
X14667028Y-16463476D01*
X14647981Y-16463476D01*
X14628933Y-16453952D01*
X14619409Y-16444428D01*
X14609886Y-16425381D01*
X14600362Y-16387286D01*
X14600362Y-16339667D01*
X14609886Y-16301571D01*
X14619409Y-16282524D01*
X14628933Y-16273000D01*
X14647981Y-16263476D01*
X14800362Y-16463476D02*
X14800362Y-16330143D01*
X14800362Y-16349190D02*
X14809886Y-16339667D01*
X14828933Y-16330143D01*
X14857505Y-16330143D01*
X14876552Y-16339667D01*
X14886076Y-16358714D01*
X14886076Y-16463476D01*
X14886076Y-16358714D02*
X14895600Y-16339667D01*
X14914648Y-16330143D01*
X14943219Y-16330143D01*
X14962267Y-16339667D01*
X14971790Y-16358714D01*
X14971790Y-16463476D01*
X15067028Y-16463476D02*
X15067028Y-16330143D01*
X15067028Y-16349190D02*
X15076552Y-16339667D01*
X15095600Y-16330143D01*
X15124171Y-16330143D01*
X15143219Y-16339667D01*
X15152743Y-16358714D01*
X15152743Y-16463476D01*
X15152743Y-16358714D02*
X15162267Y-16339667D01*
X15181314Y-16330143D01*
X15209886Y-16330143D01*
X15228933Y-16339667D01*
X15238457Y-16358714D01*
X15238457Y-16463476D01*
X15628933Y-16253952D02*
X15457505Y-16511095D01*
X15886076Y-16263476D02*
X15905124Y-16263476D01*
X15924171Y-16273000D01*
X15933695Y-16282524D01*
X15943219Y-16301571D01*
X15952743Y-16339667D01*
X15952743Y-16387286D01*
X15943219Y-16425381D01*
X15933695Y-16444428D01*
X15924171Y-16453952D01*
X15905124Y-16463476D01*
X15886076Y-16463476D01*
X15867028Y-16453952D01*
X15857505Y-16444428D01*
X15847981Y-16425381D01*
X15838457Y-16387286D01*
X15838457Y-16339667D01*
X15847981Y-16301571D01*
X15857505Y-16282524D01*
X15867028Y-16273000D01*
X15886076Y-16263476D01*
X16038457Y-16444428D02*
X16047981Y-16453952D01*
X16038457Y-16463476D01*
X16028933Y-16453952D01*
X16038457Y-16444428D01*
X16038457Y-16463476D01*
X16171790Y-16263476D02*
X16190838Y-16263476D01*
X16209886Y-16273000D01*
X16219409Y-16282524D01*
X16228933Y-16301571D01*
X16238457Y-16339667D01*
X16238457Y-16387286D01*
X16228933Y-16425381D01*
X16219409Y-16444428D01*
X16209886Y-16453952D01*
X16190838Y-16463476D01*
X16171790Y-16463476D01*
X16152743Y-16453952D01*
X16143219Y-16444428D01*
X16133695Y-16425381D01*
X16124171Y-16387286D01*
X16124171Y-16339667D01*
X16133695Y-16301571D01*
X16143219Y-16282524D01*
X16152743Y-16273000D01*
X16171790Y-16263476D01*
X16305124Y-16263476D02*
X16428933Y-16263476D01*
X16362267Y-16339667D01*
X16390838Y-16339667D01*
X16409886Y-16349190D01*
X16419409Y-16358714D01*
X16428933Y-16377762D01*
X16428933Y-16425381D01*
X16419409Y-16444428D01*
X16409886Y-16453952D01*
X16390838Y-16463476D01*
X16333695Y-16463476D01*
X16314648Y-16453952D01*
X16305124Y-16444428D01*
X16524171Y-16463476D02*
X16562267Y-16463476D01*
X16581314Y-16453952D01*
X16590838Y-16444428D01*
X16609886Y-16415857D01*
X16619409Y-16377762D01*
X16619409Y-16301571D01*
X16609886Y-16282524D01*
X16600362Y-16273000D01*
X16581314Y-16263476D01*
X16543219Y-16263476D01*
X16524171Y-16273000D01*
X16514648Y-16282524D01*
X16505124Y-16301571D01*
X16505124Y-16349190D01*
X16514648Y-16368238D01*
X16524171Y-16377762D01*
X16543219Y-16387286D01*
X16581314Y-16387286D01*
X16600362Y-16377762D01*
X16609886Y-16368238D01*
X16619409Y-16349190D01*
X16790838Y-16330143D02*
X16790838Y-16463476D01*
X16743219Y-16253952D02*
X16695600Y-16396809D01*
X16819410Y-16396809D01*
X16886076Y-16263476D02*
X16886076Y-16301571D01*
X16962267Y-16263476D02*
X16962267Y-16301571D01*
X17257505Y-16539667D02*
X17247981Y-16530143D01*
X17228933Y-16501571D01*
X17219410Y-16482524D01*
X17209886Y-16453952D01*
X17200362Y-16406333D01*
X17200362Y-16368238D01*
X17209886Y-16320619D01*
X17219410Y-16292048D01*
X17228933Y-16273000D01*
X17247981Y-16244428D01*
X17257505Y-16234905D01*
X17419410Y-16330143D02*
X17419410Y-16463476D01*
X17371790Y-16253952D02*
X17324171Y-16396809D01*
X17447981Y-16396809D01*
X17505124Y-16263476D02*
X17628933Y-16263476D01*
X17562267Y-16339667D01*
X17590838Y-16339667D01*
X17609886Y-16349190D01*
X17619410Y-16358714D01*
X17628933Y-16377762D01*
X17628933Y-16425381D01*
X17619410Y-16444428D01*
X17609886Y-16453952D01*
X17590838Y-16463476D01*
X17533695Y-16463476D01*
X17514648Y-16453952D01*
X17505124Y-16444428D01*
X17867029Y-16463476D02*
X17867029Y-16263476D01*
X17952743Y-16463476D02*
X17952743Y-16358714D01*
X17943219Y-16339667D01*
X17924171Y-16330143D01*
X17895600Y-16330143D01*
X17876552Y-16339667D01*
X17867029Y-16349190D01*
X18076552Y-16463476D02*
X18057505Y-16453952D01*
X18047981Y-16444428D01*
X18038457Y-16425381D01*
X18038457Y-16368238D01*
X18047981Y-16349190D01*
X18057505Y-16339667D01*
X18076552Y-16330143D01*
X18105124Y-16330143D01*
X18124171Y-16339667D01*
X18133695Y-16349190D01*
X18143219Y-16368238D01*
X18143219Y-16425381D01*
X18133695Y-16444428D01*
X18124171Y-16453952D01*
X18105124Y-16463476D01*
X18076552Y-16463476D01*
X18257505Y-16463476D02*
X18238457Y-16453952D01*
X18228933Y-16434905D01*
X18228933Y-16263476D01*
X18409886Y-16453952D02*
X18390838Y-16463476D01*
X18352743Y-16463476D01*
X18333695Y-16453952D01*
X18324171Y-16434905D01*
X18324171Y-16358714D01*
X18333695Y-16339667D01*
X18352743Y-16330143D01*
X18390838Y-16330143D01*
X18409886Y-16339667D01*
X18419410Y-16358714D01*
X18419410Y-16377762D01*
X18324171Y-16396809D01*
X18495600Y-16453952D02*
X18514648Y-16463476D01*
X18552743Y-16463476D01*
X18571790Y-16453952D01*
X18581314Y-16434905D01*
X18581314Y-16425381D01*
X18571790Y-16406333D01*
X18552743Y-16396809D01*
X18524171Y-16396809D01*
X18505124Y-16387286D01*
X18495600Y-16368238D01*
X18495600Y-16358714D01*
X18505124Y-16339667D01*
X18524171Y-16330143D01*
X18552743Y-16330143D01*
X18571790Y-16339667D01*
X18647981Y-16539667D02*
X18657505Y-16530143D01*
X18676552Y-16501571D01*
X18686076Y-16482524D01*
X18695600Y-16453952D01*
X18705124Y-16406333D01*
X18705124Y-16368238D01*
X18695600Y-16320619D01*
X18686076Y-16292048D01*
X18676552Y-16273000D01*
X18657505Y-16244428D01*
X18647981Y-16234905D01*
D15*
X13670721Y-16672921D02*
X13670721Y-16601079D01*
X13598879Y-16601079D01*
X13598879Y-16672921D01*
X13670721Y-16672921D01*
D11*
X14047981Y-16727476D02*
X13933695Y-16727476D01*
X13990838Y-16727476D02*
X13990838Y-16527476D01*
X13971790Y-16556048D01*
X13952743Y-16575095D01*
X13933695Y-16584619D01*
X14133695Y-16708428D02*
X14143219Y-16717952D01*
X14133695Y-16727476D01*
X14124171Y-16717952D01*
X14133695Y-16708428D01*
X14133695Y-16727476D01*
X14267028Y-16527476D02*
X14286076Y-16527476D01*
X14305124Y-16537000D01*
X14314648Y-16546524D01*
X14324171Y-16565571D01*
X14333695Y-16603667D01*
X14333695Y-16651286D01*
X14324171Y-16689381D01*
X14314648Y-16708428D01*
X14305124Y-16717952D01*
X14286076Y-16727476D01*
X14267028Y-16727476D01*
X14247981Y-16717952D01*
X14238457Y-16708428D01*
X14228933Y-16689381D01*
X14219409Y-16651286D01*
X14219409Y-16603667D01*
X14228933Y-16565571D01*
X14238457Y-16546524D01*
X14247981Y-16537000D01*
X14267028Y-16527476D01*
X14524171Y-16727476D02*
X14409886Y-16727476D01*
X14467028Y-16727476D02*
X14467028Y-16527476D01*
X14447981Y-16556048D01*
X14428933Y-16575095D01*
X14409886Y-16584619D01*
X14695600Y-16527476D02*
X14657505Y-16527476D01*
X14638457Y-16537000D01*
X14628933Y-16546524D01*
X14609886Y-16575095D01*
X14600362Y-16613190D01*
X14600362Y-16689381D01*
X14609886Y-16708428D01*
X14619409Y-16717952D01*
X14638457Y-16727476D01*
X14676552Y-16727476D01*
X14695600Y-16717952D01*
X14705124Y-16708428D01*
X14714648Y-16689381D01*
X14714648Y-16641762D01*
X14705124Y-16622714D01*
X14695600Y-16613190D01*
X14676552Y-16603667D01*
X14638457Y-16603667D01*
X14619409Y-16613190D01*
X14609886Y-16622714D01*
X14600362Y-16641762D01*
X14800362Y-16727476D02*
X14800362Y-16594143D01*
X14800362Y-16613190D02*
X14809886Y-16603667D01*
X14828933Y-16594143D01*
X14857505Y-16594143D01*
X14876552Y-16603667D01*
X14886076Y-16622714D01*
X14886076Y-16727476D01*
X14886076Y-16622714D02*
X14895600Y-16603667D01*
X14914648Y-16594143D01*
X14943219Y-16594143D01*
X14962267Y-16603667D01*
X14971790Y-16622714D01*
X14971790Y-16727476D01*
X15067028Y-16727476D02*
X15067028Y-16594143D01*
X15067028Y-16613190D02*
X15076552Y-16603667D01*
X15095600Y-16594143D01*
X15124171Y-16594143D01*
X15143219Y-16603667D01*
X15152743Y-16622714D01*
X15152743Y-16727476D01*
X15152743Y-16622714D02*
X15162267Y-16603667D01*
X15181314Y-16594143D01*
X15209886Y-16594143D01*
X15228933Y-16603667D01*
X15238457Y-16622714D01*
X15238457Y-16727476D01*
X15628933Y-16517952D02*
X15457505Y-16775095D01*
X15886076Y-16527476D02*
X15905124Y-16527476D01*
X15924171Y-16537000D01*
X15933695Y-16546524D01*
X15943219Y-16565571D01*
X15952743Y-16603667D01*
X15952743Y-16651286D01*
X15943219Y-16689381D01*
X15933695Y-16708428D01*
X15924171Y-16717952D01*
X15905124Y-16727476D01*
X15886076Y-16727476D01*
X15867028Y-16717952D01*
X15857505Y-16708428D01*
X15847981Y-16689381D01*
X15838457Y-16651286D01*
X15838457Y-16603667D01*
X15847981Y-16565571D01*
X15857505Y-16546524D01*
X15867028Y-16537000D01*
X15886076Y-16527476D01*
X16038457Y-16708428D02*
X16047981Y-16717952D01*
X16038457Y-16727476D01*
X16028933Y-16717952D01*
X16038457Y-16708428D01*
X16038457Y-16727476D01*
X16171790Y-16527476D02*
X16190838Y-16527476D01*
X16209886Y-16537000D01*
X16219409Y-16546524D01*
X16228933Y-16565571D01*
X16238457Y-16603667D01*
X16238457Y-16651286D01*
X16228933Y-16689381D01*
X16219409Y-16708428D01*
X16209886Y-16717952D01*
X16190838Y-16727476D01*
X16171790Y-16727476D01*
X16152743Y-16717952D01*
X16143219Y-16708428D01*
X16133695Y-16689381D01*
X16124171Y-16651286D01*
X16124171Y-16603667D01*
X16133695Y-16565571D01*
X16143219Y-16546524D01*
X16152743Y-16537000D01*
X16171790Y-16527476D01*
X16409886Y-16594143D02*
X16409886Y-16727476D01*
X16362267Y-16517952D02*
X16314648Y-16660809D01*
X16438457Y-16660809D01*
X16552743Y-16527476D02*
X16571790Y-16527476D01*
X16590838Y-16537000D01*
X16600362Y-16546524D01*
X16609886Y-16565571D01*
X16619409Y-16603667D01*
X16619409Y-16651286D01*
X16609886Y-16689381D01*
X16600362Y-16708428D01*
X16590838Y-16717952D01*
X16571790Y-16727476D01*
X16552743Y-16727476D01*
X16533695Y-16717952D01*
X16524171Y-16708428D01*
X16514648Y-16689381D01*
X16505124Y-16651286D01*
X16505124Y-16603667D01*
X16514648Y-16565571D01*
X16524171Y-16546524D01*
X16533695Y-16537000D01*
X16552743Y-16527476D01*
X16743219Y-16527476D02*
X16762267Y-16527476D01*
X16781314Y-16537000D01*
X16790838Y-16546524D01*
X16800362Y-16565571D01*
X16809886Y-16603667D01*
X16809886Y-16651286D01*
X16800362Y-16689381D01*
X16790838Y-16708428D01*
X16781314Y-16717952D01*
X16762267Y-16727476D01*
X16743219Y-16727476D01*
X16724171Y-16717952D01*
X16714648Y-16708428D01*
X16705124Y-16689381D01*
X16695600Y-16651286D01*
X16695600Y-16603667D01*
X16705124Y-16565571D01*
X16714648Y-16546524D01*
X16724171Y-16537000D01*
X16743219Y-16527476D01*
X16886076Y-16527476D02*
X16886076Y-16565571D01*
X16962267Y-16527476D02*
X16962267Y-16565571D01*
X17257505Y-16803667D02*
X17247981Y-16794143D01*
X17228933Y-16765571D01*
X17219410Y-16746524D01*
X17209886Y-16717952D01*
X17200362Y-16670333D01*
X17200362Y-16632238D01*
X17209886Y-16584619D01*
X17219410Y-16556048D01*
X17228933Y-16537000D01*
X17247981Y-16508428D01*
X17257505Y-16498905D01*
X17324171Y-16546524D02*
X17333695Y-16537000D01*
X17352743Y-16527476D01*
X17400362Y-16527476D01*
X17419410Y-16537000D01*
X17428933Y-16546524D01*
X17438457Y-16565571D01*
X17438457Y-16584619D01*
X17428933Y-16613190D01*
X17314648Y-16727476D01*
X17438457Y-16727476D01*
X17552743Y-16613190D02*
X17533695Y-16603667D01*
X17524171Y-16594143D01*
X17514648Y-16575095D01*
X17514648Y-16565571D01*
X17524171Y-16546524D01*
X17533695Y-16537000D01*
X17552743Y-16527476D01*
X17590838Y-16527476D01*
X17609886Y-16537000D01*
X17619410Y-16546524D01*
X17628933Y-16565571D01*
X17628933Y-16575095D01*
X17619410Y-16594143D01*
X17609886Y-16603667D01*
X17590838Y-16613190D01*
X17552743Y-16613190D01*
X17533695Y-16622714D01*
X17524171Y-16632238D01*
X17514648Y-16651286D01*
X17514648Y-16689381D01*
X17524171Y-16708428D01*
X17533695Y-16717952D01*
X17552743Y-16727476D01*
X17590838Y-16727476D01*
X17609886Y-16717952D01*
X17619410Y-16708428D01*
X17628933Y-16689381D01*
X17628933Y-16651286D01*
X17619410Y-16632238D01*
X17609886Y-16622714D01*
X17590838Y-16613190D01*
X17867029Y-16727476D02*
X17867029Y-16527476D01*
X17952743Y-16727476D02*
X17952743Y-16622714D01*
X17943219Y-16603667D01*
X17924171Y-16594143D01*
X17895600Y-16594143D01*
X17876552Y-16603667D01*
X17867029Y-16613190D01*
X18076552Y-16727476D02*
X18057505Y-16717952D01*
X18047981Y-16708428D01*
X18038457Y-16689381D01*
X18038457Y-16632238D01*
X18047981Y-16613190D01*
X18057505Y-16603667D01*
X18076552Y-16594143D01*
X18105124Y-16594143D01*
X18124171Y-16603667D01*
X18133695Y-16613190D01*
X18143219Y-16632238D01*
X18143219Y-16689381D01*
X18133695Y-16708428D01*
X18124171Y-16717952D01*
X18105124Y-16727476D01*
X18076552Y-16727476D01*
X18257505Y-16727476D02*
X18238457Y-16717952D01*
X18228933Y-16698905D01*
X18228933Y-16527476D01*
X18409886Y-16717952D02*
X18390838Y-16727476D01*
X18352743Y-16727476D01*
X18333695Y-16717952D01*
X18324171Y-16698905D01*
X18324171Y-16622714D01*
X18333695Y-16603667D01*
X18352743Y-16594143D01*
X18390838Y-16594143D01*
X18409886Y-16603667D01*
X18419410Y-16622714D01*
X18419410Y-16641762D01*
X18324171Y-16660809D01*
X18495600Y-16717952D02*
X18514648Y-16727476D01*
X18552743Y-16727476D01*
X18571790Y-16717952D01*
X18581314Y-16698905D01*
X18581314Y-16689381D01*
X18571790Y-16670333D01*
X18552743Y-16660809D01*
X18524171Y-16660809D01*
X18505124Y-16651286D01*
X18495600Y-16632238D01*
X18495600Y-16622714D01*
X18505124Y-16603667D01*
X18524171Y-16594143D01*
X18552743Y-16594143D01*
X18571790Y-16603667D01*
X18647981Y-16803667D02*
X18657505Y-16794143D01*
X18676552Y-16765571D01*
X18686076Y-16746524D01*
X18695600Y-16717952D01*
X18705124Y-16670333D01*
X18705124Y-16632238D01*
X18695600Y-16584619D01*
X18686076Y-16556048D01*
X18676552Y-16537000D01*
X18657505Y-16508428D01*
X18647981Y-16498905D01*
X13585600Y-17001000D02*
X13685600Y-16901000D01*
X13585600Y-16801000D01*
X13485600Y-16901000D01*
X13585600Y-17001000D01*
X13933695Y-16810524D02*
X13943219Y-16801000D01*
X13962267Y-16791476D01*
X14009886Y-16791476D01*
X14028933Y-16801000D01*
X14038457Y-16810524D01*
X14047981Y-16829571D01*
X14047981Y-16848619D01*
X14038457Y-16877190D01*
X13924171Y-16991476D01*
X14047981Y-16991476D01*
X14133695Y-16972429D02*
X14143219Y-16981952D01*
X14133695Y-16991476D01*
X14124171Y-16981952D01*
X14133695Y-16972429D01*
X14133695Y-16991476D01*
X14324171Y-16791476D02*
X14228933Y-16791476D01*
X14219409Y-16886714D01*
X14228933Y-16877190D01*
X14247981Y-16867667D01*
X14295600Y-16867667D01*
X14314648Y-16877190D01*
X14324171Y-16886714D01*
X14333695Y-16905762D01*
X14333695Y-16953381D01*
X14324171Y-16972429D01*
X14314648Y-16981952D01*
X14295600Y-16991476D01*
X14247981Y-16991476D01*
X14228933Y-16981952D01*
X14219409Y-16972429D01*
X14505124Y-16858143D02*
X14505124Y-16991476D01*
X14457505Y-16781952D02*
X14409886Y-16924810D01*
X14533695Y-16924810D01*
X14647981Y-16791476D02*
X14667028Y-16791476D01*
X14686076Y-16801000D01*
X14695600Y-16810524D01*
X14705124Y-16829571D01*
X14714648Y-16867667D01*
X14714648Y-16915286D01*
X14705124Y-16953381D01*
X14695600Y-16972429D01*
X14686076Y-16981952D01*
X14667028Y-16991476D01*
X14647981Y-16991476D01*
X14628933Y-16981952D01*
X14619409Y-16972429D01*
X14609886Y-16953381D01*
X14600362Y-16915286D01*
X14600362Y-16867667D01*
X14609886Y-16829571D01*
X14619409Y-16810524D01*
X14628933Y-16801000D01*
X14647981Y-16791476D01*
X14800362Y-16991476D02*
X14800362Y-16858143D01*
X14800362Y-16877190D02*
X14809886Y-16867667D01*
X14828933Y-16858143D01*
X14857505Y-16858143D01*
X14876552Y-16867667D01*
X14886076Y-16886714D01*
X14886076Y-16991476D01*
X14886076Y-16886714D02*
X14895600Y-16867667D01*
X14914648Y-16858143D01*
X14943219Y-16858143D01*
X14962267Y-16867667D01*
X14971790Y-16886714D01*
X14971790Y-16991476D01*
X15067028Y-16991476D02*
X15067028Y-16858143D01*
X15067028Y-16877190D02*
X15076552Y-16867667D01*
X15095600Y-16858143D01*
X15124171Y-16858143D01*
X15143219Y-16867667D01*
X15152743Y-16886714D01*
X15152743Y-16991476D01*
X15152743Y-16886714D02*
X15162267Y-16867667D01*
X15181314Y-16858143D01*
X15209886Y-16858143D01*
X15228933Y-16867667D01*
X15238457Y-16886714D01*
X15238457Y-16991476D01*
X15628933Y-16781952D02*
X15457505Y-17039095D01*
X15886076Y-16791476D02*
X15905124Y-16791476D01*
X15924171Y-16801000D01*
X15933695Y-16810524D01*
X15943219Y-16829571D01*
X15952743Y-16867667D01*
X15952743Y-16915286D01*
X15943219Y-16953381D01*
X15933695Y-16972429D01*
X15924171Y-16981952D01*
X15905124Y-16991476D01*
X15886076Y-16991476D01*
X15867028Y-16981952D01*
X15857505Y-16972429D01*
X15847981Y-16953381D01*
X15838457Y-16915286D01*
X15838457Y-16867667D01*
X15847981Y-16829571D01*
X15857505Y-16810524D01*
X15867028Y-16801000D01*
X15886076Y-16791476D01*
X16038457Y-16972429D02*
X16047981Y-16981952D01*
X16038457Y-16991476D01*
X16028933Y-16981952D01*
X16038457Y-16972429D01*
X16038457Y-16991476D01*
X16238457Y-16991476D02*
X16124171Y-16991476D01*
X16181314Y-16991476D02*
X16181314Y-16791476D01*
X16162267Y-16820048D01*
X16143219Y-16839095D01*
X16124171Y-16848619D01*
X16362267Y-16791476D02*
X16381314Y-16791476D01*
X16400362Y-16801000D01*
X16409886Y-16810524D01*
X16419409Y-16829571D01*
X16428933Y-16867667D01*
X16428933Y-16915286D01*
X16419409Y-16953381D01*
X16409886Y-16972429D01*
X16400362Y-16981952D01*
X16381314Y-16991476D01*
X16362267Y-16991476D01*
X16343219Y-16981952D01*
X16333695Y-16972429D01*
X16324171Y-16953381D01*
X16314648Y-16915286D01*
X16314648Y-16867667D01*
X16324171Y-16829571D01*
X16333695Y-16810524D01*
X16343219Y-16801000D01*
X16362267Y-16791476D01*
X16552743Y-16791476D02*
X16571790Y-16791476D01*
X16590838Y-16801000D01*
X16600362Y-16810524D01*
X16609886Y-16829571D01*
X16619409Y-16867667D01*
X16619409Y-16915286D01*
X16609886Y-16953381D01*
X16600362Y-16972429D01*
X16590838Y-16981952D01*
X16571790Y-16991476D01*
X16552743Y-16991476D01*
X16533695Y-16981952D01*
X16524171Y-16972429D01*
X16514648Y-16953381D01*
X16505124Y-16915286D01*
X16505124Y-16867667D01*
X16514648Y-16829571D01*
X16524171Y-16810524D01*
X16533695Y-16801000D01*
X16552743Y-16791476D01*
X16743219Y-16791476D02*
X16762267Y-16791476D01*
X16781314Y-16801000D01*
X16790838Y-16810524D01*
X16800362Y-16829571D01*
X16809886Y-16867667D01*
X16809886Y-16915286D01*
X16800362Y-16953381D01*
X16790838Y-16972429D01*
X16781314Y-16981952D01*
X16762267Y-16991476D01*
X16743219Y-16991476D01*
X16724171Y-16981952D01*
X16714648Y-16972429D01*
X16705124Y-16953381D01*
X16695600Y-16915286D01*
X16695600Y-16867667D01*
X16705124Y-16829571D01*
X16714648Y-16810524D01*
X16724171Y-16801000D01*
X16743219Y-16791476D01*
X16886076Y-16791476D02*
X16886076Y-16829571D01*
X16962267Y-16791476D02*
X16962267Y-16829571D01*
X17257505Y-17067667D02*
X17247981Y-17058143D01*
X17228933Y-17029571D01*
X17219410Y-17010524D01*
X17209886Y-16981952D01*
X17200362Y-16934333D01*
X17200362Y-16896238D01*
X17209886Y-16848619D01*
X17219410Y-16820048D01*
X17228933Y-16801000D01*
X17247981Y-16772428D01*
X17257505Y-16762905D01*
X17419410Y-16858143D02*
X17419410Y-16991476D01*
X17371790Y-16781952D02*
X17324171Y-16924810D01*
X17447981Y-16924810D01*
X17676552Y-16991476D02*
X17676552Y-16791476D01*
X17762267Y-16991476D02*
X17762267Y-16886714D01*
X17752743Y-16867667D01*
X17733695Y-16858143D01*
X17705124Y-16858143D01*
X17686076Y-16867667D01*
X17676552Y-16877190D01*
X17886076Y-16991476D02*
X17867029Y-16981952D01*
X17857505Y-16972429D01*
X17847981Y-16953381D01*
X17847981Y-16896238D01*
X17857505Y-16877190D01*
X17867029Y-16867667D01*
X17886076Y-16858143D01*
X17914648Y-16858143D01*
X17933695Y-16867667D01*
X17943219Y-16877190D01*
X17952743Y-16896238D01*
X17952743Y-16953381D01*
X17943219Y-16972429D01*
X17933695Y-16981952D01*
X17914648Y-16991476D01*
X17886076Y-16991476D01*
X18067029Y-16991476D02*
X18047981Y-16981952D01*
X18038457Y-16962905D01*
X18038457Y-16791476D01*
X18219410Y-16981952D02*
X18200362Y-16991476D01*
X18162267Y-16991476D01*
X18143219Y-16981952D01*
X18133695Y-16962905D01*
X18133695Y-16886714D01*
X18143219Y-16867667D01*
X18162267Y-16858143D01*
X18200362Y-16858143D01*
X18219410Y-16867667D01*
X18228933Y-16886714D01*
X18228933Y-16905762D01*
X18133695Y-16924810D01*
X18305124Y-16981952D02*
X18324171Y-16991476D01*
X18362267Y-16991476D01*
X18381314Y-16981952D01*
X18390838Y-16962905D01*
X18390838Y-16953381D01*
X18381314Y-16934333D01*
X18362267Y-16924810D01*
X18333695Y-16924810D01*
X18314648Y-16915286D01*
X18305124Y-16896238D01*
X18305124Y-16886714D01*
X18314648Y-16867667D01*
X18333695Y-16858143D01*
X18362267Y-16858143D01*
X18381314Y-16867667D01*
X18457505Y-17067667D02*
X18467029Y-17058143D01*
X18486076Y-17029571D01*
X18495600Y-17010524D01*
X18505124Y-16981952D01*
X18514648Y-16934333D01*
X18514648Y-16896238D01*
X18505124Y-16848619D01*
X18495600Y-16820048D01*
X18486076Y-16801000D01*
X18467029Y-16772428D01*
X18457505Y-16762905D01*
M02*
