%FSLAX45Y45*%
G04 Gerber Fmt 4.5, Leading zero omitted, Abs format (unit mm)*
G04 Created by KiCad (PCBNEW 6.0.4-1.fc35) date 2022-04-09 22:38:39*
%MOMM*%
%LPD*%
G01*
G04 APERTURE LIST*
%TA.AperFunction,Profile*%
%ADD10C,0.100000*%
%TD*%
%ADD11C,0.200000*%
G04 APERTURE END LIST*
D10*
X13690600Y-6146800D02*
X23039600Y-6146800D01*
X23039600Y-6146800D02*
X23039600Y-15200000D01*
X23039600Y-15200000D02*
X13690600Y-15200000D01*
X13690600Y-15200000D02*
X13690600Y-6146800D01*
D11*
X13943219Y-15515476D02*
X13943219Y-15315476D01*
X13990838Y-15315476D01*
X14019409Y-15325000D01*
X14038457Y-15344048D01*
X14047981Y-15363095D01*
X14057505Y-15401190D01*
X14057505Y-15429762D01*
X14047981Y-15467857D01*
X14038457Y-15486905D01*
X14019409Y-15505952D01*
X13990838Y-15515476D01*
X13943219Y-15515476D01*
X14143219Y-15515476D02*
X14143219Y-15382143D01*
X14143219Y-15420238D02*
X14152743Y-15401190D01*
X14162267Y-15391667D01*
X14181314Y-15382143D01*
X14200362Y-15382143D01*
X14267028Y-15515476D02*
X14267028Y-15382143D01*
X14267028Y-15315476D02*
X14257505Y-15325000D01*
X14267028Y-15334524D01*
X14276552Y-15325000D01*
X14267028Y-15315476D01*
X14267028Y-15334524D01*
X14390838Y-15515476D02*
X14371790Y-15505952D01*
X14362267Y-15486905D01*
X14362267Y-15315476D01*
X14495600Y-15515476D02*
X14476552Y-15505952D01*
X14467028Y-15486905D01*
X14467028Y-15315476D01*
X14724171Y-15515476D02*
X14724171Y-15315476D01*
X14790838Y-15458333D01*
X14857505Y-15315476D01*
X14857505Y-15515476D01*
X15038457Y-15515476D02*
X15038457Y-15410714D01*
X15028933Y-15391667D01*
X15009886Y-15382143D01*
X14971790Y-15382143D01*
X14952743Y-15391667D01*
X15038457Y-15505952D02*
X15019409Y-15515476D01*
X14971790Y-15515476D01*
X14952743Y-15505952D01*
X14943219Y-15486905D01*
X14943219Y-15467857D01*
X14952743Y-15448809D01*
X14971790Y-15439286D01*
X15019409Y-15439286D01*
X15038457Y-15429762D01*
X15133695Y-15382143D02*
X15133695Y-15582143D01*
X15133695Y-15391667D02*
X15152743Y-15382143D01*
X15190838Y-15382143D01*
X15209886Y-15391667D01*
X15219409Y-15401190D01*
X15228933Y-15420238D01*
X15228933Y-15477381D01*
X15219409Y-15496428D01*
X15209886Y-15505952D01*
X15190838Y-15515476D01*
X15152743Y-15515476D01*
X15133695Y-15505952D01*
X15314648Y-15496428D02*
X15324171Y-15505952D01*
X15314648Y-15515476D01*
X15305124Y-15505952D01*
X15314648Y-15496428D01*
X15314648Y-15515476D01*
X15314648Y-15391667D02*
X15324171Y-15401190D01*
X15314648Y-15410714D01*
X15305124Y-15401190D01*
X15314648Y-15391667D01*
X15314648Y-15410714D01*
M02*
