M48
; DRILL file {KiCad 6.0.4-1.fc35} date Sat 09 Apr 2022 10:38:37 PM BST
; FORMAT={-:-/ absolute / metric / decimal}
; #@! TF.CreationDate,2022-04-09T22:38:37+01:00
; #@! TF.GenerationSoftware,Kicad,Pcbnew,6.0.4-1.fc35
; #@! TF.FileFunction,Plated,1,2,PTH
FMAT,2
METRIC
; #@! TA.AperFunction,Plated,PTH,ViaDrill
T1C0.400
; #@! TA.AperFunction,Plated,PTH,ComponentDrill
T2C0.762
; #@! TA.AperFunction,Plated,PTH,ComponentDrill
T3C1.000
; #@! TA.AperFunction,Plated,PTH,ComponentDrill
T4C1.016
; #@! TA.AperFunction,Plated,PTH,ComponentDrill
T5C2.540
%
G90
G05
T1
X162.814Y-92.71
X183.642Y-89.916
X184.912Y-73.406
X184.912Y-87.122
X186.182Y-82.042
X187.96Y-77.216
T2
X168.021Y-67.564
X168.021Y-70.104
X168.021Y-72.644
X168.021Y-75.184
X168.021Y-77.724
X168.021Y-80.264
X168.021Y-82.804
X168.021Y-85.344
X189.992Y-71.882
X189.992Y-74.422
X189.992Y-140.462
X189.992Y-143.002
X192.532Y-71.882
X192.532Y-74.422
X192.532Y-140.462
X192.532Y-143.002
X195.072Y-71.882
X195.072Y-74.422
X195.072Y-140.462
X195.072Y-143.002
X197.612Y-71.882
X197.612Y-74.422
X197.612Y-140.462
X197.612Y-143.002
X200.152Y-71.882
X200.152Y-74.422
X200.152Y-140.462
X200.152Y-143.002
X202.692Y-71.882
X202.692Y-74.422
X202.692Y-140.462
X202.692Y-143.002
X205.232Y-71.882
X205.232Y-74.422
X205.232Y-140.462
X205.232Y-143.002
X207.772Y-71.882
X207.772Y-74.422
X207.772Y-140.462
X207.772Y-143.002
X210.312Y-71.882
X210.312Y-74.422
X210.312Y-140.462
X210.312Y-143.002
X212.852Y-71.882
X212.852Y-74.422
X212.852Y-140.462
X212.852Y-143.002
X215.392Y-102.362
X215.392Y-104.902
X215.392Y-107.442
X215.392Y-109.982
X215.392Y-112.522
X217.932Y-102.362
X217.932Y-104.902
X217.932Y-107.442
X217.932Y-109.982
X217.932Y-112.522
T3
X142.46Y-105.664
X142.46Y-108.204
X142.46Y-110.744
X142.46Y-113.284
X142.46Y-115.824
X142.46Y-118.364
X145.0Y-105.664
X145.0Y-108.204
X145.0Y-110.744
X145.0Y-113.284
X145.0Y-115.824
X145.0Y-118.364
X145.288Y-128.529
X145.288Y-131.069
X145.288Y-133.609
X145.288Y-136.149
X145.288Y-138.689
X145.288Y-141.229
X145.288Y-143.769
X180.345Y-68.072
X181.107Y-103.124
X181.107Y-105.664
X181.107Y-108.204
X181.107Y-110.744
X181.107Y-113.284
X181.107Y-115.824
X181.107Y-120.909
X181.107Y-123.449
X181.107Y-125.989
X181.107Y-128.529
X181.107Y-131.069
X181.107Y-133.609
X181.107Y-136.149
X181.107Y-138.689
X181.107Y-141.229
X181.107Y-143.769
X182.885Y-68.072
X183.647Y-103.124
X183.647Y-105.664
X183.647Y-108.204
X183.647Y-110.744
X183.647Y-113.284
X183.647Y-115.824
T4
X152.84Y-101.346
X152.84Y-103.886
X152.84Y-106.426
X152.84Y-108.966
X152.84Y-111.506
X152.84Y-114.046
X152.84Y-116.586
X152.84Y-119.126
X152.84Y-121.666
X152.84Y-124.206
X152.84Y-126.746
X152.84Y-129.286
X173.16Y-101.346
X173.16Y-103.886
X173.16Y-106.426
X173.16Y-108.966
X173.16Y-111.506
X173.16Y-114.046
X173.16Y-116.586
X173.16Y-119.126
X173.16Y-121.666
X173.16Y-124.206
X173.16Y-126.746
X173.16Y-129.286
X173.16Y-131.826
X173.16Y-134.366
X173.16Y-136.906
X173.16Y-139.446
T5
X154.11Y-97.536
X154.11Y-143.256
X171.89Y-97.536
X171.89Y-143.256
T0
M30
