%TF.GenerationSoftware,KiCad,Pcbnew,6.0.4-1.fc35*%
%TF.CreationDate,2022-04-09T22:38:19+01:00*%
%TF.ProjectId,DevBoard,44657642-6f61-4726-942e-6b696361645f,rev?*%
%TF.SameCoordinates,Original*%
%TF.FileFunction,Copper,L1,Top*%
%TF.FilePolarity,Positive*%
%FSLAX46Y46*%
G04 Gerber Fmt 4.6, Leading zero omitted, Abs format (unit mm)*
G04 Created by KiCad (PCBNEW 6.0.4-1.fc35) date 2022-04-09 22:38:19*
%MOMM*%
%LPD*%
G01*
G04 APERTURE LIST*
%TA.AperFunction,ComponentPad*%
%ADD10R,1.700000X1.700000*%
%TD*%
%TA.AperFunction,ComponentPad*%
%ADD11O,1.700000X1.700000*%
%TD*%
%TA.AperFunction,ComponentPad*%
%ADD12C,1.524000*%
%TD*%
%TA.AperFunction,ComponentPad*%
%ADD13C,3.810000*%
%TD*%
%TA.AperFunction,ViaPad*%
%ADD14C,0.800000*%
%TD*%
%TA.AperFunction,Conductor*%
%ADD15C,0.500000*%
%TD*%
%TA.AperFunction,Conductor*%
%ADD16C,0.250000*%
%TD*%
G04 APERTURE END LIST*
D10*
%TO.P,J3,1,Pin_1*%
%TO.N,Net-(J3-Pad1)*%
X182885000Y-68072000D03*
D11*
%TO.P,J3,2,Pin_2*%
%TO.N,/GND*%
X180345000Y-68072000D03*
%TD*%
D10*
%TO.P,J4,1,Pin_1*%
%TO.N,/RST_nrf*%
X181107000Y-143769000D03*
D11*
%TO.P,J4,2,Pin_2*%
%TO.N,/AREF_nrf*%
X181107000Y-141229000D03*
%TO.P,J4,3,Pin_3*%
%TO.N,/A0_nrf*%
X181107000Y-138689000D03*
%TO.P,J4,4,Pin_4*%
%TO.N,/A1_nrf*%
X181107000Y-136149000D03*
%TO.P,J4,5,Pin_5*%
%TO.N,/A2_nrf*%
X181107000Y-133609000D03*
%TO.P,J4,6,Pin_6*%
%TO.N,/A3_nrf*%
X181107000Y-131069000D03*
%TO.P,J4,7,Pin_7*%
%TO.N,/A4_nrf*%
X181107000Y-128529000D03*
%TO.P,J4,8,Pin_8*%
%TO.N,/A5_nrf*%
X181107000Y-125989000D03*
%TO.P,J4,9,Pin_9*%
%TO.N,/RX_nrf*%
X181107000Y-123449000D03*
%TO.P,J4,10,Pin_10*%
%TO.N,/TX_nrf*%
X181107000Y-120909000D03*
%TD*%
D12*
%TO.P,U2,1,RST*%
%TO.N,/RST_nrf*%
X173160000Y-139446000D03*
%TO.P,U2,2,3V*%
%TO.N,/3V3_nrf*%
X173160000Y-136906000D03*
%TO.P,U2,3,AREF*%
%TO.N,/AREF_nrf*%
X173160000Y-134366000D03*
%TO.P,U2,4,GND*%
%TO.N,/GND_nrf*%
X173160000Y-131826000D03*
%TO.P,U2,5,A0*%
%TO.N,/A0_nrf*%
X173160000Y-129286000D03*
%TO.P,U2,6,A1*%
%TO.N,/A1_nrf*%
X173160000Y-126746000D03*
%TO.P,U2,7,A2*%
%TO.N,/A2_nrf*%
X173160000Y-124206000D03*
%TO.P,U2,8,A3*%
%TO.N,/A3_nrf*%
X173160000Y-121666000D03*
%TO.P,U2,9,A4*%
%TO.N,/A4_nrf*%
X173160000Y-119126000D03*
%TO.P,U2,10,A5*%
%TO.N,/A5_nrf*%
X173160000Y-116586000D03*
%TO.P,U2,11,SCK*%
%TO.N,/SCK_nrf*%
X173160000Y-114046000D03*
%TO.P,U2,12,MOSI*%
%TO.N,/MOSI_nrf*%
X173160000Y-111506000D03*
%TO.P,U2,13,MISO*%
%TO.N,/MISO_nrf*%
X173160000Y-108966000D03*
%TO.P,U2,14,RX*%
%TO.N,/RX_nrf*%
X173160000Y-106426000D03*
%TO.P,U2,15,TX*%
%TO.N,/TX_nrf*%
X173160000Y-103886000D03*
%TO.P,U2,16,D2*%
%TO.N,unconnected-(U2-Pad16)*%
X173160000Y-101346000D03*
%TO.P,U2,17,SDA*%
%TO.N,/SDA_nrf*%
X152840000Y-101346000D03*
%TO.P,U2,18,SCL*%
%TO.N,/SCL_nrf*%
X152840000Y-103886000D03*
%TO.P,U2,19,5*%
%TO.N,/~{CARD_CD_nrf}*%
X152840000Y-106426000D03*
%TO.P,U2,20,6*%
%TO.N,/GPIO6_nrf*%
X152840000Y-108966000D03*
%TO.P,U2,21,9*%
%TO.N,/~{CARD_CS_nrf}*%
X152840000Y-111506000D03*
%TO.P,U2,22,10*%
%TO.N,/~{ADS_CS_nrf}*%
X152840000Y-114046000D03*
%TO.P,U2,23,11*%
%TO.N,/GPIO11_nrf*%
X152840000Y-116586000D03*
%TO.P,U2,24,12*%
%TO.N,/~{ADS_DRDY_nrf}*%
X152840000Y-119126000D03*
%TO.P,U2,25,13*%
%TO.N,/GPIO13_nrf*%
X152840000Y-121666000D03*
%TO.P,U2,26,USB*%
%TO.N,/5V_nrf*%
X152840000Y-124206000D03*
%TO.P,U2,27,EN*%
%TO.N,/EN_nrf*%
X152840000Y-126746000D03*
%TO.P,U2,28,BAT*%
%TO.N,/BAT_nrf*%
X152840000Y-129286000D03*
D13*
%TO.P,U2,M1*%
%TO.N,N/C*%
X171890000Y-143256000D03*
%TO.P,U2,M2*%
X171890000Y-97536000D03*
%TO.P,U2,M3*%
X154110000Y-97536000D03*
%TO.P,U2,M4*%
X154110000Y-143256000D03*
%TD*%
D10*
%TO.P,J1,1,Pin_1*%
%TO.N,/5V_nrf*%
X145000000Y-118364000D03*
D11*
%TO.P,J1,2,Pin_2*%
%TO.N,/5V_ads*%
X142460000Y-118364000D03*
%TO.P,J1,3,Pin_3*%
%TO.N,/5V_nrf*%
X145000000Y-115824000D03*
%TO.P,J1,4,Pin_4*%
%TO.N,/5V_sdc*%
X142460000Y-115824000D03*
%TO.P,J1,5,Pin_5*%
%TO.N,/~{ADS_DRDY_nrf}*%
X145000000Y-113284000D03*
%TO.P,J1,6,Pin_6*%
%TO.N,/~{DRDY_ads}*%
X142460000Y-113284000D03*
%TO.P,J1,7,Pin_7*%
%TO.N,/~{ADS_CS_nrf}*%
X145000000Y-110744000D03*
%TO.P,J1,8,Pin_8*%
%TO.N,/~{CS_ads}*%
X142460000Y-110744000D03*
%TO.P,J1,9,Pin_9*%
%TO.N,/~{CARD_CS_nrf}*%
X145000000Y-108204000D03*
%TO.P,J1,10,Pin_10*%
%TO.N,/~{CS_sdc}*%
X142460000Y-108204000D03*
%TO.P,J1,11,Pin_11*%
%TO.N,/~{CARD_CD_nrf}*%
X145000000Y-105664000D03*
%TO.P,J1,12,Pin_12*%
%TO.N,/~{CD_sdc}*%
X142460000Y-105664000D03*
%TD*%
D10*
%TO.P,J5,1,Pin_1*%
%TO.N,/BAT_nrf*%
X145288000Y-143769000D03*
D11*
%TO.P,J5,2,Pin_2*%
%TO.N,/EN_nrf*%
X145288000Y-141229000D03*
%TO.P,J5,3,Pin_3*%
%TO.N,/GPIO13_nrf*%
X145288000Y-138689000D03*
%TO.P,J5,4,Pin_4*%
%TO.N,/GPIO11_nrf*%
X145288000Y-136149000D03*
%TO.P,J5,5,Pin_5*%
%TO.N,/GPIO6_nrf*%
X145288000Y-133609000D03*
%TO.P,J5,6,Pin_6*%
%TO.N,/SCL_nrf*%
X145288000Y-131069000D03*
%TO.P,J5,7,Pin_7*%
%TO.N,/SDA_nrf*%
X145288000Y-128529000D03*
%TD*%
D12*
%TO.P,U3,2,3V*%
%TO.N,/3V3_ads*%
X217932000Y-102362000D03*
%TO.P,U3,3*%
%TO.N,N/C*%
X217932000Y-104902000D03*
%TO.P,U3,4,GND*%
%TO.N,/GND*%
X217932000Y-107442000D03*
%TO.P,U3,5*%
%TO.N,N/C*%
X217932000Y-109982000D03*
%TO.P,U3,6*%
X217932000Y-112522000D03*
%TO.P,U3,7*%
X215392000Y-112522000D03*
%TO.P,U3,8*%
X215392000Y-109982000D03*
%TO.P,U3,9*%
X215392000Y-107442000D03*
%TO.P,U3,10*%
X215392000Y-104902000D03*
%TO.P,U3,11,5V*%
%TO.N,/5V_ads*%
X215392000Y-102362000D03*
%TO.P,U3,12*%
%TO.N,N/C*%
X189992000Y-71882000D03*
%TO.P,U3,13*%
X192532000Y-71882000D03*
%TO.P,U3,14*%
X195072000Y-71882000D03*
%TO.P,U3,15*%
X197612000Y-71882000D03*
%TO.P,U3,16*%
X200152000Y-71882000D03*
%TO.P,U3,17*%
X202692000Y-71882000D03*
%TO.P,U3,18,Start*%
%TO.N,Net-(J3-Pad1)*%
X205232000Y-71882000D03*
%TO.P,U3,19*%
%TO.N,N/C*%
X207772000Y-71882000D03*
%TO.P,U3,20*%
X210312000Y-71882000D03*
%TO.P,U3,21*%
X212852000Y-71882000D03*
%TO.P,U3,22*%
X212852000Y-74422000D03*
%TO.P,U3,23*%
X210312000Y-74422000D03*
%TO.P,U3,24,Data_Ready*%
%TO.N,/~{DRDY_ads}*%
X207772000Y-74422000D03*
%TO.P,U3,25,MISO*%
%TO.N,/MISO*%
X205232000Y-74422000D03*
%TO.P,U3,26,MOSI*%
%TO.N,/MOSI*%
X202692000Y-74422000D03*
%TO.P,U3,27*%
%TO.N,N/C*%
X200152000Y-74422000D03*
%TO.P,U3,28,~{Chip_Select}*%
%TO.N,/~{CS_ads}*%
X197612000Y-74422000D03*
%TO.P,U3,29*%
%TO.N,N/C*%
X195072000Y-74422000D03*
%TO.P,U3,30,SCLK*%
%TO.N,/SCK*%
X192532000Y-74422000D03*
%TO.P,U3,31*%
%TO.N,N/C*%
X189992000Y-74422000D03*
%TO.P,U3,32*%
X189992000Y-140462000D03*
%TO.P,U3,33*%
X192532000Y-140462000D03*
%TO.P,U3,34*%
X195072000Y-140462000D03*
%TO.P,U3,35*%
X197612000Y-140462000D03*
%TO.P,U3,36*%
X200152000Y-140462000D03*
%TO.P,U3,37*%
X202692000Y-140462000D03*
%TO.P,U3,38*%
X205232000Y-140462000D03*
%TO.P,U3,39*%
X207772000Y-140462000D03*
%TO.P,U3,40*%
X210312000Y-140462000D03*
%TO.P,U3,41*%
X212852000Y-140462000D03*
%TO.P,U3,42*%
X212852000Y-143002000D03*
%TO.P,U3,43*%
X210312000Y-143002000D03*
%TO.P,U3,44*%
X207772000Y-143002000D03*
%TO.P,U3,45*%
X205232000Y-143002000D03*
%TO.P,U3,46*%
X202692000Y-143002000D03*
%TO.P,U3,47*%
X200152000Y-143002000D03*
%TO.P,U3,48*%
X197612000Y-143002000D03*
%TO.P,U3,51*%
X195072000Y-143002000D03*
%TO.P,U3,52*%
X192532000Y-143002000D03*
%TO.P,U3,53*%
X189992000Y-143002000D03*
%TD*%
%TO.P,U1,1,5V*%
%TO.N,/5V_sdc*%
X168021000Y-85344000D03*
%TO.P,U1,2,3V*%
%TO.N,/3V3_sdc*%
X168021000Y-82804000D03*
%TO.P,U1,3,GND*%
%TO.N,/GND*%
X168021000Y-80264000D03*
%TO.P,U1,4,CLK*%
%TO.N,/SCK*%
X168021000Y-77724000D03*
%TO.P,U1,5,D_Out*%
%TO.N,/MISO*%
X168021000Y-75184000D03*
%TO.P,U1,6,D_in*%
%TO.N,/MOSI*%
X168021000Y-72644000D03*
%TO.P,U1,7,~{Chip_Select}*%
%TO.N,/~{CS_sdc}*%
X168021000Y-70104000D03*
%TO.P,U1,8,Card_Detect*%
%TO.N,/~{CD_sdc}*%
X168021000Y-67564000D03*
%TD*%
D10*
%TO.P,J2,1,Pin_1*%
%TO.N,/3V3_ads*%
X183647000Y-115824000D03*
D11*
%TO.P,J2,2,Pin_2*%
%TO.N,/3V3_nrf*%
X181107000Y-115824000D03*
%TO.P,J2,3,Pin_3*%
%TO.N,/3V3_sdc*%
X183647000Y-113284000D03*
%TO.P,J2,4,Pin_4*%
%TO.N,/3V3_nrf*%
X181107000Y-113284000D03*
%TO.P,J2,5,Pin_5*%
%TO.N,/GND*%
X183647000Y-110744000D03*
%TO.P,J2,6,Pin_6*%
%TO.N,/GND_nrf*%
X181107000Y-110744000D03*
%TO.P,J2,7,Pin_7*%
%TO.N,/SCK*%
X183647000Y-108204000D03*
%TO.P,J2,8,Pin_8*%
%TO.N,/SCK_nrf*%
X181107000Y-108204000D03*
%TO.P,J2,9,Pin_9*%
%TO.N,/MOSI*%
X183647000Y-105664000D03*
%TO.P,J2,10,Pin_10*%
%TO.N,/MOSI_nrf*%
X181107000Y-105664000D03*
%TO.P,J2,11,Pin_11*%
%TO.N,/MISO*%
X183647000Y-103124000D03*
%TO.P,J2,12,Pin_12*%
%TO.N,/MISO_nrf*%
X181107000Y-103124000D03*
%TD*%
D14*
%TO.N,/~{DRDY_ads}*%
X187960000Y-77216000D03*
%TO.N,/~{CS_ads}*%
X184912000Y-73406000D03*
%TO.N,/GND*%
X162814000Y-92710000D03*
%TO.N,/MOSI*%
X184912000Y-87122000D03*
%TO.N,/MISO*%
X183642000Y-89916000D03*
%TO.N,/SCK*%
X186182000Y-82042000D03*
%TD*%
D15*
%TO.N,/5V_nrf*%
X145000000Y-118364000D02*
X146270000Y-117094000D01*
X146270000Y-117094000D02*
X145000000Y-115824000D01*
X149606000Y-119888000D02*
X146846000Y-117128000D01*
X152840000Y-124206000D02*
X151638000Y-124206000D01*
X146270000Y-117094000D02*
X146812000Y-117094000D01*
X149606000Y-122174000D02*
X149606000Y-119888000D01*
X151638000Y-124206000D02*
X149606000Y-122174000D01*
D16*
%TO.N,/~{ADS_DRDY_nrf}*%
X146812000Y-113284000D02*
X152654000Y-119126000D01*
X145000000Y-113284000D02*
X146812000Y-113284000D01*
X152654000Y-119126000D02*
X152840000Y-119126000D01*
%TO.N,/~{ADS_CS_nrf}*%
X150080000Y-114046000D02*
X152840000Y-114046000D01*
X145000000Y-110744000D02*
X146778000Y-110744000D01*
X146778000Y-110744000D02*
X150080000Y-114046000D01*
%TO.N,/~{CARD_CS_nrf}*%
X146812000Y-108204000D02*
X150114000Y-111506000D01*
X145000000Y-108204000D02*
X146812000Y-108204000D01*
X150114000Y-111506000D02*
X152840000Y-111506000D01*
%TO.N,/~{CARD_CD_nrf}*%
X146812000Y-105664000D02*
X147574000Y-106426000D01*
X145000000Y-105664000D02*
X146812000Y-105664000D01*
X147574000Y-106426000D02*
X152840000Y-106426000D01*
D15*
%TO.N,/5V_ads*%
X221488000Y-139446000D02*
X221488000Y-103124000D01*
X213106000Y-147828000D02*
X221488000Y-139446000D01*
X218948000Y-100584000D02*
X217170000Y-100584000D01*
X144780000Y-147828000D02*
X213106000Y-147828000D01*
X142460000Y-118364000D02*
X142460000Y-145508000D01*
X221488000Y-103124000D02*
X218948000Y-100584000D01*
X217170000Y-100584000D02*
X215392000Y-102362000D01*
X142460000Y-145508000D02*
X144780000Y-147828000D01*
D16*
%TO.N,/~{DRDY_ads}*%
X139562960Y-110386960D02*
X139562960Y-85605887D01*
X186182000Y-72898000D02*
X186182000Y-75438000D01*
X172582960Y-65140960D02*
X178816000Y-71374000D01*
X142460000Y-113284000D02*
X139562960Y-110386960D01*
X139562960Y-85605887D02*
X160027889Y-65140960D01*
X160027889Y-65140960D02*
X172582960Y-65140960D01*
X178816000Y-71374000D02*
X184658000Y-71374000D01*
X186182000Y-75438000D02*
X187960000Y-77216000D01*
X184658000Y-71374000D02*
X186182000Y-72898000D01*
%TO.N,/~{CS_ads}*%
X184912000Y-72390000D02*
X184912000Y-73406000D01*
X178562000Y-71882000D02*
X184404000Y-71882000D01*
X140012480Y-85792085D02*
X160214086Y-65590480D01*
X140012480Y-108296480D02*
X140012480Y-85792085D01*
X160214086Y-65590480D02*
X172270480Y-65590480D01*
X142460000Y-110744000D02*
X140012480Y-108296480D01*
X172270480Y-65590480D02*
X178562000Y-71882000D01*
X184404000Y-71882000D02*
X184912000Y-72390000D01*
%TO.N,/~{CS_sdc}*%
X140462000Y-106206000D02*
X140462000Y-85978283D01*
X160400283Y-66040000D02*
X168656000Y-66040000D01*
X169418000Y-69342000D02*
X168656000Y-70104000D01*
X169418000Y-66802000D02*
X169418000Y-69342000D01*
X140462000Y-85978283D02*
X160400283Y-66040000D01*
X168656000Y-66040000D02*
X169418000Y-66802000D01*
X168656000Y-70104000D02*
X168021000Y-70104000D01*
X142460000Y-108204000D02*
X140462000Y-106206000D01*
%TO.N,/~{CD_sdc}*%
X142460000Y-105664000D02*
X142460000Y-84616000D01*
X159512000Y-67564000D02*
X168021000Y-67564000D01*
X142460000Y-84616000D02*
X159512000Y-67564000D01*
D15*
%TO.N,/3V3_sdc*%
X187452000Y-111252000D02*
X187452000Y-98806000D01*
X185420000Y-113284000D02*
X187452000Y-111252000D01*
X171450000Y-82804000D02*
X168021000Y-82804000D01*
X183647000Y-113284000D02*
X185420000Y-113284000D01*
X187452000Y-98806000D02*
X171450000Y-82804000D01*
%TO.N,/3V3_ads*%
X183647000Y-115824000D02*
X219202000Y-115824000D01*
X219202000Y-102362000D02*
X217932000Y-102362000D01*
X220472000Y-114554000D02*
X220472000Y-103632000D01*
X220472000Y-103632000D02*
X219202000Y-102362000D01*
X219202000Y-115824000D02*
X220472000Y-114554000D01*
%TO.N,/GND*%
X185420000Y-110744000D02*
X186690000Y-109474000D01*
X186690000Y-99060000D02*
X180340000Y-92710000D01*
X183647000Y-110744000D02*
X185420000Y-110744000D01*
X180340000Y-92710000D02*
X162814000Y-92710000D01*
X186690000Y-109474000D02*
X186690000Y-99060000D01*
D16*
%TO.N,/MOSI*%
X202692000Y-76200000D02*
X202692000Y-74422000D01*
X184912000Y-87122000D02*
X191516000Y-80518000D01*
X198374000Y-80518000D02*
X202692000Y-76200000D01*
X168021000Y-72644000D02*
X173101717Y-72644000D01*
X173101717Y-72644000D02*
X184912000Y-84454283D01*
X184912000Y-84454283D02*
X184912000Y-87122000D01*
X191516000Y-80518000D02*
X198374000Y-80518000D01*
%TO.N,/MISO*%
X175006000Y-75184000D02*
X168021000Y-75184000D01*
X205232000Y-74422000D02*
X198686480Y-80967520D01*
X176530000Y-76708000D02*
X175006000Y-75184000D01*
X198686480Y-80967520D02*
X192590480Y-80967520D01*
X192590480Y-80967520D02*
X183642000Y-89916000D01*
X176530000Y-82804000D02*
X176530000Y-76708000D01*
X183642000Y-89916000D02*
X176530000Y-82804000D01*
%TO.N,/SCK*%
X192532000Y-74422000D02*
X192532000Y-75692000D01*
X192532000Y-75692000D02*
X186182000Y-82042000D01*
%TO.N,Net-(J3-Pad1)*%
X205232000Y-70612000D02*
X205232000Y-71882000D01*
X202692000Y-68072000D02*
X205232000Y-70612000D01*
X182885000Y-68072000D02*
X202692000Y-68072000D01*
%TO.N,/RST_nrf*%
X175260000Y-139446000D02*
X179583000Y-143769000D01*
X173160000Y-139446000D02*
X175260000Y-139446000D01*
X179583000Y-143769000D02*
X181107000Y-143769000D01*
%TO.N,/AREF_nrf*%
X174244000Y-134366000D02*
X181107000Y-141229000D01*
X173160000Y-134366000D02*
X174244000Y-134366000D01*
%TO.N,/A0_nrf*%
X177292000Y-134874000D02*
X181107000Y-138689000D01*
X177292000Y-133418000D02*
X177292000Y-134874000D01*
X173160000Y-129286000D02*
X177292000Y-133418000D01*
%TO.N,/A1_nrf*%
X177292000Y-130878000D02*
X177292000Y-132334000D01*
X173160000Y-126746000D02*
X177292000Y-130878000D01*
X177292000Y-132334000D02*
X181107000Y-136149000D01*
%TO.N,/A2_nrf*%
X177292000Y-128338000D02*
X177292000Y-129794000D01*
X173160000Y-124206000D02*
X177292000Y-128338000D01*
X177292000Y-129794000D02*
X181107000Y-133609000D01*
%TO.N,/A3_nrf*%
X177292000Y-127254000D02*
X181107000Y-131069000D01*
X173160000Y-121666000D02*
X177292000Y-125798000D01*
X177292000Y-125798000D02*
X177292000Y-127254000D01*
%TO.N,/A4_nrf*%
X173160000Y-119126000D02*
X177292000Y-123258000D01*
X177292000Y-124714000D02*
X181107000Y-128529000D01*
X177292000Y-123258000D02*
X177292000Y-124714000D01*
%TO.N,/A5_nrf*%
X177292000Y-120718000D02*
X177292000Y-122174000D01*
X177292000Y-122174000D02*
X181107000Y-125989000D01*
X173160000Y-116586000D02*
X177292000Y-120718000D01*
%TO.N,/RX_nrf*%
X173160000Y-106426000D02*
X177292000Y-110558000D01*
X177292000Y-119634000D02*
X181107000Y-123449000D01*
X177292000Y-110558000D02*
X177292000Y-119634000D01*
%TO.N,/TX_nrf*%
X173160000Y-103886000D02*
X177741520Y-108467520D01*
X177741520Y-108467520D02*
X177741520Y-117543520D01*
X177741520Y-117543520D02*
X181107000Y-120909000D01*
%TO.N,/BAT_nrf*%
X151033120Y-139796880D02*
X147061000Y-143769000D01*
X152840000Y-129286000D02*
X151033120Y-131092880D01*
X151033120Y-131092880D02*
X151033120Y-139796880D01*
X147061000Y-143769000D02*
X145288000Y-143769000D01*
%TO.N,/EN_nrf*%
X150583600Y-129002400D02*
X150583600Y-137706400D01*
X147061000Y-141229000D02*
X145288000Y-141229000D01*
X152840000Y-126746000D02*
X150583600Y-129002400D01*
X150583600Y-137706400D02*
X147061000Y-141229000D01*
%TD*%
M02*
