%TF.GenerationSoftware,KiCad,Pcbnew,6.0.4-1.fc35*%
%TF.CreationDate,2022-04-09T22:12:26+01:00*%
%TF.ProjectId,DevBoard,44657642-6f61-4726-942e-6b696361645f,rev?*%
%TF.SameCoordinates,Original*%
%TF.FileFunction,Legend,Top*%
%TF.FilePolarity,Positive*%
%FSLAX46Y46*%
G04 Gerber Fmt 4.6, Leading zero omitted, Abs format (unit mm)*
G04 Created by KiCad (PCBNEW 6.0.4-1.fc35) date 2022-04-09 22:12:26*
%MOMM*%
%LPD*%
G01*
G04 APERTURE LIST*
%ADD10C,0.150000*%
%ADD11C,0.120000*%
%ADD12C,1.524000*%
%ADD13R,1.700000X1.700000*%
%ADD14O,1.700000X1.700000*%
%ADD15C,3.810000*%
G04 APERTURE END LIST*
D10*
%TO.C,U3*%
X219202095Y-64984380D02*
X219202095Y-65793904D01*
X219249714Y-65889142D01*
X219297333Y-65936761D01*
X219392571Y-65984380D01*
X219583047Y-65984380D01*
X219678285Y-65936761D01*
X219725904Y-65889142D01*
X219773523Y-65793904D01*
X219773523Y-64984380D01*
X220154476Y-64984380D02*
X220773523Y-64984380D01*
X220440190Y-65365333D01*
X220583047Y-65365333D01*
X220678285Y-65412952D01*
X220725904Y-65460571D01*
X220773523Y-65555809D01*
X220773523Y-65793904D01*
X220725904Y-65889142D01*
X220678285Y-65936761D01*
X220583047Y-65984380D01*
X220297333Y-65984380D01*
X220202095Y-65936761D01*
X220154476Y-65889142D01*
%TO.C,J3*%
X184667380Y-68405333D02*
X185381666Y-68405333D01*
X185524523Y-68452952D01*
X185619761Y-68548190D01*
X185667380Y-68691047D01*
X185667380Y-68786285D01*
X184667380Y-68024380D02*
X184667380Y-67405333D01*
X185048333Y-67738666D01*
X185048333Y-67595809D01*
X185095952Y-67500571D01*
X185143571Y-67452952D01*
X185238809Y-67405333D01*
X185476904Y-67405333D01*
X185572142Y-67452952D01*
X185619761Y-67500571D01*
X185667380Y-67595809D01*
X185667380Y-67881523D01*
X185619761Y-67976761D01*
X185572142Y-68024380D01*
%TO.C,J4*%
X180773666Y-145551380D02*
X180773666Y-146265666D01*
X180726047Y-146408523D01*
X180630809Y-146503761D01*
X180487952Y-146551380D01*
X180392714Y-146551380D01*
X181678428Y-145884714D02*
X181678428Y-146551380D01*
X181440333Y-145503761D02*
X181202238Y-146218047D01*
X181821285Y-146218047D01*
%TO.C,U2*%
X161952380Y-117347904D02*
X162761904Y-117347904D01*
X162857142Y-117300285D01*
X162904761Y-117252666D01*
X162952380Y-117157428D01*
X162952380Y-116966952D01*
X162904761Y-116871714D01*
X162857142Y-116824095D01*
X162761904Y-116776476D01*
X161952380Y-116776476D01*
X162047619Y-116347904D02*
X162000000Y-116300285D01*
X161952380Y-116205047D01*
X161952380Y-115966952D01*
X162000000Y-115871714D01*
X162047619Y-115824095D01*
X162142857Y-115776476D01*
X162238095Y-115776476D01*
X162380952Y-115824095D01*
X162952380Y-116395523D01*
X162952380Y-115776476D01*
%TO.C,J1*%
X143396666Y-120146380D02*
X143396666Y-120860666D01*
X143349047Y-121003523D01*
X143253809Y-121098761D01*
X143110952Y-121146380D01*
X143015714Y-121146380D01*
X144396666Y-121146380D02*
X143825238Y-121146380D01*
X144110952Y-121146380D02*
X144110952Y-120146380D01*
X144015714Y-120289238D01*
X143920476Y-120384476D01*
X143825238Y-120432095D01*
%TO.C,J5*%
X144954666Y-145551380D02*
X144954666Y-146265666D01*
X144907047Y-146408523D01*
X144811809Y-146503761D01*
X144668952Y-146551380D01*
X144573714Y-146551380D01*
X145907047Y-145551380D02*
X145430857Y-145551380D01*
X145383238Y-146027571D01*
X145430857Y-145979952D01*
X145526095Y-145932333D01*
X145764190Y-145932333D01*
X145859428Y-145979952D01*
X145907047Y-146027571D01*
X145954666Y-146122809D01*
X145954666Y-146360904D01*
X145907047Y-146456142D01*
X145859428Y-146503761D01*
X145764190Y-146551380D01*
X145526095Y-146551380D01*
X145430857Y-146503761D01*
X145383238Y-146456142D01*
%TO.C,U1*%
X140462095Y-62190380D02*
X140462095Y-62999904D01*
X140509714Y-63095142D01*
X140557333Y-63142761D01*
X140652571Y-63190380D01*
X140843047Y-63190380D01*
X140938285Y-63142761D01*
X140985904Y-63095142D01*
X141033523Y-62999904D01*
X141033523Y-62190380D01*
X142033523Y-63190380D02*
X141462095Y-63190380D01*
X141747809Y-63190380D02*
X141747809Y-62190380D01*
X141652571Y-62333238D01*
X141557333Y-62428476D01*
X141462095Y-62476095D01*
%TO.C,J2*%
X182043666Y-117606380D02*
X182043666Y-118320666D01*
X181996047Y-118463523D01*
X181900809Y-118558761D01*
X181757952Y-118606380D01*
X181662714Y-118606380D01*
X182472238Y-117701619D02*
X182519857Y-117654000D01*
X182615095Y-117606380D01*
X182853190Y-117606380D01*
X182948428Y-117654000D01*
X182996047Y-117701619D01*
X183043666Y-117796857D01*
X183043666Y-117892095D01*
X182996047Y-118034952D01*
X182424619Y-118606380D01*
X183043666Y-118606380D01*
D11*
%TO.C,U3*%
X228172000Y-66942000D02*
X228172000Y-147942000D01*
X188672000Y-66942000D02*
X228172000Y-66942000D01*
X188672000Y-147942000D02*
X188672000Y-66942000D01*
X188672000Y-147942000D02*
X228172000Y-147942000D01*
%TO.C,J3*%
X181615000Y-66742000D02*
X181615000Y-69402000D01*
X184215000Y-66742000D02*
X184215000Y-68072000D01*
X181615000Y-69402000D02*
X179015000Y-69402000D01*
X182885000Y-66742000D02*
X184215000Y-66742000D01*
X179015000Y-66742000D02*
X179015000Y-69402000D01*
X181615000Y-66742000D02*
X179015000Y-66742000D01*
%TO.C,J4*%
X182437000Y-143769000D02*
X182437000Y-145099000D01*
X182437000Y-145099000D02*
X181107000Y-145099000D01*
X179777000Y-142499000D02*
X179777000Y-119579000D01*
X182437000Y-142499000D02*
X179777000Y-142499000D01*
X182437000Y-142499000D02*
X182437000Y-119579000D01*
X182437000Y-119579000D02*
X179777000Y-119579000D01*
%TO.C,J1*%
X146330000Y-117094000D02*
X143730000Y-117094000D01*
X143730000Y-117094000D02*
X143730000Y-119694000D01*
X146330000Y-118364000D02*
X146330000Y-119694000D01*
X146330000Y-117094000D02*
X146330000Y-104334000D01*
X141130000Y-119694000D02*
X141130000Y-104334000D01*
X146330000Y-119694000D02*
X145000000Y-119694000D01*
X143730000Y-119694000D02*
X141130000Y-119694000D01*
X146330000Y-104334000D02*
X141130000Y-104334000D01*
%TO.C,J5*%
X146618000Y-142499000D02*
X146618000Y-127199000D01*
X146618000Y-143769000D02*
X146618000Y-145099000D01*
X146618000Y-145099000D02*
X145288000Y-145099000D01*
X146618000Y-142499000D02*
X143958000Y-142499000D01*
X146618000Y-127199000D02*
X143958000Y-127199000D01*
X143958000Y-142499000D02*
X143958000Y-127199000D01*
%TO.C,U1*%
X169545000Y-89154000D02*
X169545000Y-63754000D01*
X137795000Y-89154000D02*
X169545000Y-89154000D01*
X137795000Y-63754000D02*
X137795000Y-89154000D01*
X169545000Y-63754000D02*
X137795000Y-63754000D01*
%TO.C,J2*%
X184977000Y-101794000D02*
X179777000Y-101794000D01*
X184977000Y-117154000D02*
X183647000Y-117154000D01*
X182377000Y-117154000D02*
X179777000Y-117154000D01*
X184977000Y-114554000D02*
X184977000Y-101794000D01*
X179777000Y-117154000D02*
X179777000Y-101794000D01*
X184977000Y-114554000D02*
X182377000Y-114554000D01*
X184977000Y-115824000D02*
X184977000Y-117154000D01*
X182377000Y-114554000D02*
X182377000Y-117154000D01*
%TD*%
%LPC*%
D12*
%TO.C,U3*%
X217932000Y-102362000D03*
X217932000Y-104902000D03*
X217932000Y-107442000D03*
X217932000Y-109982000D03*
X217932000Y-112522000D03*
X215392000Y-112522000D03*
X215392000Y-109982000D03*
X215392000Y-107442000D03*
X215392000Y-104902000D03*
X215392000Y-102362000D03*
X189992000Y-71882000D03*
X192532000Y-71882000D03*
X195072000Y-71882000D03*
X197612000Y-71882000D03*
X200152000Y-71882000D03*
X202692000Y-71882000D03*
X205232000Y-71882000D03*
X207772000Y-71882000D03*
X210312000Y-71882000D03*
X212852000Y-71882000D03*
X212852000Y-74422000D03*
X210312000Y-74422000D03*
X207772000Y-74422000D03*
X205232000Y-74422000D03*
X202692000Y-74422000D03*
X200152000Y-74422000D03*
X197612000Y-74422000D03*
X195072000Y-74422000D03*
X192532000Y-74422000D03*
X189992000Y-74422000D03*
X189992000Y-140462000D03*
X192532000Y-140462000D03*
X195072000Y-140462000D03*
X197612000Y-140462000D03*
X200152000Y-140462000D03*
X202692000Y-140462000D03*
X205232000Y-140462000D03*
X207772000Y-140462000D03*
X210312000Y-140462000D03*
X212852000Y-140462000D03*
X212852000Y-143002000D03*
X210312000Y-143002000D03*
X207772000Y-143002000D03*
X205232000Y-143002000D03*
X202692000Y-143002000D03*
X200152000Y-143002000D03*
X197612000Y-143002000D03*
X195072000Y-143002000D03*
X192532000Y-143002000D03*
X189992000Y-143002000D03*
%TD*%
D13*
%TO.C,J3*%
X182885000Y-68072000D03*
D14*
X180345000Y-68072000D03*
%TD*%
%TO.C,J4*%
X181107000Y-120909000D03*
X181107000Y-123449000D03*
X181107000Y-125989000D03*
X181107000Y-128529000D03*
X181107000Y-131069000D03*
X181107000Y-133609000D03*
X181107000Y-136149000D03*
X181107000Y-138689000D03*
X181107000Y-141229000D03*
D13*
X181107000Y-143769000D03*
%TD*%
D15*
%TO.C,U2*%
X154110000Y-143256000D03*
X154110000Y-97536000D03*
X171890000Y-97536000D03*
X171890000Y-143256000D03*
D12*
X152840000Y-129286000D03*
X152840000Y-126746000D03*
X152840000Y-124206000D03*
X152840000Y-121666000D03*
X152840000Y-119126000D03*
X152840000Y-116586000D03*
X152840000Y-114046000D03*
X152840000Y-111506000D03*
X152840000Y-108966000D03*
X152840000Y-106426000D03*
X152840000Y-103886000D03*
X152840000Y-101346000D03*
X173160000Y-101346000D03*
X173160000Y-103886000D03*
X173160000Y-106426000D03*
X173160000Y-108966000D03*
X173160000Y-111506000D03*
X173160000Y-114046000D03*
X173160000Y-116586000D03*
X173160000Y-119126000D03*
X173160000Y-121666000D03*
X173160000Y-124206000D03*
X173160000Y-126746000D03*
X173160000Y-129286000D03*
X173160000Y-131826000D03*
X173160000Y-134366000D03*
X173160000Y-136906000D03*
X173160000Y-139446000D03*
%TD*%
D13*
%TO.C,J1*%
X145000000Y-118364000D03*
D14*
X142460000Y-118364000D03*
X145000000Y-115824000D03*
X142460000Y-115824000D03*
X145000000Y-113284000D03*
X142460000Y-113284000D03*
X145000000Y-110744000D03*
X142460000Y-110744000D03*
X145000000Y-108204000D03*
X142460000Y-108204000D03*
X145000000Y-105664000D03*
X142460000Y-105664000D03*
%TD*%
D13*
%TO.C,J5*%
X145288000Y-143769000D03*
D14*
X145288000Y-141229000D03*
X145288000Y-138689000D03*
X145288000Y-136149000D03*
X145288000Y-133609000D03*
X145288000Y-131069000D03*
X145288000Y-128529000D03*
%TD*%
D12*
%TO.C,U1*%
X168021000Y-85344000D03*
X168021000Y-82804000D03*
X168021000Y-80264000D03*
X168021000Y-77724000D03*
X168021000Y-75184000D03*
X168021000Y-72644000D03*
X168021000Y-70104000D03*
X168021000Y-67564000D03*
%TD*%
D13*
%TO.C,J2*%
X183647000Y-115824000D03*
D14*
X181107000Y-115824000D03*
X183647000Y-113284000D03*
X181107000Y-113284000D03*
X183647000Y-110744000D03*
X181107000Y-110744000D03*
X183647000Y-108204000D03*
X181107000Y-108204000D03*
X183647000Y-105664000D03*
X181107000Y-105664000D03*
X183647000Y-103124000D03*
X181107000Y-103124000D03*
%TD*%
M02*
