%FSLAX45Y45*%
G04 Gerber Fmt 4.5, Leading zero omitted, Abs format (unit mm)*
G04 Created by KiCad (PCBNEW 6.0.4-1.fc35) date 2022-04-10 20:29:43*
%MOMM*%
%LPD*%
G01*
G04 APERTURE LIST*
%TA.AperFunction,Profile*%
%ADD10C,0.100000*%
%TD*%
%ADD11C,0.200000*%
G04 APERTURE END LIST*
D10*
X13750000Y-6100000D02*
X22850000Y-6100000D01*
X22850000Y-6100000D02*
X22850000Y-14900000D01*
X22850000Y-14900000D02*
X13750000Y-14900000D01*
X13750000Y-14900000D02*
X13750000Y-6100000D01*
D11*
X14002619Y-15215476D02*
X14002619Y-15015476D01*
X14050238Y-15015476D01*
X14078809Y-15025000D01*
X14097857Y-15044048D01*
X14107381Y-15063095D01*
X14116905Y-15101190D01*
X14116905Y-15129762D01*
X14107381Y-15167857D01*
X14097857Y-15186905D01*
X14078809Y-15205952D01*
X14050238Y-15215476D01*
X14002619Y-15215476D01*
X14202619Y-15215476D02*
X14202619Y-15082143D01*
X14202619Y-15120238D02*
X14212143Y-15101190D01*
X14221667Y-15091667D01*
X14240714Y-15082143D01*
X14259762Y-15082143D01*
X14326428Y-15215476D02*
X14326428Y-15082143D01*
X14326428Y-15015476D02*
X14316905Y-15025000D01*
X14326428Y-15034524D01*
X14335952Y-15025000D01*
X14326428Y-15015476D01*
X14326428Y-15034524D01*
X14450238Y-15215476D02*
X14431190Y-15205952D01*
X14421667Y-15186905D01*
X14421667Y-15015476D01*
X14555000Y-15215476D02*
X14535952Y-15205952D01*
X14526428Y-15186905D01*
X14526428Y-15015476D01*
X14783571Y-15215476D02*
X14783571Y-15015476D01*
X14850238Y-15158333D01*
X14916905Y-15015476D01*
X14916905Y-15215476D01*
X15097857Y-15215476D02*
X15097857Y-15110714D01*
X15088333Y-15091667D01*
X15069286Y-15082143D01*
X15031190Y-15082143D01*
X15012143Y-15091667D01*
X15097857Y-15205952D02*
X15078809Y-15215476D01*
X15031190Y-15215476D01*
X15012143Y-15205952D01*
X15002619Y-15186905D01*
X15002619Y-15167857D01*
X15012143Y-15148809D01*
X15031190Y-15139286D01*
X15078809Y-15139286D01*
X15097857Y-15129762D01*
X15193095Y-15082143D02*
X15193095Y-15282143D01*
X15193095Y-15091667D02*
X15212143Y-15082143D01*
X15250238Y-15082143D01*
X15269286Y-15091667D01*
X15278809Y-15101190D01*
X15288333Y-15120238D01*
X15288333Y-15177381D01*
X15278809Y-15196428D01*
X15269286Y-15205952D01*
X15250238Y-15215476D01*
X15212143Y-15215476D01*
X15193095Y-15205952D01*
X15374048Y-15196428D02*
X15383571Y-15205952D01*
X15374048Y-15215476D01*
X15364524Y-15205952D01*
X15374048Y-15196428D01*
X15374048Y-15215476D01*
X15374048Y-15091667D02*
X15383571Y-15101190D01*
X15374048Y-15110714D01*
X15364524Y-15101190D01*
X15374048Y-15091667D01*
X15374048Y-15110714D01*
M02*
