%FSLAX45Y45*%
G04 Gerber Fmt 4.5, Leading zero omitted, Abs format (unit mm)*
G04 Created by KiCad (PCBNEW 6.0.4-1.fc35) date 2022-04-10 20:29:43*
%MOMM*%
%LPD*%
G01*
G04 APERTURE LIST*
%TA.AperFunction,Profile*%
%ADD10C,0.100000*%
%TD*%
%ADD11C,0.200000*%
%ADD12C,0.040000*%
%ADD13C,0.076200*%
%ADD14C,0.100000*%
%ADD15C,0.101600*%
%ADD16C,0.254000*%
G04 APERTURE END LIST*
D10*
X13750000Y-6100000D02*
X22850000Y-6100000D01*
X22850000Y-6100000D02*
X22850000Y-14900000D01*
X22850000Y-14900000D02*
X13750000Y-14900000D01*
X13750000Y-14900000D02*
X13750000Y-6100000D01*
D11*
D12*
X16261400Y-9251000D02*
X16301400Y-9291000D01*
X16301400Y-9251000D02*
X16261400Y-9291000D01*
X18344200Y-8971600D02*
X18384200Y-9011600D01*
X18384200Y-8971600D02*
X18344200Y-9011600D01*
X18471200Y-7320600D02*
X18511200Y-7360600D01*
X18511200Y-7320600D02*
X18471200Y-7360600D01*
X18471200Y-8692200D02*
X18511200Y-8732200D01*
X18511200Y-8692200D02*
X18471200Y-8732200D01*
X18598200Y-8184200D02*
X18638200Y-8224200D01*
X18638200Y-8184200D02*
X18598200Y-8224200D01*
X18776000Y-7701600D02*
X18816000Y-7741600D01*
X18816000Y-7701600D02*
X18776000Y-7741600D01*
D13*
X16840200Y-6756400D02*
G75*
G03*
X16840200Y-6756400I-38100J0D01*
G01*
X16840200Y-7010400D02*
G75*
G03*
X16840200Y-7010400I-38100J0D01*
G01*
X16840200Y-7264400D02*
G75*
G03*
X16840200Y-7264400I-38100J0D01*
G01*
X16840200Y-7518400D02*
G75*
G03*
X16840200Y-7518400I-38100J0D01*
G01*
X16840200Y-7772400D02*
G75*
G03*
X16840200Y-7772400I-38100J0D01*
G01*
X16840200Y-8026400D02*
G75*
G03*
X16840200Y-8026400I-38100J0D01*
G01*
X16840200Y-8280400D02*
G75*
G03*
X16840200Y-8280400I-38100J0D01*
G01*
X16840200Y-8534400D02*
G75*
G03*
X16840200Y-8534400I-38100J0D01*
G01*
X19037300Y-7188200D02*
G75*
G03*
X19037300Y-7188200I-38100J0D01*
G01*
X19037300Y-7442200D02*
G75*
G03*
X19037300Y-7442200I-38100J0D01*
G01*
X19037300Y-14046200D02*
G75*
G03*
X19037300Y-14046200I-38100J0D01*
G01*
X19037300Y-14300200D02*
G75*
G03*
X19037300Y-14300200I-38100J0D01*
G01*
X19291300Y-7188200D02*
G75*
G03*
X19291300Y-7188200I-38100J0D01*
G01*
X19291300Y-7442200D02*
G75*
G03*
X19291300Y-7442200I-38100J0D01*
G01*
X19291300Y-14046200D02*
G75*
G03*
X19291300Y-14046200I-38100J0D01*
G01*
X19291300Y-14300200D02*
G75*
G03*
X19291300Y-14300200I-38100J0D01*
G01*
X19545300Y-7188200D02*
G75*
G03*
X19545300Y-7188200I-38100J0D01*
G01*
X19545300Y-7442200D02*
G75*
G03*
X19545300Y-7442200I-38100J0D01*
G01*
X19545300Y-14046200D02*
G75*
G03*
X19545300Y-14046200I-38100J0D01*
G01*
X19545300Y-14300200D02*
G75*
G03*
X19545300Y-14300200I-38100J0D01*
G01*
X19799300Y-7188200D02*
G75*
G03*
X19799300Y-7188200I-38100J0D01*
G01*
X19799300Y-7442200D02*
G75*
G03*
X19799300Y-7442200I-38100J0D01*
G01*
X19799300Y-14046200D02*
G75*
G03*
X19799300Y-14046200I-38100J0D01*
G01*
X19799300Y-14300200D02*
G75*
G03*
X19799300Y-14300200I-38100J0D01*
G01*
X20053300Y-7188200D02*
G75*
G03*
X20053300Y-7188200I-38100J0D01*
G01*
X20053300Y-7442200D02*
G75*
G03*
X20053300Y-7442200I-38100J0D01*
G01*
X20053300Y-14046200D02*
G75*
G03*
X20053300Y-14046200I-38100J0D01*
G01*
X20053300Y-14300200D02*
G75*
G03*
X20053300Y-14300200I-38100J0D01*
G01*
X20307300Y-7188200D02*
G75*
G03*
X20307300Y-7188200I-38100J0D01*
G01*
X20307300Y-7442200D02*
G75*
G03*
X20307300Y-7442200I-38100J0D01*
G01*
X20307300Y-14046200D02*
G75*
G03*
X20307300Y-14046200I-38100J0D01*
G01*
X20307300Y-14300200D02*
G75*
G03*
X20307300Y-14300200I-38100J0D01*
G01*
X20561300Y-7188200D02*
G75*
G03*
X20561300Y-7188200I-38100J0D01*
G01*
X20561300Y-7442200D02*
G75*
G03*
X20561300Y-7442200I-38100J0D01*
G01*
X20561300Y-14046200D02*
G75*
G03*
X20561300Y-14046200I-38100J0D01*
G01*
X20561300Y-14300200D02*
G75*
G03*
X20561300Y-14300200I-38100J0D01*
G01*
X20815300Y-7188200D02*
G75*
G03*
X20815300Y-7188200I-38100J0D01*
G01*
X20815300Y-7442200D02*
G75*
G03*
X20815300Y-7442200I-38100J0D01*
G01*
X20815300Y-14046200D02*
G75*
G03*
X20815300Y-14046200I-38100J0D01*
G01*
X20815300Y-14300200D02*
G75*
G03*
X20815300Y-14300200I-38100J0D01*
G01*
X21069300Y-7188200D02*
G75*
G03*
X21069300Y-7188200I-38100J0D01*
G01*
X21069300Y-7442200D02*
G75*
G03*
X21069300Y-7442200I-38100J0D01*
G01*
X21069300Y-14046200D02*
G75*
G03*
X21069300Y-14046200I-38100J0D01*
G01*
X21069300Y-14300200D02*
G75*
G03*
X21069300Y-14300200I-38100J0D01*
G01*
X21323300Y-7188200D02*
G75*
G03*
X21323300Y-7188200I-38100J0D01*
G01*
X21323300Y-7442200D02*
G75*
G03*
X21323300Y-7442200I-38100J0D01*
G01*
X21323300Y-14046200D02*
G75*
G03*
X21323300Y-14046200I-38100J0D01*
G01*
X21323300Y-14300200D02*
G75*
G03*
X21323300Y-14300200I-38100J0D01*
G01*
X21577300Y-10236200D02*
G75*
G03*
X21577300Y-10236200I-38100J0D01*
G01*
X21577300Y-10490200D02*
G75*
G03*
X21577300Y-10490200I-38100J0D01*
G01*
X21577300Y-10744200D02*
G75*
G03*
X21577300Y-10744200I-38100J0D01*
G01*
X21577300Y-10998200D02*
G75*
G03*
X21577300Y-10998200I-38100J0D01*
G01*
X21577300Y-11252200D02*
G75*
G03*
X21577300Y-11252200I-38100J0D01*
G01*
X21831300Y-10236200D02*
G75*
G03*
X21831300Y-10236200I-38100J0D01*
G01*
X21831300Y-10490200D02*
G75*
G03*
X21831300Y-10490200I-38100J0D01*
G01*
X21831300Y-10744200D02*
G75*
G03*
X21831300Y-10744200I-38100J0D01*
G01*
X21831300Y-10998200D02*
G75*
G03*
X21831300Y-10998200I-38100J0D01*
G01*
X21831300Y-11252200D02*
G75*
G03*
X21831300Y-11252200I-38100J0D01*
G01*
D14*
X14246000Y-10516400D02*
X14246000Y-10616400D01*
X14196000Y-10566400D02*
X14296000Y-10566400D01*
X14246000Y-10770400D02*
X14246000Y-10870400D01*
X14196000Y-10820400D02*
X14296000Y-10820400D01*
X14246000Y-11024400D02*
X14246000Y-11124400D01*
X14196000Y-11074400D02*
X14296000Y-11074400D01*
X14246000Y-11278400D02*
X14246000Y-11378400D01*
X14196000Y-11328400D02*
X14296000Y-11328400D01*
X14246000Y-11532400D02*
X14246000Y-11632400D01*
X14196000Y-11582400D02*
X14296000Y-11582400D01*
X14246000Y-11786400D02*
X14246000Y-11886400D01*
X14196000Y-11836400D02*
X14296000Y-11836400D01*
X14500000Y-10516400D02*
X14500000Y-10616400D01*
X14450000Y-10566400D02*
X14550000Y-10566400D01*
X14500000Y-10770400D02*
X14500000Y-10870400D01*
X14450000Y-10820400D02*
X14550000Y-10820400D01*
X14500000Y-11024400D02*
X14500000Y-11124400D01*
X14450000Y-11074400D02*
X14550000Y-11074400D01*
X14500000Y-11278400D02*
X14500000Y-11378400D01*
X14450000Y-11328400D02*
X14550000Y-11328400D01*
X14500000Y-11532400D02*
X14500000Y-11632400D01*
X14450000Y-11582400D02*
X14550000Y-11582400D01*
X14500000Y-11786400D02*
X14500000Y-11886400D01*
X14450000Y-11836400D02*
X14550000Y-11836400D01*
X14528800Y-12802900D02*
X14528800Y-12902900D01*
X14478800Y-12852900D02*
X14578800Y-12852900D01*
X14528800Y-13056900D02*
X14528800Y-13156900D01*
X14478800Y-13106900D02*
X14578800Y-13106900D01*
X14528800Y-13310900D02*
X14528800Y-13410900D01*
X14478800Y-13360900D02*
X14578800Y-13360900D01*
X14528800Y-13564900D02*
X14528800Y-13664900D01*
X14478800Y-13614900D02*
X14578800Y-13614900D01*
X14528800Y-13818900D02*
X14528800Y-13918900D01*
X14478800Y-13868900D02*
X14578800Y-13868900D01*
X14528800Y-14072900D02*
X14528800Y-14172900D01*
X14478800Y-14122900D02*
X14578800Y-14122900D01*
X14528800Y-14326900D02*
X14528800Y-14426900D01*
X14478800Y-14376900D02*
X14578800Y-14376900D01*
X18034500Y-6757200D02*
X18034500Y-6857200D01*
X17984500Y-6807200D02*
X18084500Y-6807200D01*
X18110700Y-10262400D02*
X18110700Y-10362400D01*
X18060700Y-10312400D02*
X18160700Y-10312400D01*
X18110700Y-10516400D02*
X18110700Y-10616400D01*
X18060700Y-10566400D02*
X18160700Y-10566400D01*
X18110700Y-10770400D02*
X18110700Y-10870400D01*
X18060700Y-10820400D02*
X18160700Y-10820400D01*
X18110700Y-11024400D02*
X18110700Y-11124400D01*
X18060700Y-11074400D02*
X18160700Y-11074400D01*
X18110700Y-11278400D02*
X18110700Y-11378400D01*
X18060700Y-11328400D02*
X18160700Y-11328400D01*
X18110700Y-11532400D02*
X18110700Y-11632400D01*
X18060700Y-11582400D02*
X18160700Y-11582400D01*
X18110700Y-12040900D02*
X18110700Y-12140900D01*
X18060700Y-12090900D02*
X18160700Y-12090900D01*
X18110700Y-12294900D02*
X18110700Y-12394900D01*
X18060700Y-12344900D02*
X18160700Y-12344900D01*
X18110700Y-12548900D02*
X18110700Y-12648900D01*
X18060700Y-12598900D02*
X18160700Y-12598900D01*
X18110700Y-12802900D02*
X18110700Y-12902900D01*
X18060700Y-12852900D02*
X18160700Y-12852900D01*
X18110700Y-13056900D02*
X18110700Y-13156900D01*
X18060700Y-13106900D02*
X18160700Y-13106900D01*
X18110700Y-13310900D02*
X18110700Y-13410900D01*
X18060700Y-13360900D02*
X18160700Y-13360900D01*
X18110700Y-13564900D02*
X18110700Y-13664900D01*
X18060700Y-13614900D02*
X18160700Y-13614900D01*
X18110700Y-13818900D02*
X18110700Y-13918900D01*
X18060700Y-13868900D02*
X18160700Y-13868900D01*
X18110700Y-14072900D02*
X18110700Y-14172900D01*
X18060700Y-14122900D02*
X18160700Y-14122900D01*
X18110700Y-14326900D02*
X18110700Y-14426900D01*
X18060700Y-14376900D02*
X18160700Y-14376900D01*
X18288500Y-6757200D02*
X18288500Y-6857200D01*
X18238500Y-6807200D02*
X18338500Y-6807200D01*
X18364700Y-10262400D02*
X18364700Y-10362400D01*
X18314700Y-10312400D02*
X18414700Y-10312400D01*
X18364700Y-10516400D02*
X18364700Y-10616400D01*
X18314700Y-10566400D02*
X18414700Y-10566400D01*
X18364700Y-10770400D02*
X18364700Y-10870400D01*
X18314700Y-10820400D02*
X18414700Y-10820400D01*
X18364700Y-11024400D02*
X18364700Y-11124400D01*
X18314700Y-11074400D02*
X18414700Y-11074400D01*
X18364700Y-11278400D02*
X18364700Y-11378400D01*
X18314700Y-11328400D02*
X18414700Y-11328400D01*
X18364700Y-11532400D02*
X18364700Y-11632400D01*
X18314700Y-11582400D02*
X18414700Y-11582400D01*
D15*
X15319921Y-10170521D02*
X15319921Y-10098679D01*
X15248079Y-10098679D01*
X15248079Y-10170521D01*
X15319921Y-10170521D01*
X15319921Y-10424521D02*
X15319921Y-10352679D01*
X15248079Y-10352679D01*
X15248079Y-10424521D01*
X15319921Y-10424521D01*
X15319921Y-10678521D02*
X15319921Y-10606679D01*
X15248079Y-10606679D01*
X15248079Y-10678521D01*
X15319921Y-10678521D01*
X15319921Y-10932521D02*
X15319921Y-10860679D01*
X15248079Y-10860679D01*
X15248079Y-10932521D01*
X15319921Y-10932521D01*
X15319921Y-11186521D02*
X15319921Y-11114679D01*
X15248079Y-11114679D01*
X15248079Y-11186521D01*
X15319921Y-11186521D01*
X15319921Y-11440521D02*
X15319921Y-11368679D01*
X15248079Y-11368679D01*
X15248079Y-11440521D01*
X15319921Y-11440521D01*
X15319921Y-11694521D02*
X15319921Y-11622679D01*
X15248079Y-11622679D01*
X15248079Y-11694521D01*
X15319921Y-11694521D01*
X15319921Y-11948521D02*
X15319921Y-11876679D01*
X15248079Y-11876679D01*
X15248079Y-11948521D01*
X15319921Y-11948521D01*
X15319921Y-12202521D02*
X15319921Y-12130679D01*
X15248079Y-12130679D01*
X15248079Y-12202521D01*
X15319921Y-12202521D01*
X15319921Y-12456521D02*
X15319921Y-12384679D01*
X15248079Y-12384679D01*
X15248079Y-12456521D01*
X15319921Y-12456521D01*
X15319921Y-12710521D02*
X15319921Y-12638679D01*
X15248079Y-12638679D01*
X15248079Y-12710521D01*
X15319921Y-12710521D01*
X15319921Y-12964521D02*
X15319921Y-12892679D01*
X15248079Y-12892679D01*
X15248079Y-12964521D01*
X15319921Y-12964521D01*
X17351921Y-10170521D02*
X17351921Y-10098679D01*
X17280079Y-10098679D01*
X17280079Y-10170521D01*
X17351921Y-10170521D01*
X17351921Y-10424521D02*
X17351921Y-10352679D01*
X17280079Y-10352679D01*
X17280079Y-10424521D01*
X17351921Y-10424521D01*
X17351921Y-10678521D02*
X17351921Y-10606679D01*
X17280079Y-10606679D01*
X17280079Y-10678521D01*
X17351921Y-10678521D01*
X17351921Y-10932521D02*
X17351921Y-10860679D01*
X17280079Y-10860679D01*
X17280079Y-10932521D01*
X17351921Y-10932521D01*
X17351921Y-11186521D02*
X17351921Y-11114679D01*
X17280079Y-11114679D01*
X17280079Y-11186521D01*
X17351921Y-11186521D01*
X17351921Y-11440521D02*
X17351921Y-11368679D01*
X17280079Y-11368679D01*
X17280079Y-11440521D01*
X17351921Y-11440521D01*
X17351921Y-11694521D02*
X17351921Y-11622679D01*
X17280079Y-11622679D01*
X17280079Y-11694521D01*
X17351921Y-11694521D01*
X17351921Y-11948521D02*
X17351921Y-11876679D01*
X17280079Y-11876679D01*
X17280079Y-11948521D01*
X17351921Y-11948521D01*
X17351921Y-12202521D02*
X17351921Y-12130679D01*
X17280079Y-12130679D01*
X17280079Y-12202521D01*
X17351921Y-12202521D01*
X17351921Y-12456521D02*
X17351921Y-12384679D01*
X17280079Y-12384679D01*
X17280079Y-12456521D01*
X17351921Y-12456521D01*
X17351921Y-12710521D02*
X17351921Y-12638679D01*
X17280079Y-12638679D01*
X17280079Y-12710521D01*
X17351921Y-12710521D01*
X17351921Y-12964521D02*
X17351921Y-12892679D01*
X17280079Y-12892679D01*
X17280079Y-12964521D01*
X17351921Y-12964521D01*
X17351921Y-13218521D02*
X17351921Y-13146679D01*
X17280079Y-13146679D01*
X17280079Y-13218521D01*
X17351921Y-13218521D01*
X17351921Y-13472521D02*
X17351921Y-13400679D01*
X17280079Y-13400679D01*
X17280079Y-13472521D01*
X17351921Y-13472521D01*
X17351921Y-13726521D02*
X17351921Y-13654679D01*
X17280079Y-13654679D01*
X17280079Y-13726521D01*
X17351921Y-13726521D01*
X17351921Y-13980521D02*
X17351921Y-13908679D01*
X17280079Y-13908679D01*
X17280079Y-13980521D01*
X17351921Y-13980521D01*
D16*
X15411000Y-9880600D02*
X15538000Y-9753600D01*
X15411000Y-9626600D01*
X15284000Y-9753600D01*
X15411000Y-9880600D01*
X15411000Y-14452600D02*
X15538000Y-14325600D01*
X15411000Y-14198600D01*
X15284000Y-14325600D01*
X15411000Y-14452600D01*
X17189000Y-9880600D02*
X17316000Y-9753600D01*
X17189000Y-9626600D01*
X17062000Y-9753600D01*
X17189000Y-9880600D01*
X17189000Y-14452600D02*
X17316000Y-14325600D01*
X17189000Y-14198600D01*
X17062000Y-14325600D01*
X17189000Y-14452600D01*
D11*
X14002619Y-15215476D02*
X14002619Y-15015476D01*
X14050238Y-15015476D01*
X14078809Y-15025000D01*
X14097857Y-15044048D01*
X14107381Y-15063095D01*
X14116905Y-15101190D01*
X14116905Y-15129762D01*
X14107381Y-15167857D01*
X14097857Y-15186905D01*
X14078809Y-15205952D01*
X14050238Y-15215476D01*
X14002619Y-15215476D01*
X14202619Y-15215476D02*
X14202619Y-15082143D01*
X14202619Y-15120238D02*
X14212143Y-15101190D01*
X14221667Y-15091667D01*
X14240714Y-15082143D01*
X14259762Y-15082143D01*
X14326428Y-15215476D02*
X14326428Y-15082143D01*
X14326428Y-15015476D02*
X14316905Y-15025000D01*
X14326428Y-15034524D01*
X14335952Y-15025000D01*
X14326428Y-15015476D01*
X14326428Y-15034524D01*
X14450238Y-15215476D02*
X14431190Y-15205952D01*
X14421667Y-15186905D01*
X14421667Y-15015476D01*
X14555000Y-15215476D02*
X14535952Y-15205952D01*
X14526428Y-15186905D01*
X14526428Y-15015476D01*
X14783571Y-15215476D02*
X14783571Y-15015476D01*
X14850238Y-15158333D01*
X14916905Y-15015476D01*
X14916905Y-15215476D01*
X15097857Y-15215476D02*
X15097857Y-15110714D01*
X15088333Y-15091667D01*
X15069286Y-15082143D01*
X15031190Y-15082143D01*
X15012143Y-15091667D01*
X15097857Y-15205952D02*
X15078809Y-15215476D01*
X15031190Y-15215476D01*
X15012143Y-15205952D01*
X15002619Y-15186905D01*
X15002619Y-15167857D01*
X15012143Y-15148809D01*
X15031190Y-15139286D01*
X15078809Y-15139286D01*
X15097857Y-15129762D01*
X15193095Y-15082143D02*
X15193095Y-15282143D01*
X15193095Y-15091667D02*
X15212143Y-15082143D01*
X15250238Y-15082143D01*
X15269286Y-15091667D01*
X15278809Y-15101190D01*
X15288333Y-15120238D01*
X15288333Y-15177381D01*
X15278809Y-15196428D01*
X15269286Y-15205952D01*
X15250238Y-15215476D01*
X15212143Y-15215476D01*
X15193095Y-15205952D01*
X15374048Y-15196428D02*
X15383571Y-15205952D01*
X15374048Y-15215476D01*
X15364524Y-15205952D01*
X15374048Y-15196428D01*
X15374048Y-15215476D01*
X15374048Y-15091667D02*
X15383571Y-15101190D01*
X15374048Y-15110714D01*
X15364524Y-15101190D01*
X15374048Y-15091667D01*
X15374048Y-15110714D01*
D12*
X13705000Y-15525000D02*
X13745000Y-15565000D01*
X13745000Y-15525000D02*
X13705000Y-15565000D01*
D11*
X14040714Y-15435476D02*
X14059762Y-15435476D01*
X14078809Y-15445000D01*
X14088333Y-15454524D01*
X14097857Y-15473571D01*
X14107381Y-15511667D01*
X14107381Y-15559286D01*
X14097857Y-15597381D01*
X14088333Y-15616428D01*
X14078809Y-15625952D01*
X14059762Y-15635476D01*
X14040714Y-15635476D01*
X14021667Y-15625952D01*
X14012143Y-15616428D01*
X14002619Y-15597381D01*
X13993095Y-15559286D01*
X13993095Y-15511667D01*
X14002619Y-15473571D01*
X14012143Y-15454524D01*
X14021667Y-15445000D01*
X14040714Y-15435476D01*
X14193095Y-15616428D02*
X14202619Y-15625952D01*
X14193095Y-15635476D01*
X14183571Y-15625952D01*
X14193095Y-15616428D01*
X14193095Y-15635476D01*
X14374048Y-15502143D02*
X14374048Y-15635476D01*
X14326428Y-15425952D02*
X14278809Y-15568809D01*
X14402619Y-15568809D01*
X14516905Y-15435476D02*
X14535952Y-15435476D01*
X14555000Y-15445000D01*
X14564524Y-15454524D01*
X14574048Y-15473571D01*
X14583571Y-15511667D01*
X14583571Y-15559286D01*
X14574048Y-15597381D01*
X14564524Y-15616428D01*
X14555000Y-15625952D01*
X14535952Y-15635476D01*
X14516905Y-15635476D01*
X14497857Y-15625952D01*
X14488333Y-15616428D01*
X14478809Y-15597381D01*
X14469286Y-15559286D01*
X14469286Y-15511667D01*
X14478809Y-15473571D01*
X14488333Y-15454524D01*
X14497857Y-15445000D01*
X14516905Y-15435476D01*
X14707381Y-15435476D02*
X14726428Y-15435476D01*
X14745476Y-15445000D01*
X14755000Y-15454524D01*
X14764524Y-15473571D01*
X14774048Y-15511667D01*
X14774048Y-15559286D01*
X14764524Y-15597381D01*
X14755000Y-15616428D01*
X14745476Y-15625952D01*
X14726428Y-15635476D01*
X14707381Y-15635476D01*
X14688333Y-15625952D01*
X14678809Y-15616428D01*
X14669286Y-15597381D01*
X14659762Y-15559286D01*
X14659762Y-15511667D01*
X14669286Y-15473571D01*
X14678809Y-15454524D01*
X14688333Y-15445000D01*
X14707381Y-15435476D01*
X14859762Y-15635476D02*
X14859762Y-15502143D01*
X14859762Y-15521190D02*
X14869286Y-15511667D01*
X14888333Y-15502143D01*
X14916905Y-15502143D01*
X14935952Y-15511667D01*
X14945476Y-15530714D01*
X14945476Y-15635476D01*
X14945476Y-15530714D02*
X14955000Y-15511667D01*
X14974048Y-15502143D01*
X15002619Y-15502143D01*
X15021667Y-15511667D01*
X15031190Y-15530714D01*
X15031190Y-15635476D01*
X15126428Y-15635476D02*
X15126428Y-15502143D01*
X15126428Y-15521190D02*
X15135952Y-15511667D01*
X15155000Y-15502143D01*
X15183571Y-15502143D01*
X15202619Y-15511667D01*
X15212143Y-15530714D01*
X15212143Y-15635476D01*
X15212143Y-15530714D02*
X15221667Y-15511667D01*
X15240714Y-15502143D01*
X15269286Y-15502143D01*
X15288333Y-15511667D01*
X15297857Y-15530714D01*
X15297857Y-15635476D01*
X15688333Y-15425952D02*
X15516905Y-15683095D01*
X15945476Y-15435476D02*
X15964524Y-15435476D01*
X15983571Y-15445000D01*
X15993095Y-15454524D01*
X16002619Y-15473571D01*
X16012143Y-15511667D01*
X16012143Y-15559286D01*
X16002619Y-15597381D01*
X15993095Y-15616428D01*
X15983571Y-15625952D01*
X15964524Y-15635476D01*
X15945476Y-15635476D01*
X15926428Y-15625952D01*
X15916905Y-15616428D01*
X15907381Y-15597381D01*
X15897857Y-15559286D01*
X15897857Y-15511667D01*
X15907381Y-15473571D01*
X15916905Y-15454524D01*
X15926428Y-15445000D01*
X15945476Y-15435476D01*
X16097857Y-15616428D02*
X16107381Y-15625952D01*
X16097857Y-15635476D01*
X16088333Y-15625952D01*
X16097857Y-15616428D01*
X16097857Y-15635476D01*
X16231190Y-15435476D02*
X16250238Y-15435476D01*
X16269286Y-15445000D01*
X16278809Y-15454524D01*
X16288333Y-15473571D01*
X16297857Y-15511667D01*
X16297857Y-15559286D01*
X16288333Y-15597381D01*
X16278809Y-15616428D01*
X16269286Y-15625952D01*
X16250238Y-15635476D01*
X16231190Y-15635476D01*
X16212143Y-15625952D01*
X16202619Y-15616428D01*
X16193095Y-15597381D01*
X16183571Y-15559286D01*
X16183571Y-15511667D01*
X16193095Y-15473571D01*
X16202619Y-15454524D01*
X16212143Y-15445000D01*
X16231190Y-15435476D01*
X16488333Y-15635476D02*
X16374048Y-15635476D01*
X16431190Y-15635476D02*
X16431190Y-15435476D01*
X16412143Y-15464048D01*
X16393095Y-15483095D01*
X16374048Y-15492619D01*
X16669286Y-15435476D02*
X16574048Y-15435476D01*
X16564524Y-15530714D01*
X16574048Y-15521190D01*
X16593095Y-15511667D01*
X16640714Y-15511667D01*
X16659762Y-15521190D01*
X16669286Y-15530714D01*
X16678809Y-15549762D01*
X16678809Y-15597381D01*
X16669286Y-15616428D01*
X16659762Y-15625952D01*
X16640714Y-15635476D01*
X16593095Y-15635476D01*
X16574048Y-15625952D01*
X16564524Y-15616428D01*
X16745476Y-15435476D02*
X16878810Y-15435476D01*
X16793095Y-15635476D01*
X16945476Y-15435476D02*
X16945476Y-15473571D01*
X17021667Y-15435476D02*
X17021667Y-15473571D01*
X17316905Y-15711667D02*
X17307381Y-15702143D01*
X17288333Y-15673571D01*
X17278810Y-15654524D01*
X17269286Y-15625952D01*
X17259762Y-15578333D01*
X17259762Y-15540238D01*
X17269286Y-15492619D01*
X17278810Y-15464048D01*
X17288333Y-15445000D01*
X17307381Y-15416428D01*
X17316905Y-15406905D01*
X17478810Y-15435476D02*
X17440714Y-15435476D01*
X17421667Y-15445000D01*
X17412143Y-15454524D01*
X17393095Y-15483095D01*
X17383571Y-15521190D01*
X17383571Y-15597381D01*
X17393095Y-15616428D01*
X17402619Y-15625952D01*
X17421667Y-15635476D01*
X17459762Y-15635476D01*
X17478810Y-15625952D01*
X17488333Y-15616428D01*
X17497857Y-15597381D01*
X17497857Y-15549762D01*
X17488333Y-15530714D01*
X17478810Y-15521190D01*
X17459762Y-15511667D01*
X17421667Y-15511667D01*
X17402619Y-15521190D01*
X17393095Y-15530714D01*
X17383571Y-15549762D01*
X17735952Y-15635476D02*
X17735952Y-15435476D01*
X17821667Y-15635476D02*
X17821667Y-15530714D01*
X17812143Y-15511667D01*
X17793095Y-15502143D01*
X17764524Y-15502143D01*
X17745476Y-15511667D01*
X17735952Y-15521190D01*
X17945476Y-15635476D02*
X17926429Y-15625952D01*
X17916905Y-15616428D01*
X17907381Y-15597381D01*
X17907381Y-15540238D01*
X17916905Y-15521190D01*
X17926429Y-15511667D01*
X17945476Y-15502143D01*
X17974048Y-15502143D01*
X17993095Y-15511667D01*
X18002619Y-15521190D01*
X18012143Y-15540238D01*
X18012143Y-15597381D01*
X18002619Y-15616428D01*
X17993095Y-15625952D01*
X17974048Y-15635476D01*
X17945476Y-15635476D01*
X18126429Y-15635476D02*
X18107381Y-15625952D01*
X18097857Y-15606905D01*
X18097857Y-15435476D01*
X18278810Y-15625952D02*
X18259762Y-15635476D01*
X18221667Y-15635476D01*
X18202619Y-15625952D01*
X18193095Y-15606905D01*
X18193095Y-15530714D01*
X18202619Y-15511667D01*
X18221667Y-15502143D01*
X18259762Y-15502143D01*
X18278810Y-15511667D01*
X18288333Y-15530714D01*
X18288333Y-15549762D01*
X18193095Y-15568809D01*
X18364524Y-15625952D02*
X18383571Y-15635476D01*
X18421667Y-15635476D01*
X18440714Y-15625952D01*
X18450238Y-15606905D01*
X18450238Y-15597381D01*
X18440714Y-15578333D01*
X18421667Y-15568809D01*
X18393095Y-15568809D01*
X18374048Y-15559286D01*
X18364524Y-15540238D01*
X18364524Y-15530714D01*
X18374048Y-15511667D01*
X18393095Y-15502143D01*
X18421667Y-15502143D01*
X18440714Y-15511667D01*
X18516905Y-15711667D02*
X18526429Y-15702143D01*
X18545476Y-15673571D01*
X18555000Y-15654524D01*
X18564524Y-15625952D01*
X18574048Y-15578333D01*
X18574048Y-15540238D01*
X18564524Y-15492619D01*
X18555000Y-15464048D01*
X18545476Y-15445000D01*
X18526429Y-15416428D01*
X18516905Y-15406905D01*
D13*
X13745000Y-15809000D02*
G75*
G03*
X13745000Y-15809000I-38100J0D01*
G01*
D11*
X14040714Y-15699476D02*
X14059762Y-15699476D01*
X14078809Y-15709000D01*
X14088333Y-15718524D01*
X14097857Y-15737571D01*
X14107381Y-15775667D01*
X14107381Y-15823286D01*
X14097857Y-15861381D01*
X14088333Y-15880428D01*
X14078809Y-15889952D01*
X14059762Y-15899476D01*
X14040714Y-15899476D01*
X14021667Y-15889952D01*
X14012143Y-15880428D01*
X14002619Y-15861381D01*
X13993095Y-15823286D01*
X13993095Y-15775667D01*
X14002619Y-15737571D01*
X14012143Y-15718524D01*
X14021667Y-15709000D01*
X14040714Y-15699476D01*
X14193095Y-15880428D02*
X14202619Y-15889952D01*
X14193095Y-15899476D01*
X14183571Y-15889952D01*
X14193095Y-15880428D01*
X14193095Y-15899476D01*
X14269286Y-15699476D02*
X14402619Y-15699476D01*
X14316905Y-15899476D01*
X14564524Y-15699476D02*
X14526428Y-15699476D01*
X14507381Y-15709000D01*
X14497857Y-15718524D01*
X14478809Y-15747095D01*
X14469286Y-15785190D01*
X14469286Y-15861381D01*
X14478809Y-15880428D01*
X14488333Y-15889952D01*
X14507381Y-15899476D01*
X14545476Y-15899476D01*
X14564524Y-15889952D01*
X14574048Y-15880428D01*
X14583571Y-15861381D01*
X14583571Y-15813762D01*
X14574048Y-15794714D01*
X14564524Y-15785190D01*
X14545476Y-15775667D01*
X14507381Y-15775667D01*
X14488333Y-15785190D01*
X14478809Y-15794714D01*
X14469286Y-15813762D01*
X14659762Y-15718524D02*
X14669286Y-15709000D01*
X14688333Y-15699476D01*
X14735952Y-15699476D01*
X14755000Y-15709000D01*
X14764524Y-15718524D01*
X14774048Y-15737571D01*
X14774048Y-15756619D01*
X14764524Y-15785190D01*
X14650238Y-15899476D01*
X14774048Y-15899476D01*
X14859762Y-15899476D02*
X14859762Y-15766143D01*
X14859762Y-15785190D02*
X14869286Y-15775667D01*
X14888333Y-15766143D01*
X14916905Y-15766143D01*
X14935952Y-15775667D01*
X14945476Y-15794714D01*
X14945476Y-15899476D01*
X14945476Y-15794714D02*
X14955000Y-15775667D01*
X14974048Y-15766143D01*
X15002619Y-15766143D01*
X15021667Y-15775667D01*
X15031190Y-15794714D01*
X15031190Y-15899476D01*
X15126428Y-15899476D02*
X15126428Y-15766143D01*
X15126428Y-15785190D02*
X15135952Y-15775667D01*
X15155000Y-15766143D01*
X15183571Y-15766143D01*
X15202619Y-15775667D01*
X15212143Y-15794714D01*
X15212143Y-15899476D01*
X15212143Y-15794714D02*
X15221667Y-15775667D01*
X15240714Y-15766143D01*
X15269286Y-15766143D01*
X15288333Y-15775667D01*
X15297857Y-15794714D01*
X15297857Y-15899476D01*
X15688333Y-15689952D02*
X15516905Y-15947095D01*
X15945476Y-15699476D02*
X15964524Y-15699476D01*
X15983571Y-15709000D01*
X15993095Y-15718524D01*
X16002619Y-15737571D01*
X16012143Y-15775667D01*
X16012143Y-15823286D01*
X16002619Y-15861381D01*
X15993095Y-15880428D01*
X15983571Y-15889952D01*
X15964524Y-15899476D01*
X15945476Y-15899476D01*
X15926428Y-15889952D01*
X15916905Y-15880428D01*
X15907381Y-15861381D01*
X15897857Y-15823286D01*
X15897857Y-15775667D01*
X15907381Y-15737571D01*
X15916905Y-15718524D01*
X15926428Y-15709000D01*
X15945476Y-15699476D01*
X16097857Y-15880428D02*
X16107381Y-15889952D01*
X16097857Y-15899476D01*
X16088333Y-15889952D01*
X16097857Y-15880428D01*
X16097857Y-15899476D01*
X16231190Y-15699476D02*
X16250238Y-15699476D01*
X16269286Y-15709000D01*
X16278809Y-15718524D01*
X16288333Y-15737571D01*
X16297857Y-15775667D01*
X16297857Y-15823286D01*
X16288333Y-15861381D01*
X16278809Y-15880428D01*
X16269286Y-15889952D01*
X16250238Y-15899476D01*
X16231190Y-15899476D01*
X16212143Y-15889952D01*
X16202619Y-15880428D01*
X16193095Y-15861381D01*
X16183571Y-15823286D01*
X16183571Y-15775667D01*
X16193095Y-15737571D01*
X16202619Y-15718524D01*
X16212143Y-15709000D01*
X16231190Y-15699476D01*
X16364524Y-15699476D02*
X16488333Y-15699476D01*
X16421667Y-15775667D01*
X16450238Y-15775667D01*
X16469286Y-15785190D01*
X16478809Y-15794714D01*
X16488333Y-15813762D01*
X16488333Y-15861381D01*
X16478809Y-15880428D01*
X16469286Y-15889952D01*
X16450238Y-15899476D01*
X16393095Y-15899476D01*
X16374048Y-15889952D01*
X16364524Y-15880428D01*
X16612143Y-15699476D02*
X16631190Y-15699476D01*
X16650238Y-15709000D01*
X16659762Y-15718524D01*
X16669286Y-15737571D01*
X16678809Y-15775667D01*
X16678809Y-15823286D01*
X16669286Y-15861381D01*
X16659762Y-15880428D01*
X16650238Y-15889952D01*
X16631190Y-15899476D01*
X16612143Y-15899476D01*
X16593095Y-15889952D01*
X16583571Y-15880428D01*
X16574048Y-15861381D01*
X16564524Y-15823286D01*
X16564524Y-15775667D01*
X16574048Y-15737571D01*
X16583571Y-15718524D01*
X16593095Y-15709000D01*
X16612143Y-15699476D01*
X16802619Y-15699476D02*
X16821667Y-15699476D01*
X16840714Y-15709000D01*
X16850238Y-15718524D01*
X16859762Y-15737571D01*
X16869286Y-15775667D01*
X16869286Y-15823286D01*
X16859762Y-15861381D01*
X16850238Y-15880428D01*
X16840714Y-15889952D01*
X16821667Y-15899476D01*
X16802619Y-15899476D01*
X16783571Y-15889952D01*
X16774048Y-15880428D01*
X16764524Y-15861381D01*
X16755000Y-15823286D01*
X16755000Y-15775667D01*
X16764524Y-15737571D01*
X16774048Y-15718524D01*
X16783571Y-15709000D01*
X16802619Y-15699476D01*
X16945476Y-15699476D02*
X16945476Y-15737571D01*
X17021667Y-15699476D02*
X17021667Y-15737571D01*
X17316905Y-15975667D02*
X17307381Y-15966143D01*
X17288333Y-15937571D01*
X17278810Y-15918524D01*
X17269286Y-15889952D01*
X17259762Y-15842333D01*
X17259762Y-15804238D01*
X17269286Y-15756619D01*
X17278810Y-15728048D01*
X17288333Y-15709000D01*
X17307381Y-15680428D01*
X17316905Y-15670905D01*
X17488333Y-15699476D02*
X17393095Y-15699476D01*
X17383571Y-15794714D01*
X17393095Y-15785190D01*
X17412143Y-15775667D01*
X17459762Y-15775667D01*
X17478810Y-15785190D01*
X17488333Y-15794714D01*
X17497857Y-15813762D01*
X17497857Y-15861381D01*
X17488333Y-15880428D01*
X17478810Y-15889952D01*
X17459762Y-15899476D01*
X17412143Y-15899476D01*
X17393095Y-15889952D01*
X17383571Y-15880428D01*
X17612143Y-15785190D02*
X17593095Y-15775667D01*
X17583571Y-15766143D01*
X17574048Y-15747095D01*
X17574048Y-15737571D01*
X17583571Y-15718524D01*
X17593095Y-15709000D01*
X17612143Y-15699476D01*
X17650238Y-15699476D01*
X17669286Y-15709000D01*
X17678810Y-15718524D01*
X17688333Y-15737571D01*
X17688333Y-15747095D01*
X17678810Y-15766143D01*
X17669286Y-15775667D01*
X17650238Y-15785190D01*
X17612143Y-15785190D01*
X17593095Y-15794714D01*
X17583571Y-15804238D01*
X17574048Y-15823286D01*
X17574048Y-15861381D01*
X17583571Y-15880428D01*
X17593095Y-15889952D01*
X17612143Y-15899476D01*
X17650238Y-15899476D01*
X17669286Y-15889952D01*
X17678810Y-15880428D01*
X17688333Y-15861381D01*
X17688333Y-15823286D01*
X17678810Y-15804238D01*
X17669286Y-15794714D01*
X17650238Y-15785190D01*
X17926429Y-15899476D02*
X17926429Y-15699476D01*
X18012143Y-15899476D02*
X18012143Y-15794714D01*
X18002619Y-15775667D01*
X17983571Y-15766143D01*
X17955000Y-15766143D01*
X17935952Y-15775667D01*
X17926429Y-15785190D01*
X18135952Y-15899476D02*
X18116905Y-15889952D01*
X18107381Y-15880428D01*
X18097857Y-15861381D01*
X18097857Y-15804238D01*
X18107381Y-15785190D01*
X18116905Y-15775667D01*
X18135952Y-15766143D01*
X18164524Y-15766143D01*
X18183571Y-15775667D01*
X18193095Y-15785190D01*
X18202619Y-15804238D01*
X18202619Y-15861381D01*
X18193095Y-15880428D01*
X18183571Y-15889952D01*
X18164524Y-15899476D01*
X18135952Y-15899476D01*
X18316905Y-15899476D02*
X18297857Y-15889952D01*
X18288333Y-15870905D01*
X18288333Y-15699476D01*
X18469286Y-15889952D02*
X18450238Y-15899476D01*
X18412143Y-15899476D01*
X18393095Y-15889952D01*
X18383571Y-15870905D01*
X18383571Y-15794714D01*
X18393095Y-15775667D01*
X18412143Y-15766143D01*
X18450238Y-15766143D01*
X18469286Y-15775667D01*
X18478810Y-15794714D01*
X18478810Y-15813762D01*
X18383571Y-15832809D01*
X18555000Y-15889952D02*
X18574048Y-15899476D01*
X18612143Y-15899476D01*
X18631190Y-15889952D01*
X18640714Y-15870905D01*
X18640714Y-15861381D01*
X18631190Y-15842333D01*
X18612143Y-15832809D01*
X18583571Y-15832809D01*
X18564524Y-15823286D01*
X18555000Y-15804238D01*
X18555000Y-15794714D01*
X18564524Y-15775667D01*
X18583571Y-15766143D01*
X18612143Y-15766143D01*
X18631190Y-15775667D01*
X18707381Y-15975667D02*
X18716905Y-15966143D01*
X18735952Y-15937571D01*
X18745476Y-15918524D01*
X18755000Y-15889952D01*
X18764524Y-15842333D01*
X18764524Y-15804238D01*
X18755000Y-15756619D01*
X18745476Y-15728048D01*
X18735952Y-15709000D01*
X18716905Y-15680428D01*
X18707381Y-15670905D01*
D14*
X13695000Y-16023000D02*
X13695000Y-16123000D01*
X13645000Y-16073000D02*
X13745000Y-16073000D01*
D11*
X14107381Y-16163476D02*
X13993095Y-16163476D01*
X14050238Y-16163476D02*
X14050238Y-15963476D01*
X14031190Y-15992048D01*
X14012143Y-16011095D01*
X13993095Y-16020619D01*
X14193095Y-16144428D02*
X14202619Y-16153952D01*
X14193095Y-16163476D01*
X14183571Y-16153952D01*
X14193095Y-16144428D01*
X14193095Y-16163476D01*
X14326428Y-15963476D02*
X14345476Y-15963476D01*
X14364524Y-15973000D01*
X14374048Y-15982524D01*
X14383571Y-16001571D01*
X14393095Y-16039667D01*
X14393095Y-16087286D01*
X14383571Y-16125381D01*
X14374048Y-16144428D01*
X14364524Y-16153952D01*
X14345476Y-16163476D01*
X14326428Y-16163476D01*
X14307381Y-16153952D01*
X14297857Y-16144428D01*
X14288333Y-16125381D01*
X14278809Y-16087286D01*
X14278809Y-16039667D01*
X14288333Y-16001571D01*
X14297857Y-15982524D01*
X14307381Y-15973000D01*
X14326428Y-15963476D01*
X14516905Y-15963476D02*
X14535952Y-15963476D01*
X14555000Y-15973000D01*
X14564524Y-15982524D01*
X14574048Y-16001571D01*
X14583571Y-16039667D01*
X14583571Y-16087286D01*
X14574048Y-16125381D01*
X14564524Y-16144428D01*
X14555000Y-16153952D01*
X14535952Y-16163476D01*
X14516905Y-16163476D01*
X14497857Y-16153952D01*
X14488333Y-16144428D01*
X14478809Y-16125381D01*
X14469286Y-16087286D01*
X14469286Y-16039667D01*
X14478809Y-16001571D01*
X14488333Y-15982524D01*
X14497857Y-15973000D01*
X14516905Y-15963476D01*
X14707381Y-15963476D02*
X14726428Y-15963476D01*
X14745476Y-15973000D01*
X14755000Y-15982524D01*
X14764524Y-16001571D01*
X14774048Y-16039667D01*
X14774048Y-16087286D01*
X14764524Y-16125381D01*
X14755000Y-16144428D01*
X14745476Y-16153952D01*
X14726428Y-16163476D01*
X14707381Y-16163476D01*
X14688333Y-16153952D01*
X14678809Y-16144428D01*
X14669286Y-16125381D01*
X14659762Y-16087286D01*
X14659762Y-16039667D01*
X14669286Y-16001571D01*
X14678809Y-15982524D01*
X14688333Y-15973000D01*
X14707381Y-15963476D01*
X14859762Y-16163476D02*
X14859762Y-16030143D01*
X14859762Y-16049190D02*
X14869286Y-16039667D01*
X14888333Y-16030143D01*
X14916905Y-16030143D01*
X14935952Y-16039667D01*
X14945476Y-16058714D01*
X14945476Y-16163476D01*
X14945476Y-16058714D02*
X14955000Y-16039667D01*
X14974048Y-16030143D01*
X15002619Y-16030143D01*
X15021667Y-16039667D01*
X15031190Y-16058714D01*
X15031190Y-16163476D01*
X15126428Y-16163476D02*
X15126428Y-16030143D01*
X15126428Y-16049190D02*
X15135952Y-16039667D01*
X15155000Y-16030143D01*
X15183571Y-16030143D01*
X15202619Y-16039667D01*
X15212143Y-16058714D01*
X15212143Y-16163476D01*
X15212143Y-16058714D02*
X15221667Y-16039667D01*
X15240714Y-16030143D01*
X15269286Y-16030143D01*
X15288333Y-16039667D01*
X15297857Y-16058714D01*
X15297857Y-16163476D01*
X15688333Y-15953952D02*
X15516905Y-16211095D01*
X15945476Y-15963476D02*
X15964524Y-15963476D01*
X15983571Y-15973000D01*
X15993095Y-15982524D01*
X16002619Y-16001571D01*
X16012143Y-16039667D01*
X16012143Y-16087286D01*
X16002619Y-16125381D01*
X15993095Y-16144428D01*
X15983571Y-16153952D01*
X15964524Y-16163476D01*
X15945476Y-16163476D01*
X15926428Y-16153952D01*
X15916905Y-16144428D01*
X15907381Y-16125381D01*
X15897857Y-16087286D01*
X15897857Y-16039667D01*
X15907381Y-16001571D01*
X15916905Y-15982524D01*
X15926428Y-15973000D01*
X15945476Y-15963476D01*
X16097857Y-16144428D02*
X16107381Y-16153952D01*
X16097857Y-16163476D01*
X16088333Y-16153952D01*
X16097857Y-16144428D01*
X16097857Y-16163476D01*
X16231190Y-15963476D02*
X16250238Y-15963476D01*
X16269286Y-15973000D01*
X16278809Y-15982524D01*
X16288333Y-16001571D01*
X16297857Y-16039667D01*
X16297857Y-16087286D01*
X16288333Y-16125381D01*
X16278809Y-16144428D01*
X16269286Y-16153952D01*
X16250238Y-16163476D01*
X16231190Y-16163476D01*
X16212143Y-16153952D01*
X16202619Y-16144428D01*
X16193095Y-16125381D01*
X16183571Y-16087286D01*
X16183571Y-16039667D01*
X16193095Y-16001571D01*
X16202619Y-15982524D01*
X16212143Y-15973000D01*
X16231190Y-15963476D01*
X16364524Y-15963476D02*
X16488333Y-15963476D01*
X16421667Y-16039667D01*
X16450238Y-16039667D01*
X16469286Y-16049190D01*
X16478809Y-16058714D01*
X16488333Y-16077762D01*
X16488333Y-16125381D01*
X16478809Y-16144428D01*
X16469286Y-16153952D01*
X16450238Y-16163476D01*
X16393095Y-16163476D01*
X16374048Y-16153952D01*
X16364524Y-16144428D01*
X16583571Y-16163476D02*
X16621667Y-16163476D01*
X16640714Y-16153952D01*
X16650238Y-16144428D01*
X16669286Y-16115857D01*
X16678809Y-16077762D01*
X16678809Y-16001571D01*
X16669286Y-15982524D01*
X16659762Y-15973000D01*
X16640714Y-15963476D01*
X16602619Y-15963476D01*
X16583571Y-15973000D01*
X16574048Y-15982524D01*
X16564524Y-16001571D01*
X16564524Y-16049190D01*
X16574048Y-16068238D01*
X16583571Y-16077762D01*
X16602619Y-16087286D01*
X16640714Y-16087286D01*
X16659762Y-16077762D01*
X16669286Y-16068238D01*
X16678809Y-16049190D01*
X16850238Y-16030143D02*
X16850238Y-16163476D01*
X16802619Y-15953952D02*
X16755000Y-16096809D01*
X16878810Y-16096809D01*
X16945476Y-15963476D02*
X16945476Y-16001571D01*
X17021667Y-15963476D02*
X17021667Y-16001571D01*
X17316905Y-16239667D02*
X17307381Y-16230143D01*
X17288333Y-16201571D01*
X17278810Y-16182524D01*
X17269286Y-16153952D01*
X17259762Y-16106333D01*
X17259762Y-16068238D01*
X17269286Y-16020619D01*
X17278810Y-15992048D01*
X17288333Y-15973000D01*
X17307381Y-15944428D01*
X17316905Y-15934905D01*
X17478810Y-16030143D02*
X17478810Y-16163476D01*
X17431190Y-15953952D02*
X17383571Y-16096809D01*
X17507381Y-16096809D01*
X17564524Y-15963476D02*
X17688333Y-15963476D01*
X17621667Y-16039667D01*
X17650238Y-16039667D01*
X17669286Y-16049190D01*
X17678810Y-16058714D01*
X17688333Y-16077762D01*
X17688333Y-16125381D01*
X17678810Y-16144428D01*
X17669286Y-16153952D01*
X17650238Y-16163476D01*
X17593095Y-16163476D01*
X17574048Y-16153952D01*
X17564524Y-16144428D01*
X17926429Y-16163476D02*
X17926429Y-15963476D01*
X18012143Y-16163476D02*
X18012143Y-16058714D01*
X18002619Y-16039667D01*
X17983571Y-16030143D01*
X17955000Y-16030143D01*
X17935952Y-16039667D01*
X17926429Y-16049190D01*
X18135952Y-16163476D02*
X18116905Y-16153952D01*
X18107381Y-16144428D01*
X18097857Y-16125381D01*
X18097857Y-16068238D01*
X18107381Y-16049190D01*
X18116905Y-16039667D01*
X18135952Y-16030143D01*
X18164524Y-16030143D01*
X18183571Y-16039667D01*
X18193095Y-16049190D01*
X18202619Y-16068238D01*
X18202619Y-16125381D01*
X18193095Y-16144428D01*
X18183571Y-16153952D01*
X18164524Y-16163476D01*
X18135952Y-16163476D01*
X18316905Y-16163476D02*
X18297857Y-16153952D01*
X18288333Y-16134905D01*
X18288333Y-15963476D01*
X18469286Y-16153952D02*
X18450238Y-16163476D01*
X18412143Y-16163476D01*
X18393095Y-16153952D01*
X18383571Y-16134905D01*
X18383571Y-16058714D01*
X18393095Y-16039667D01*
X18412143Y-16030143D01*
X18450238Y-16030143D01*
X18469286Y-16039667D01*
X18478810Y-16058714D01*
X18478810Y-16077762D01*
X18383571Y-16096809D01*
X18555000Y-16153952D02*
X18574048Y-16163476D01*
X18612143Y-16163476D01*
X18631190Y-16153952D01*
X18640714Y-16134905D01*
X18640714Y-16125381D01*
X18631190Y-16106333D01*
X18612143Y-16096809D01*
X18583571Y-16096809D01*
X18564524Y-16087286D01*
X18555000Y-16068238D01*
X18555000Y-16058714D01*
X18564524Y-16039667D01*
X18583571Y-16030143D01*
X18612143Y-16030143D01*
X18631190Y-16039667D01*
X18707381Y-16239667D02*
X18716905Y-16230143D01*
X18735952Y-16201571D01*
X18745476Y-16182524D01*
X18755000Y-16153952D01*
X18764524Y-16106333D01*
X18764524Y-16068238D01*
X18755000Y-16020619D01*
X18745476Y-15992048D01*
X18735952Y-15973000D01*
X18716905Y-15944428D01*
X18707381Y-15934905D01*
D15*
X13730121Y-16372921D02*
X13730121Y-16301079D01*
X13658279Y-16301079D01*
X13658279Y-16372921D01*
X13730121Y-16372921D01*
D11*
X14107381Y-16427476D02*
X13993095Y-16427476D01*
X14050238Y-16427476D02*
X14050238Y-16227476D01*
X14031190Y-16256048D01*
X14012143Y-16275095D01*
X13993095Y-16284619D01*
X14193095Y-16408428D02*
X14202619Y-16417952D01*
X14193095Y-16427476D01*
X14183571Y-16417952D01*
X14193095Y-16408428D01*
X14193095Y-16427476D01*
X14326428Y-16227476D02*
X14345476Y-16227476D01*
X14364524Y-16237000D01*
X14374048Y-16246524D01*
X14383571Y-16265571D01*
X14393095Y-16303667D01*
X14393095Y-16351286D01*
X14383571Y-16389381D01*
X14374048Y-16408428D01*
X14364524Y-16417952D01*
X14345476Y-16427476D01*
X14326428Y-16427476D01*
X14307381Y-16417952D01*
X14297857Y-16408428D01*
X14288333Y-16389381D01*
X14278809Y-16351286D01*
X14278809Y-16303667D01*
X14288333Y-16265571D01*
X14297857Y-16246524D01*
X14307381Y-16237000D01*
X14326428Y-16227476D01*
X14583571Y-16427476D02*
X14469286Y-16427476D01*
X14526428Y-16427476D02*
X14526428Y-16227476D01*
X14507381Y-16256048D01*
X14488333Y-16275095D01*
X14469286Y-16284619D01*
X14755000Y-16227476D02*
X14716905Y-16227476D01*
X14697857Y-16237000D01*
X14688333Y-16246524D01*
X14669286Y-16275095D01*
X14659762Y-16313190D01*
X14659762Y-16389381D01*
X14669286Y-16408428D01*
X14678809Y-16417952D01*
X14697857Y-16427476D01*
X14735952Y-16427476D01*
X14755000Y-16417952D01*
X14764524Y-16408428D01*
X14774048Y-16389381D01*
X14774048Y-16341762D01*
X14764524Y-16322714D01*
X14755000Y-16313190D01*
X14735952Y-16303667D01*
X14697857Y-16303667D01*
X14678809Y-16313190D01*
X14669286Y-16322714D01*
X14659762Y-16341762D01*
X14859762Y-16427476D02*
X14859762Y-16294143D01*
X14859762Y-16313190D02*
X14869286Y-16303667D01*
X14888333Y-16294143D01*
X14916905Y-16294143D01*
X14935952Y-16303667D01*
X14945476Y-16322714D01*
X14945476Y-16427476D01*
X14945476Y-16322714D02*
X14955000Y-16303667D01*
X14974048Y-16294143D01*
X15002619Y-16294143D01*
X15021667Y-16303667D01*
X15031190Y-16322714D01*
X15031190Y-16427476D01*
X15126428Y-16427476D02*
X15126428Y-16294143D01*
X15126428Y-16313190D02*
X15135952Y-16303667D01*
X15155000Y-16294143D01*
X15183571Y-16294143D01*
X15202619Y-16303667D01*
X15212143Y-16322714D01*
X15212143Y-16427476D01*
X15212143Y-16322714D02*
X15221667Y-16303667D01*
X15240714Y-16294143D01*
X15269286Y-16294143D01*
X15288333Y-16303667D01*
X15297857Y-16322714D01*
X15297857Y-16427476D01*
X15688333Y-16217952D02*
X15516905Y-16475095D01*
X15945476Y-16227476D02*
X15964524Y-16227476D01*
X15983571Y-16237000D01*
X15993095Y-16246524D01*
X16002619Y-16265571D01*
X16012143Y-16303667D01*
X16012143Y-16351286D01*
X16002619Y-16389381D01*
X15993095Y-16408428D01*
X15983571Y-16417952D01*
X15964524Y-16427476D01*
X15945476Y-16427476D01*
X15926428Y-16417952D01*
X15916905Y-16408428D01*
X15907381Y-16389381D01*
X15897857Y-16351286D01*
X15897857Y-16303667D01*
X15907381Y-16265571D01*
X15916905Y-16246524D01*
X15926428Y-16237000D01*
X15945476Y-16227476D01*
X16097857Y-16408428D02*
X16107381Y-16417952D01*
X16097857Y-16427476D01*
X16088333Y-16417952D01*
X16097857Y-16408428D01*
X16097857Y-16427476D01*
X16231190Y-16227476D02*
X16250238Y-16227476D01*
X16269286Y-16237000D01*
X16278809Y-16246524D01*
X16288333Y-16265571D01*
X16297857Y-16303667D01*
X16297857Y-16351286D01*
X16288333Y-16389381D01*
X16278809Y-16408428D01*
X16269286Y-16417952D01*
X16250238Y-16427476D01*
X16231190Y-16427476D01*
X16212143Y-16417952D01*
X16202619Y-16408428D01*
X16193095Y-16389381D01*
X16183571Y-16351286D01*
X16183571Y-16303667D01*
X16193095Y-16265571D01*
X16202619Y-16246524D01*
X16212143Y-16237000D01*
X16231190Y-16227476D01*
X16469286Y-16294143D02*
X16469286Y-16427476D01*
X16421667Y-16217952D02*
X16374048Y-16360809D01*
X16497857Y-16360809D01*
X16612143Y-16227476D02*
X16631190Y-16227476D01*
X16650238Y-16237000D01*
X16659762Y-16246524D01*
X16669286Y-16265571D01*
X16678809Y-16303667D01*
X16678809Y-16351286D01*
X16669286Y-16389381D01*
X16659762Y-16408428D01*
X16650238Y-16417952D01*
X16631190Y-16427476D01*
X16612143Y-16427476D01*
X16593095Y-16417952D01*
X16583571Y-16408428D01*
X16574048Y-16389381D01*
X16564524Y-16351286D01*
X16564524Y-16303667D01*
X16574048Y-16265571D01*
X16583571Y-16246524D01*
X16593095Y-16237000D01*
X16612143Y-16227476D01*
X16802619Y-16227476D02*
X16821667Y-16227476D01*
X16840714Y-16237000D01*
X16850238Y-16246524D01*
X16859762Y-16265571D01*
X16869286Y-16303667D01*
X16869286Y-16351286D01*
X16859762Y-16389381D01*
X16850238Y-16408428D01*
X16840714Y-16417952D01*
X16821667Y-16427476D01*
X16802619Y-16427476D01*
X16783571Y-16417952D01*
X16774048Y-16408428D01*
X16764524Y-16389381D01*
X16755000Y-16351286D01*
X16755000Y-16303667D01*
X16764524Y-16265571D01*
X16774048Y-16246524D01*
X16783571Y-16237000D01*
X16802619Y-16227476D01*
X16945476Y-16227476D02*
X16945476Y-16265571D01*
X17021667Y-16227476D02*
X17021667Y-16265571D01*
X17316905Y-16503667D02*
X17307381Y-16494143D01*
X17288333Y-16465571D01*
X17278810Y-16446524D01*
X17269286Y-16417952D01*
X17259762Y-16370333D01*
X17259762Y-16332238D01*
X17269286Y-16284619D01*
X17278810Y-16256048D01*
X17288333Y-16237000D01*
X17307381Y-16208428D01*
X17316905Y-16198905D01*
X17383571Y-16246524D02*
X17393095Y-16237000D01*
X17412143Y-16227476D01*
X17459762Y-16227476D01*
X17478810Y-16237000D01*
X17488333Y-16246524D01*
X17497857Y-16265571D01*
X17497857Y-16284619D01*
X17488333Y-16313190D01*
X17374048Y-16427476D01*
X17497857Y-16427476D01*
X17612143Y-16313190D02*
X17593095Y-16303667D01*
X17583571Y-16294143D01*
X17574048Y-16275095D01*
X17574048Y-16265571D01*
X17583571Y-16246524D01*
X17593095Y-16237000D01*
X17612143Y-16227476D01*
X17650238Y-16227476D01*
X17669286Y-16237000D01*
X17678810Y-16246524D01*
X17688333Y-16265571D01*
X17688333Y-16275095D01*
X17678810Y-16294143D01*
X17669286Y-16303667D01*
X17650238Y-16313190D01*
X17612143Y-16313190D01*
X17593095Y-16322714D01*
X17583571Y-16332238D01*
X17574048Y-16351286D01*
X17574048Y-16389381D01*
X17583571Y-16408428D01*
X17593095Y-16417952D01*
X17612143Y-16427476D01*
X17650238Y-16427476D01*
X17669286Y-16417952D01*
X17678810Y-16408428D01*
X17688333Y-16389381D01*
X17688333Y-16351286D01*
X17678810Y-16332238D01*
X17669286Y-16322714D01*
X17650238Y-16313190D01*
X17926429Y-16427476D02*
X17926429Y-16227476D01*
X18012143Y-16427476D02*
X18012143Y-16322714D01*
X18002619Y-16303667D01*
X17983571Y-16294143D01*
X17955000Y-16294143D01*
X17935952Y-16303667D01*
X17926429Y-16313190D01*
X18135952Y-16427476D02*
X18116905Y-16417952D01*
X18107381Y-16408428D01*
X18097857Y-16389381D01*
X18097857Y-16332238D01*
X18107381Y-16313190D01*
X18116905Y-16303667D01*
X18135952Y-16294143D01*
X18164524Y-16294143D01*
X18183571Y-16303667D01*
X18193095Y-16313190D01*
X18202619Y-16332238D01*
X18202619Y-16389381D01*
X18193095Y-16408428D01*
X18183571Y-16417952D01*
X18164524Y-16427476D01*
X18135952Y-16427476D01*
X18316905Y-16427476D02*
X18297857Y-16417952D01*
X18288333Y-16398905D01*
X18288333Y-16227476D01*
X18469286Y-16417952D02*
X18450238Y-16427476D01*
X18412143Y-16427476D01*
X18393095Y-16417952D01*
X18383571Y-16398905D01*
X18383571Y-16322714D01*
X18393095Y-16303667D01*
X18412143Y-16294143D01*
X18450238Y-16294143D01*
X18469286Y-16303667D01*
X18478810Y-16322714D01*
X18478810Y-16341762D01*
X18383571Y-16360809D01*
X18555000Y-16417952D02*
X18574048Y-16427476D01*
X18612143Y-16427476D01*
X18631190Y-16417952D01*
X18640714Y-16398905D01*
X18640714Y-16389381D01*
X18631190Y-16370333D01*
X18612143Y-16360809D01*
X18583571Y-16360809D01*
X18564524Y-16351286D01*
X18555000Y-16332238D01*
X18555000Y-16322714D01*
X18564524Y-16303667D01*
X18583571Y-16294143D01*
X18612143Y-16294143D01*
X18631190Y-16303667D01*
X18707381Y-16503667D02*
X18716905Y-16494143D01*
X18735952Y-16465571D01*
X18745476Y-16446524D01*
X18755000Y-16417952D01*
X18764524Y-16370333D01*
X18764524Y-16332238D01*
X18755000Y-16284619D01*
X18745476Y-16256048D01*
X18735952Y-16237000D01*
X18716905Y-16208428D01*
X18707381Y-16198905D01*
X13645000Y-16701000D02*
X13745000Y-16601000D01*
X13645000Y-16501000D01*
X13545000Y-16601000D01*
X13645000Y-16701000D01*
X13993095Y-16510524D02*
X14002619Y-16501000D01*
X14021667Y-16491476D01*
X14069286Y-16491476D01*
X14088333Y-16501000D01*
X14097857Y-16510524D01*
X14107381Y-16529571D01*
X14107381Y-16548619D01*
X14097857Y-16577190D01*
X13983571Y-16691476D01*
X14107381Y-16691476D01*
X14193095Y-16672428D02*
X14202619Y-16681952D01*
X14193095Y-16691476D01*
X14183571Y-16681952D01*
X14193095Y-16672428D01*
X14193095Y-16691476D01*
X14383571Y-16491476D02*
X14288333Y-16491476D01*
X14278809Y-16586714D01*
X14288333Y-16577190D01*
X14307381Y-16567667D01*
X14355000Y-16567667D01*
X14374048Y-16577190D01*
X14383571Y-16586714D01*
X14393095Y-16605762D01*
X14393095Y-16653381D01*
X14383571Y-16672428D01*
X14374048Y-16681952D01*
X14355000Y-16691476D01*
X14307381Y-16691476D01*
X14288333Y-16681952D01*
X14278809Y-16672428D01*
X14564524Y-16558143D02*
X14564524Y-16691476D01*
X14516905Y-16481952D02*
X14469286Y-16624809D01*
X14593095Y-16624809D01*
X14707381Y-16491476D02*
X14726428Y-16491476D01*
X14745476Y-16501000D01*
X14755000Y-16510524D01*
X14764524Y-16529571D01*
X14774048Y-16567667D01*
X14774048Y-16615286D01*
X14764524Y-16653381D01*
X14755000Y-16672428D01*
X14745476Y-16681952D01*
X14726428Y-16691476D01*
X14707381Y-16691476D01*
X14688333Y-16681952D01*
X14678809Y-16672428D01*
X14669286Y-16653381D01*
X14659762Y-16615286D01*
X14659762Y-16567667D01*
X14669286Y-16529571D01*
X14678809Y-16510524D01*
X14688333Y-16501000D01*
X14707381Y-16491476D01*
X14859762Y-16691476D02*
X14859762Y-16558143D01*
X14859762Y-16577190D02*
X14869286Y-16567667D01*
X14888333Y-16558143D01*
X14916905Y-16558143D01*
X14935952Y-16567667D01*
X14945476Y-16586714D01*
X14945476Y-16691476D01*
X14945476Y-16586714D02*
X14955000Y-16567667D01*
X14974048Y-16558143D01*
X15002619Y-16558143D01*
X15021667Y-16567667D01*
X15031190Y-16586714D01*
X15031190Y-16691476D01*
X15126428Y-16691476D02*
X15126428Y-16558143D01*
X15126428Y-16577190D02*
X15135952Y-16567667D01*
X15155000Y-16558143D01*
X15183571Y-16558143D01*
X15202619Y-16567667D01*
X15212143Y-16586714D01*
X15212143Y-16691476D01*
X15212143Y-16586714D02*
X15221667Y-16567667D01*
X15240714Y-16558143D01*
X15269286Y-16558143D01*
X15288333Y-16567667D01*
X15297857Y-16586714D01*
X15297857Y-16691476D01*
X15688333Y-16481952D02*
X15516905Y-16739095D01*
X15945476Y-16491476D02*
X15964524Y-16491476D01*
X15983571Y-16501000D01*
X15993095Y-16510524D01*
X16002619Y-16529571D01*
X16012143Y-16567667D01*
X16012143Y-16615286D01*
X16002619Y-16653381D01*
X15993095Y-16672428D01*
X15983571Y-16681952D01*
X15964524Y-16691476D01*
X15945476Y-16691476D01*
X15926428Y-16681952D01*
X15916905Y-16672428D01*
X15907381Y-16653381D01*
X15897857Y-16615286D01*
X15897857Y-16567667D01*
X15907381Y-16529571D01*
X15916905Y-16510524D01*
X15926428Y-16501000D01*
X15945476Y-16491476D01*
X16097857Y-16672428D02*
X16107381Y-16681952D01*
X16097857Y-16691476D01*
X16088333Y-16681952D01*
X16097857Y-16672428D01*
X16097857Y-16691476D01*
X16297857Y-16691476D02*
X16183571Y-16691476D01*
X16240714Y-16691476D02*
X16240714Y-16491476D01*
X16221667Y-16520048D01*
X16202619Y-16539095D01*
X16183571Y-16548619D01*
X16421667Y-16491476D02*
X16440714Y-16491476D01*
X16459762Y-16501000D01*
X16469286Y-16510524D01*
X16478809Y-16529571D01*
X16488333Y-16567667D01*
X16488333Y-16615286D01*
X16478809Y-16653381D01*
X16469286Y-16672428D01*
X16459762Y-16681952D01*
X16440714Y-16691476D01*
X16421667Y-16691476D01*
X16402619Y-16681952D01*
X16393095Y-16672428D01*
X16383571Y-16653381D01*
X16374048Y-16615286D01*
X16374048Y-16567667D01*
X16383571Y-16529571D01*
X16393095Y-16510524D01*
X16402619Y-16501000D01*
X16421667Y-16491476D01*
X16612143Y-16491476D02*
X16631190Y-16491476D01*
X16650238Y-16501000D01*
X16659762Y-16510524D01*
X16669286Y-16529571D01*
X16678809Y-16567667D01*
X16678809Y-16615286D01*
X16669286Y-16653381D01*
X16659762Y-16672428D01*
X16650238Y-16681952D01*
X16631190Y-16691476D01*
X16612143Y-16691476D01*
X16593095Y-16681952D01*
X16583571Y-16672428D01*
X16574048Y-16653381D01*
X16564524Y-16615286D01*
X16564524Y-16567667D01*
X16574048Y-16529571D01*
X16583571Y-16510524D01*
X16593095Y-16501000D01*
X16612143Y-16491476D01*
X16802619Y-16491476D02*
X16821667Y-16491476D01*
X16840714Y-16501000D01*
X16850238Y-16510524D01*
X16859762Y-16529571D01*
X16869286Y-16567667D01*
X16869286Y-16615286D01*
X16859762Y-16653381D01*
X16850238Y-16672428D01*
X16840714Y-16681952D01*
X16821667Y-16691476D01*
X16802619Y-16691476D01*
X16783571Y-16681952D01*
X16774048Y-16672428D01*
X16764524Y-16653381D01*
X16755000Y-16615286D01*
X16755000Y-16567667D01*
X16764524Y-16529571D01*
X16774048Y-16510524D01*
X16783571Y-16501000D01*
X16802619Y-16491476D01*
X16945476Y-16491476D02*
X16945476Y-16529571D01*
X17021667Y-16491476D02*
X17021667Y-16529571D01*
X17316905Y-16767667D02*
X17307381Y-16758143D01*
X17288333Y-16729571D01*
X17278810Y-16710524D01*
X17269286Y-16681952D01*
X17259762Y-16634333D01*
X17259762Y-16596238D01*
X17269286Y-16548619D01*
X17278810Y-16520048D01*
X17288333Y-16501000D01*
X17307381Y-16472428D01*
X17316905Y-16462905D01*
X17478810Y-16558143D02*
X17478810Y-16691476D01*
X17431190Y-16481952D02*
X17383571Y-16624809D01*
X17507381Y-16624809D01*
X17735952Y-16691476D02*
X17735952Y-16491476D01*
X17821667Y-16691476D02*
X17821667Y-16586714D01*
X17812143Y-16567667D01*
X17793095Y-16558143D01*
X17764524Y-16558143D01*
X17745476Y-16567667D01*
X17735952Y-16577190D01*
X17945476Y-16691476D02*
X17926429Y-16681952D01*
X17916905Y-16672428D01*
X17907381Y-16653381D01*
X17907381Y-16596238D01*
X17916905Y-16577190D01*
X17926429Y-16567667D01*
X17945476Y-16558143D01*
X17974048Y-16558143D01*
X17993095Y-16567667D01*
X18002619Y-16577190D01*
X18012143Y-16596238D01*
X18012143Y-16653381D01*
X18002619Y-16672428D01*
X17993095Y-16681952D01*
X17974048Y-16691476D01*
X17945476Y-16691476D01*
X18126429Y-16691476D02*
X18107381Y-16681952D01*
X18097857Y-16662905D01*
X18097857Y-16491476D01*
X18278810Y-16681952D02*
X18259762Y-16691476D01*
X18221667Y-16691476D01*
X18202619Y-16681952D01*
X18193095Y-16662905D01*
X18193095Y-16586714D01*
X18202619Y-16567667D01*
X18221667Y-16558143D01*
X18259762Y-16558143D01*
X18278810Y-16567667D01*
X18288333Y-16586714D01*
X18288333Y-16605762D01*
X18193095Y-16624809D01*
X18364524Y-16681952D02*
X18383571Y-16691476D01*
X18421667Y-16691476D01*
X18440714Y-16681952D01*
X18450238Y-16662905D01*
X18450238Y-16653381D01*
X18440714Y-16634333D01*
X18421667Y-16624809D01*
X18393095Y-16624809D01*
X18374048Y-16615286D01*
X18364524Y-16596238D01*
X18364524Y-16586714D01*
X18374048Y-16567667D01*
X18393095Y-16558143D01*
X18421667Y-16558143D01*
X18440714Y-16567667D01*
X18516905Y-16767667D02*
X18526429Y-16758143D01*
X18545476Y-16729571D01*
X18555000Y-16710524D01*
X18564524Y-16681952D01*
X18574048Y-16634333D01*
X18574048Y-16596238D01*
X18564524Y-16548619D01*
X18555000Y-16520048D01*
X18545476Y-16501000D01*
X18526429Y-16472428D01*
X18516905Y-16462905D01*
M02*
